<?xml version="1.0" encoding="utf-8"?>
<!-- Generator: Adobe Illustrator 25.4.1, SVG Export Plug-In . SVG Version: 6.00 Build 0)  -->
<svg version="1.1" id="Layer_1" xmlns="http://www.w3.org/2000/svg" xmlns:xlink="http://www.w3.org/1999/xlink" x="0px" y="0px"
	 viewBox="0 0 100 100" style="enable-background:new 0 0 100 100;" xml:space="preserve">
<style type="text/css">
	.st0{fill:#2D2E82;}
	
		.st1{clip-path:url(#SVGID_00000019645838854799764470000001155611213942895267_);fill-rule:evenodd;clip-rule:evenodd;fill:none;stroke:#FFFFFF;stroke-width:1.5232;stroke-linecap:round;stroke-linejoin:round;stroke-miterlimit:10;}
</style>
<circle class="st0" cx="50" cy="50" r="50"/>
<g>
	<defs>
		<circle id="SVGID_1_" cx="50" cy="50" r="50"/>
	</defs>
	<clipPath id="SVGID_00000148634717036279951160000007789858313321955221_">
		<use xlink:href="#SVGID_1_"  style="overflow:visible;"/>
	</clipPath>
	
		<path style="clip-path:url(#SVGID_00000148634717036279951160000007789858313321955221_);fill-rule:evenodd;clip-rule:evenodd;fill:none;stroke:#FFFFFF;stroke-width:1.5232;stroke-linecap:round;stroke-linejoin:round;stroke-miterlimit:10;" d="
		M81.5,48.5c-2.4-2.7-3.3-5.2-5.3-7.4c-0.3-0.3-0.3-0.7-0.3-1.1c0-0.5,0-1,0.3-1.4c0.5-0.8,0.2-2.4-0.8-4.6l1.6-0.8
		c0,0-1.5-5.8-2.3-8.7c-0.8-2.9-4.5-4.1-4.5-4.1c-2.7-2.9-8.4-4.9-12.6-5.9c-2.4-0.6-5.1-0.8-7.7-0.7c0,0,0,0,0,0S34.5,13.3,29.5,22
		c-5.1,8.8-4.3,16.7-6.4,21c-2,4.3-3.5,6.9-4,8.1c-0.6,1.2-3.4,4-3.2,7.7c0.2,3.2,2,3.8,2,3.8s-0.4,2.5,0.6,4
		c1.2,1.9,3.5,1.8,3.5,1.8s0.2,2.5,1.9,3.4c1.6,0.9,3.7,0.8,3.7,0.8s1.9,4.2,5.4,2.8c-11.7,8-18.3,21.8-21.6,27.4h57.7
		c-0.5-6.1-6.7-21.5-4.7-26.7c0.5-1.3,0.9-3.1,1.6-3.8c2.5-2.1,4.6-2.1,8.5-3.8c2.2-0.4,4.2-1.9,2.1-5.6c-0.5-0.8-0.5-1.3-0.4-1.9
		c0-0.2,0.7-0.6,1.3-1c0.7-0.5,0.7-1.2-0.4-2.1c0.9-0.1,1.4-0.7,1.1-1.9c-0.6-0.4-1.1-2.8,0-3.2c1-0.2,1.9-0.8,2.6-1.3
		C81.9,50.6,82.2,49.3,81.5,48.5z"/>
</g>
</svg>
