<?xml version="1.0" encoding="utf-8"?>
<!-- Generator: Adobe Illustrator 25.4.1, SVG Export Plug-In . SVG Version: 6.00 Build 0)  -->
<svg version="1.1" id="Layer_1" xmlns="http://www.w3.org/2000/svg" xmlns:xlink="http://www.w3.org/1999/xlink" x="0px" y="0px"
	 viewBox="0 0 100 100" style="enable-background:new 0 0 100 100;" xml:space="preserve">
<style type="text/css">
	.st0{fill:#EDEDED;}
</style>
<path class="st0" d="M84.2,10.7H15.8c-2.8,0-5,2.2-5,5v68.5c0,2.8,2.2,5,5,5h68.5c2.8,0,5-2.2,5-5V15.8C89.3,13,87,10.7,84.2,10.7z
	 M74.7,74.3H64V54.8c0-4,0.1-8.6,0.1-12.1L64,42.7c-2.3,3.4-4.7,7-7.1,10.4l-7.1,10l-7.1-10c-2.4-3.4-4.8-7-7.1-10.4l-0.1,0.1
	c0.1,3.5,0.1,8.1,0.1,12.1v19.5H25.3V25.7h10.3l14.4,20.6l14.4-20.6h10.1V74.3z"/>
</svg>
