<?xml version="1.0" encoding="utf-8"?>
<!-- Generator: Adobe Illustrator 25.4.1, SVG Export Plug-In . SVG Version: 6.00 Build 0)  -->
<svg version="1.1" id="Layer_1" xmlns="http://www.w3.org/2000/svg" xmlns:xlink="http://www.w3.org/1999/xlink" x="0px" y="0px"
	 viewBox="0 0 100 100" style="enable-background:new 0 0 100 100;" xml:space="preserve">
<style type="text/css">
	.st0{fill:#EDEDED;}
</style>
<g>
	<path class="st0" d="M51.1,24.3c-11,0-11,18.4-11,27.1c0,9,0,27.1,11,27.1c11,0,11-18.2,11-27.1C62.1,42.7,62.1,24.3,51.1,24.3z"/>
	<path class="st0" d="M85.3,12.2H16.9c-2.8,0-5,2.2-5,5v68.5c0,2.8,2.2,5,5,5h68.5c2.8,0,5-2.2,5-5V17.3
		C90.4,14.5,88.1,12.2,85.3,12.2z M75.2,16.6c1,0.3,2.5,0.9,3.5,1.2c1.5,0.4,1.9-0.2,2.7-0.7c0.8-0.4,1.7,0,1.7,0
		c-0.6,3.1-3.9,4.4-5.1,5.1c-1.2,0.7-0.8,2.3-0.8,2.3s-1.4-0.2-1.7-1.4c-0.3-1.2,0.5-1.8,0.5-1.8s-1.5,0.5-1.9-0.5
		c-0.4-1,0.5-1.9,0.5-1.9c-1,0.2-1.8-0.3-2.2-0.8c-0.3-0.4-1.2-1.1-1.6-1.4H75.2z M20.8,17.1c0.8,0.4,1.2,1,2.7,0.7
		c1-0.3,2.4-0.8,3.4-1.2h4.5c-0.4,0.3-1.3,1-1.6,1.4c-0.4,0.5-1.3,1-2.2,0.8c0,0,0.9,0.9,0.5,1.9c-0.4,1-1.9,0.5-1.9,0.5
		s0.7,0.6,0.5,1.8c-0.3,1.2-1.7,1.4-1.7,1.4s0.5-1.6-0.8-2.3c-1.2-0.7-4.5-2-5.1-5.1C19.1,17.1,20,16.7,20.8,17.1z M16,27.6
		c0.3-1,0.9-2.5,1.2-3.5c0.4-1.5-0.2-1.9-0.7-2.7c-0.4-0.8,0-1.7,0-1.7c3.1,0.6,4.4,3.9,5.1,5.1c0.7,1.2,2.3,0.8,2.3,0.8
		s-0.2,1.4-1.4,1.7c-1.2,0.3-1.8-0.5-1.8-0.5s0.5,1.5-0.5,1.9c-1,0.4-1.9-0.5-1.9-0.5c0.2,1-0.3,1.8-0.8,2.2
		c-0.4,0.3-1.1,1.2-1.4,1.6V27.6z M16.5,83.3c0,0-0.4-0.9,0-1.7c0.4-0.8,1-1.2,0.7-2.7c-0.3-1-0.8-2.4-1.2-3.4V71
		c0.3,0.4,1,1.3,1.4,1.6c0.5,0.4,1,1.3,0.8,2.2c0,0,0.9-0.9,1.9-0.5c1,0.4,0.5,1.9,0.5,1.9s0.6-0.7,1.8-0.5c1.2,0.3,1.4,1.7,1.4,1.7
		s-1.6-0.5-2.3,0.8C20.9,79.4,19.7,82.6,16.5,83.3z M27,86.4c-1-0.3-2.5-0.9-3.5-1.2c-1.5-0.4-1.9,0.2-2.7,0.7c-0.8,0.4-1.7,0-1.7,0
		c0.6-3.1,3.9-4.4,5.1-5.1c1.2-0.7,0.8-2.3,0.8-2.3s1.4,0.2,1.7,1.4c0.3,1.2-0.5,1.8-0.5,1.8s1.5-0.5,1.9,0.5c0.4,1-0.5,1.9-0.5,1.9
		c1-0.2,1.8,0.3,2.2,0.8c0.3,0.4,1.2,1.1,1.6,1.4H27z M23.8,51.5c0-16.4,12.3-27.4,27.3-27.4c15.1,0,27.3,11.1,27.3,27.4
		c0,17.4-13.4,27.4-27.3,27.4S23.8,68.9,23.8,51.5z M81.4,85.9c-0.8-0.4-1.2-1-2.7-0.7c-1,0.3-2.4,0.8-3.4,1.2h-4.5
		c0.4-0.3,1.3-1,1.6-1.4c0.4-0.5,1.3-1,2.2-0.8c0,0-0.9-0.9-0.5-1.9c0.4-1,1.9-0.5,1.9-0.5s-0.7-0.6-0.5-1.8s1.7-1.4,1.7-1.4
		s-0.5,1.6,0.8,2.3c1.2,0.7,4.5,2,5.1,5.1C83.1,85.9,82.2,86.3,81.4,85.9z M86.2,75.4c-0.3,1-0.9,2.5-1.2,3.5
		c-0.4,1.5,0.2,1.9,0.7,2.7c0.4,0.8,0,1.7,0,1.7c-3.1-0.6-4.4-3.9-5.1-5.1c-0.7-1.2-2.3-0.8-2.3-0.8s0.2-1.4,1.4-1.7
		c1.2-0.3,1.8,0.5,1.8,0.5S81,74.8,82,74.3c1-0.4,1.9,0.5,1.9,0.5c-0.2-1,0.3-1.8,0.8-2.2c0.4-0.3,1.1-1.2,1.4-1.6V75.4z M86.2,32
		c-0.3-0.4-1-1.3-1.4-1.6c-0.5-0.4-1-1.3-0.8-2.2c0,0-0.9,0.9-1.9,0.5c-1-0.4-0.5-1.9-0.5-1.9s-0.6,0.7-1.8,0.5
		c-1.2-0.3-1.4-1.7-1.4-1.7s1.6,0.5,2.3-0.8c0.7-1.2,2-4.5,5.1-5.1c0,0,0.4,0.9,0,1.7c-0.4,0.8-1,1.2-0.7,2.7c0.3,1,0.8,2.4,1.2,3.4
		V32z"/>
</g>
</svg>
