<?xml version="1.0" encoding="utf-8"?>
<svg version="1.1" width="35" height="35" id="scan-icon" xmlns="http://www.w3.org/2000/svg" xmlns:xlink="http://www.w3.org/1999/xlink" x="0px" y="0px"
	 viewBox="0 0 384 512" style="enable-background:new 0 0 384 512;" xml:space="preserve">
<path d="M62.5,501.7c-29.8,0-54-24.2-54-54l0-384c0-29.8,24.2-54,54-54h181.4c14.2,0,28.1,5.8,38.2,15.8l74.6,74.6
	c10,10,15.8,23.9,15.8,38.1v309.4c0,29.8-24.2,54-54,54H62.5z M62.5,37.8c-14.3,0-26,11.7-26,26l0,383.9c0,14.3,11.7,26,26,26h256
	c14.3,0,26-11.7,26-26v-298h-90c-12.1,0-22-9.9-22-22V37.8H62.5z"/>
<g>
	<path d="M141.2,222.7c-3.7-6.9-11-11.5-19.3-11.5s-15.6,4.7-19.3,11.5h-32v20.8h32c3.7,6.9,11,11.5,19.3,11.5
		s15.6-4.7,19.3-11.5h168.3v-20.8H141.2z"/>
	<rect x="70.5" y="347.4" width="239" height="20.8"/>
	<path d="M167.5,294.3c-8.4,0-15.6,4.7-19.3,11.5H70.5v20.8h77.7c3.7,6.9,11,11.5,19.3,11.5c8.4,0,15.6-4.7,19.3-11.5
		h122.7v-20.8H186.8C183.1,299,175.8,294.3,167.5,294.3z"/>
	<path d="M220.6,252.8c-8.4,0-15.6,4.7-19.3,11.5H70.5v20.8h130.8c3.7,6.9,11,11.5,19.3,11.5s15.6-4.7,19.3-11.5h69.6
		v-20.8h-69.6C236.2,257.4,228.9,252.8,220.6,252.8z"/>
	<path d="M264.5,377.4c-8.4,0-15.6,4.7-19.3,11.5H70.5v20.8h174.6c3.7,6.9,11,11.5,19.3,11.5s15.6-4.7,19.3-11.5h25.7
		V389h-25.7C280.1,382.1,272.8,377.4,264.5,377.4z"/>
</g>
</svg>
