<?xml version="1.0" encoding="UTF-8" standalone="no"?>
<svg xmlns:svg="http://www.w3.org/2000/svg"
	xmlns="http://www.w3.org/2000/svg"
	viewBox="0 0 150 275"
	height="275"
	width="275"
	xml:space="preserve"
	id="nifc" version="1.1">
	<g transform="matrix(1.3333333,0,0,-1.3333333,0,330.00002)">

	<!-- white stripe -->
	<g transform="translate(15,25), rotate(5)">
		<path d="m 43.3012,172.923 c -0.8524,-0.516 -1.4395,-1.385 -2.2637,-1.944 -0.2152,-0.146 -0.5336,-0.019 -0.7746,-0.118 -0.4844,-0.199 -1.0074,-0.392 -1.3703,-0.766 -0.5949,-0.614 -0.8078,-1.535 -1.4301,-2.122 -0.282,-0.266 -0.7789,-0.131 -1.132,-0.294 -0.5891,-0.273 -1.1723,-0.586 -1.668,-1.002 -0.1832,-0.154 -0.1648,-0.451 -0.298,-0.648 -0.1875,-0.279 -0.4497,-0.501 -0.6555,-0.766 -0.4496,-0.58 -1.0852,-1.073 -1.3106,-1.768 -0.2914,-0.9 0.0438,-1.911 -0.1789,-2.829 -0.0425,-0.176 -0.441,0.036 -0.5363,-0.118 -0.1668,-0.271 0.0344,-0.665 -0.1187,-0.943 -0.2223,-0.402 -0.8071,-0.567 -0.9536,-1.002 -0.2711,-0.805 -0.1769,-1.688 -0.2382,-2.534 -0.0379,-0.53 -0.1391,-1.066 -0.0594,-1.591 0.1012,-0.67 0.348,-1.313 0.5957,-1.945 0.1316,-0.336 0.4062,-0.583 0.416,-0.943 0.0121,-0.441 -0.5109,-0.824 -0.3566,-1.238 0.3179,-0.851 0.8144,-1.565 1.2511,-2.357 0.3969,-0.72 1.0395,-1.291 1.6684,-1.827 0.243,-0.206 0.5832,-0.432 0.8937,-0.353 1.0766,0.276 2.0477,0.374 3.0383,0.648 1.102,0.305 1.8364,1.416 3.2176,1.945 1.2828,0.491 2.5281,1.123 3.8723,1.414 1.2246,0.265 2.5582,-0.136 3.7539,0.236 0.407,0.127 0.2582,0.862 0.5957,1.12 0.8363,0.638 1.8086,1.11 2.8,1.473 1.1695,0.428 2.5777,0.229 3.6347,0.884 1.4555,0.901 2.7164,0.899 3.9321,1.532 2.2582,1.176 4.1273,2.581 6.3152,3.477 1.7234,0.706 3.259,1.571 5.4816,2.122 1.431,0.354 2.802,0.843 4.17,1.355 1.832,0.686 3.674,1.367 5.422,2.24 0.401,0.2 0.522,0.817 0.953,0.943 0.994,0.288 2.103,-0.048 3.098,0.235 0.516,0.147 0.745,0.825 1.252,1.002 0.562,0.196 1.314,-0.3 1.787,0.059 0.683,0.519 1.155,1.595 2.443,2.004 2.329,0.738 4.935,0.607 7.447,1.06 0.58,0.105 0.915,0.813 1.49,0.943 2.326,0.527 4.768,0.393 7.09,0.943 0.626,0.148 1.121,0.703 1.608,1.12 0.553,0.473 1.393,0.925 1.79,1.532 1.297,1.982 2.431,3.578 3.632,4.773 0.504,0.503 -0.355,1.478 -0.06,2.122 0.185,0.401 1.101,0.057 1.251,0.472 0.415,1.149 -0.064,2.47 0.239,3.653 0.131,0.514 0.799,0.752 1.013,1.238 0.334,0.76 0.337,1.628 0.596,2.416 0.219,0.67 0.627,1.271 0.834,1.945 0.354,1.158 0.914,2.573 0.118,3.713 -0.608,0.871 -1.995,1.162 -2.442,2.239 -0.378,0.909 0.151,1.924 -0.236,2.829 -0.441,1.031 -1.371,2.07 -2.505,3.418 -0.411,0.488 -1.307,0.065 -1.906,0.294 -0.408,0.157 -0.613,0.651 -1.013,0.825 -0.309,0.135 -0.677,0.094 -1.013,0.059 -0.802,-0.083 -1.597,-0.238 -2.383,-0.412 -0.368,-0.082 -0.734,-0.191 -1.073,-0.354 -1.729,-0.827 -3.266,-1.919 -5.123,-3.064 -0.272,-0.168 -0.609,0.5 -0.894,0.353 -1.028,-0.526 -2.046,-0.933 -3.158,-1.473 -0.372,-0.181 -0.028,-0.929 -0.357,-1.178 -0.452,-0.342 -1.166,-0.091 -1.668,-0.354 -1.885,-0.987 -3.392,-2.712 -5.422,-3.359 -1.739,-0.555 -3.756,0.477 -5.482,-0.118 -1.064,-0.368 -1.306,-1.861 -2.204,-2.534 -0.332,-0.25 -0.889,0.145 -1.251,-0.059 -0.806,-0.456 -1.302,-1.335 -2.085,-1.827 -1.515,-0.951 -3.129,-1.749 -4.767,-2.475 -1.071,-0.475 -2.219,-0.927 -3.3363,-1.284 -2.805,-0.899 -5.2851,-1.906 -6.7324,-3.018 -0.5812,-0.447 -1.5617,0.179 -2.2043,-0.177 -1.2519,-0.694 -2.0008,-2.076 -3.2172,-2.829 -0.439,-0.271 -1.1093,0.152 -1.5492,-0.117 -0.6355,-0.39 -0.7808,-1.343 -1.4297,-1.71 -0.4308,-0.243 -1.0582,0.302 -1.4898,0.059 -1.7738,-0.998 -3.2793,-2.3 -5.0043,-3.182 -1.4285,-0.729 -2.9789,-1.232 -4.3496,-2.063" 
			style="fill:#fff;fill-opacity:1;fill-rule:evenodd;stroke:none;stroke-width:0.1" id="path21"/>
	</g>

	<!-- black lines -->
	<path d="m 39.9344,141.889 c 0.2972,0.138 0.5965,0.279 0.8984,0.422 0.0238,0.402 0.0457,0.796 0.0645,1.18 0.2554,5.278 0.1672,9.433 0.3136,15.375 4e-4,0.014 0.6727,4.673 0.6758,4.687 0.8227,3.302 1.5574,6.753 2.0113,10 0.6149,5.692 1.127,10.383 1.5286,14.067 0.0781,1.026 0.0875,1.974 0.0609,2.853 h -0.1 v 1.75 c -0.1344,1.678 -0.3379,3.077 -0.3141,4.288 0.0563,0.747 0.1551,1.421 0.284,2.023 v 0.505 h 0.1192 c 0.4609,1.784 1.1843,2.842 1.7402,3.214 0.0828,0.055 0.1797,0.106 0.2867,0.151 v 0.127 h 0.4442 c 0.1992,0.033 0.4136,0.037 0.6296,0 h 0.1352 v -0.029 c 0.1613,-0.041 0.3227,-0.107 0.4773,-0.204 6.1704,3.251 16.7782,9.648 27.4152,16.028 10.268,7.04 20.884,12.856 26.001,15.569 0.987,0.71 1.672,1.276 2.372,1.639 0.145,0.075 0.282,0.145 0.41,0.21 0.61,0.306 1.638,0.311 2.257,-0.891 0.175,-0.338 0.86,-0.631 0.919,-0.993 -0.425,-1.115 -0.653,-1.897 -1.06,-2.101 -2.699,-1.672 -10.013,-5.216 -21.166,-11.204 -3.556,-2.067 -5.004,-2.891 -7.513,-4.388 -1.386,-1.173 -3.691,-2.505 -5.821,-3.591 -5.5509,-3.792 -11.0899,-7.505 -15.4958,-10.114 v -0.2 h -0.3387 c -0.039,-0.023 -0.0785,-0.046 -0.1172,-0.069 -2.0812,-1.459 -3.9375,-2.751 -5.4988,-3.841 v -0.268 h -0.3832 c -0.0543,-0.038 -0.1074,-0.075 -0.1605,-0.112 v -0.186 h -0.2672 c -0.0606,-0.043 -0.1203,-0.085 -0.1797,-0.127 -0.0891,-0.392 -0.1649,-0.82 -0.2184,-1.278 v -1.669 h -0.1543 c -0.1093,-1.033 -0.2703,-2.228 -0.45,-3.564 v -1.212 h -0.1625 c -0.0656,-0.491 -0.1316,-0.998 -0.198,-1.522 -0.5715,-4.486 -1.2984,-10.1 -2.5246,-16.275 -0.4367,-2.912 -1.0778,-5.88 -1.7785,-8.983 -0.1516,-5.941 -1.1879,-12.245 -0.7571,-19.091 -7e-4,-0.006 -0.0011,-0.011 -0.0019,-0.017 2.9207,1.513 5.9801,3.217 9.1023,4.956 8.4906,4.73 17.4511,9.722 26.0061,12.148 v 0.112 h 0.402 c 0.136,0.037 0.272,0.074 0.409,0.11 0.66,0.175 1.32,0.35 1.672,-0.952 0.142,-0.524 0.12,-0.867 -0.001,-1.099 v -0.455 h -0.622 c -0.044,-0.014 -0.089,-0.029 -0.135,-0.042 v -0.317 c 0,-0.05 -0.041,-0.09 -0.091,-0.09 h -1.368 c -0.159,-0.047 -0.319,-0.095 -0.478,-0.144 V 158.15 H 78.81 c -0.188,-0.059 -0.376,-0.12 -0.565,-0.182 v -0.207 h -0.624 c -0.507,-0.173 -1.015,-0.354 -1.526,-0.542 v -0.177 h -0.474 c -0.164,-0.062 -0.329,-0.126 -0.494,-0.19 v -0.11 l -0.283,-0.09 c -6.646,-2.929 -13.51,-6.359 -20.0889,-9.999 -3.5891,-1.999 -7.0942,-3.952 -10.4789,-5.656 v -0.158 h -0.302 c -0.1648,-1.542 -0.3273,-3.087 -0.4762,-4.653 -0.1503,-1.588 -0.35,-3.131 -0.5695,-4.658 v -0.858 h -0.1258 c -0.0972,-0.653 -0.1964,-1.304 -0.2964,-1.956 v -0.91 h -0.1407 c -0.109,-0.709 -0.2172,-1.421 -0.3222,-2.138 v -0.768 H 41.932 c -0.1027,-0.721 -0.2004,-1.45 -0.291,-2.187 v -0.897 h -0.1062 c -0.0907,-0.797 -0.1707,-1.605 -0.2383,-2.428 h 0.0023 V 116.5 h -0.0183 c 0.0734,-1.851 0.18,-3.896 0.0972,-5.437 -0.1429,-2.656 0.1235,-3.805 0.2836,-6.3 l 0.1328,-1.767 c 0.0391,-0.128 0.0559,-0.302 0.0692,-0.526 h 0.2203 V 99.887 C 42.4543,95.666 42.257,91.81 41.802,87.854 V 86.23 h -0.1997 c -0.0097,-0.073 -0.0187,-0.147 -0.0285,-0.22 -0.1258,-1.477 -0.405,-2.805 -0.7246,-4.019 0.1399,-0.062 0.2156,-0.268 0.3403,-0.331 0.766,-0.235 1.2433,-0.591 1.4648,-1.109 0.0691,-0.763 0.4152,-1.846 -0.5141,-3.08 -0.0117,-0.034 -0.0242,-0.069 -0.0367,-0.104 v -0.689 h -0.2644 c -0.2379,-0.585 -0.5352,-1.232 -0.9024,-1.952 v -0.357 h -0.184 c -4e-4,0 -4e-4,-0.001 -0.0011,-0.001 -0.0711,-0.362 -0.1512,-0.686 -0.2375,-0.979 v -0.473 h -0.1539 c -0.1946,-0.539 -0.411,-0.95 -0.6305,-1.275 V 71.404 H 39.5574 C 39.234,70.988 38.9152,70.732 38.6633,70.497 V 70.21 H 38.3926 C 38.35,70.155 38.3121,70.098 38.2797,70.038 37.9781,69.433 37.3324,69.167 35.9895,68.511 35.5094,68.382 35.0344,68.745 34.6691,69.314 H 34.559 v 0.184 c -0.1285,0.228 -0.2399,0.481 -0.3285,0.744 -0.0926,0.572 0.464,1.133 0.416,1.828 0.1324,0.266 0.2601,0.598 0.3871,0.996 l -0.1582,0.381 0.3098,0.126 c 0.0578,0.204 0.1156,0.422 0.175,0.655 v 1.044 h 0.2511 c 0.0715,0.31 0.1453,0.638 0.2219,0.986 v 0.673 h 0.1465 c 0.0754,0.35 0.1539,0.717 0.2363,1.103 0.168,0.786 0.4223,1.647 0.6922,2.596 v 0.597 h 0.168 c 0.4265,1.537 0.8574,3.294 1.0269,5.317 0.0012,0.016 0.2317,1.692 0.2364,1.707 0.2257,1.901 -0.0868,2.312 0.0332,4.242 -0.0153,0.641 -0.0504,1.294 -0.0957,1.957 h -0.1168 v 1.527 c -0.1071,1.311 -0.2243,2.657 -0.2817,4.025 H 37.657 v 3.694 c -0.0172,0.473 -0.0394,1.135 -0.05,1.663 l -0.0273,6.051 c 0.073,2.142 0.5301,4.189 0.5004,6.291 0,0.002 0.4527,2.943 0.4812,3.512 0.3938,5.807 1.1856,8.644 1.7867,14.99 0.1008,1.063 0.1907,2.083 0.2688,3.058 -0.4598,-0.141 -0.9137,-0.07 -1.3438,0.839 -0.5769,1.218 0.0422,1.504 0.6614,1.789 z M 25.0105,86.363 h 0.1688 c 0.0539,0.037 0.107,0.074 0.1598,0.113 v 0.267 h 0.3172 c 0.0792,0.076 0.1558,0.156 0.23,0.243 0.3153,0.65 0.4918,1.324 0.9457,1.952 1.0653,0.711 2.4075,1.103 3.6106,1.188 0.5441,-0.056 1.089,-0.113 1.6336,-0.17 0.6488,-0.292 1.5695,-0.406 2.0777,-0.647 0.3676,-0.415 0.7293,-1.154 0.9969,-1.597 0.5359,-1.415 0.1605,-2.861 -0.2543,-4.207 C 34.7332,82.539 34.568,81.574 34.402,80.609 V 79.783 H 34.2605 C 34.1238,78.987 33.9871,78.19 33.8527,77.393 33.782,77.177 33.716,76.962 33.652,76.748 v -0.786 h -0.2356 c -0.1519,-0.499 -0.3121,-0.985 -0.5148,-1.448 v -0.229 h -0.1055 c -0.0934,-0.194 -0.1957,-0.383 -0.3094,-0.567 v -0.193 h -0.1254 c -0.3246,-0.476 -0.7371,-0.909 -1.2883,-1.281 -0.6054,-0.379 -1.2218,-0.6 -1.9039,-0.559 v -0.031 h -0.7695 v 0.23 c -0.4629,0.28 -0.9156,0.561 -1.3676,0.841 h -0.2125 v 0.132 c -0.348,0.216 -0.6968,0.432 -1.0519,0.648 h -0.409 v 0.296 c -0.0582,0.049 -0.1168,0.093 -0.1758,0.133 h -0.5547 v 0.264 c -0.473,0.137 -0.9508,0.075 -1.407,-0.03 -0.3129,0.013 -0.5859,-0.013 -0.8242,-0.073 v -0.239 h -0.5578 c -0.068,-0.044 -0.1328,-0.093 -0.1926,-0.146 v -0.185 h -0.182 c -0.2211,-0.262 -0.3735,-0.593 -0.4786,-0.97 -0.3953,-1.037 -0.6492,-1.803 -0.8796,-2.714 v -0.45 h -0.1094 c -0.093,-0.397 -0.186,-0.832 -0.2856,-1.33 v -0.6 h -0.1175 c -0.0399,-0.206 -0.0813,-0.422 -0.1243,-0.65 0,-1.068 0.0391,-2 0.0434,-2.91 -0.0254,-0.311 0.0418,-0.54 0.1387,-0.806 h 0.1187 v -0.313 h -0.0031 c 0.0437,-0.121 0.0887,-0.255 0.1312,-0.409 h 0.2668 v -0.178 c 1.0262,-0.327 2.2024,-0.087 3.1184,-0.22 0.1777,-0.109 0.3633,-0.215 0.5508,-0.323 h 0.2801 v -0.098 h -0.111 c 0.1629,-0.094 0.327,-0.19 0.4871,-0.292 h 0.2559 v -0.169 c 0.5109,-0.354 0.9691,-0.778 1.2512,-1.37 0.1253,-0.264 0.0836,-0.566 0.1464,-0.919 0.1762,-0.644 0.1844,-1.176 -0.1554,-1.667 -0.0071,-0.042 -0.0114,-0.084 -0.0137,-0.125 h 0.0551 v -0.605 h -0.0387 c -0.0012,-0.125 -0.0152,-0.25 -0.0617,-0.377 -0.6113,-0.028 -1.4856,-0.197 -2.25,-0.225 -0.5609,0.034 -1.1016,0.108 -1.6465,0.173 h -0.9398 v 0.097 c -0.0641,0.005 -0.1286,0.009 -0.1934,0.013 -1.2996,0.48 -2.1953,1.16 -2.9332,1.918 h -0.2895 v 0.308 c -0.1945,0.216 -0.3796,0.437 -0.5601,0.66 -0.0246,0.036 -0.0629,0.078 -0.1086,0.124 h -0.1211 v 0.113 c -0.2437,0.223 -0.5395,0.483 -0.3078,0.594 -0.6348,1.208 -0.8172,2.477 -1.0098,3.837 -0.1629,1.897 -0.0578,3.396 0.086,4.839 0.1726,1.867 0.5543,3.424 1.0316,4.838 0.0246,0.556 0.0652,1.098 0.1211,1.623 v 0.747 H 16.9 c 0.1168,0.836 0.275,1.631 0.4754,2.383 0.4301,1.189 0.8598,1.858 1.2894,2.292 -0.1398,1.81 0.0766,2.92 1.0551,4.114 0.1145,0.17 0.0672,0.385 0.1817,0.555 0.7297,0.092 1.5222,0.297 2.3394,0.437 v 0.096 h 0.6785 c 0.1703,0.019 0.341,0.032 0.5121,0.039 0.2446,0.077 0.4825,0.156 0.711,0.243 v 0.137 h 0.3355 c 0.1844,0.082 0.3621,0.171 0.5324,0.272 v 0.106" 
		style="filter: drop-shadow(0px 0px 3px rgba(255, 255, 255, 1.0));fill:#231f20;fill-opacity:1;fill-rule:nonzero;stroke:none;stroke-width:0.1" id="path18"/>

	<!-- red stripe -->
	<path d="m 43.3012,172.923 c -0.8524,-0.516 -1.4395,-1.385 -2.2637,-1.944 -0.2152,-0.146 -0.5336,-0.019 -0.7746,-0.118 -0.4844,-0.199 -1.0074,-0.392 -1.3703,-0.766 -0.5949,-0.614 -0.8078,-1.535 -1.4301,-2.122 -0.282,-0.266 -0.7789,-0.131 -1.132,-0.294 -0.5891,-0.273 -1.1723,-0.586 -1.668,-1.002 -0.1832,-0.154 -0.1648,-0.451 -0.298,-0.648 -0.1875,-0.279 -0.4497,-0.501 -0.6555,-0.766 -0.4496,-0.58 -1.0852,-1.073 -1.3106,-1.768 -0.2914,-0.9 0.0438,-1.911 -0.1789,-2.829 -0.0425,-0.176 -0.441,0.036 -0.5363,-0.118 -0.1668,-0.271 0.0344,-0.665 -0.1187,-0.943 -0.2223,-0.402 -0.8071,-0.567 -0.9536,-1.002 -0.2711,-0.805 -0.1769,-1.688 -0.2382,-2.534 -0.0379,-0.53 -0.1391,-1.066 -0.0594,-1.591 0.1012,-0.67 0.348,-1.313 0.5957,-1.945 0.1316,-0.336 0.4062,-0.583 0.416,-0.943 0.0121,-0.441 -0.5109,-0.824 -0.3566,-1.238 0.3179,-0.851 0.8144,-1.565 1.2511,-2.357 0.3969,-0.72 1.0395,-1.291 1.6684,-1.827 0.243,-0.206 0.5832,-0.432 0.8937,-0.353 1.0766,0.276 2.0477,0.374 3.0383,0.648 1.102,0.305 1.8364,1.416 3.2176,1.945 1.2828,0.491 2.5281,1.123 3.8723,1.414 1.2246,0.265 2.5582,-0.136 3.7539,0.236 0.407,0.127 0.2582,0.862 0.5957,1.12 0.8363,0.638 1.8086,1.11 2.8,1.473 1.1695,0.428 2.5777,0.229 3.6347,0.884 1.4555,0.901 2.7164,0.899 3.9321,1.532 2.2582,1.176 4.1273,2.581 6.3152,3.477 1.7234,0.706 3.259,1.571 5.4816,2.122 1.431,0.354 2.802,0.843 4.17,1.355 1.832,0.686 3.674,1.367 5.422,2.24 0.401,0.2 0.522,0.817 0.953,0.943 0.994,0.288 2.103,-0.048 3.098,0.235 0.516,0.147 0.745,0.825 1.252,1.002 0.562,0.196 1.314,-0.3 1.787,0.059 0.683,0.519 1.155,1.595 2.443,2.004 2.329,0.738 4.935,0.607 7.447,1.06 0.58,0.105 0.915,0.813 1.49,0.943 2.326,0.527 4.768,0.393 7.09,0.943 0.626,0.148 1.121,0.703 1.608,1.12 0.553,0.473 1.393,0.925 1.79,1.532 1.297,1.982 2.431,3.578 3.632,4.773 0.504,0.503 -0.355,1.478 -0.06,2.122 0.185,0.401 1.101,0.057 1.251,0.472 0.415,1.149 -0.064,2.47 0.239,3.653 0.131,0.514 0.799,0.752 1.013,1.238 0.334,0.76 0.337,1.628 0.596,2.416 0.219,0.67 0.627,1.271 0.834,1.945 0.354,1.158 0.914,2.573 0.118,3.713 -0.608,0.871 -1.995,1.162 -2.442,2.239 -0.378,0.909 0.151,1.924 -0.236,2.829 -0.441,1.031 -1.371,2.07 -2.505,3.418 -0.411,0.488 -1.307,0.065 -1.906,0.294 -0.408,0.157 -0.613,0.651 -1.013,0.825 -0.309,0.135 -0.677,0.094 -1.013,0.059 -0.802,-0.083 -1.597,-0.238 -2.383,-0.412 -0.368,-0.082 -0.734,-0.191 -1.073,-0.354 -1.729,-0.827 -3.266,-1.919 -5.123,-3.064 -0.272,-0.168 -0.609,0.5 -0.894,0.353 -1.028,-0.526 -2.046,-0.933 -3.158,-1.473 -0.372,-0.181 -0.028,-0.929 -0.357,-1.178 -0.452,-0.342 -1.166,-0.091 -1.668,-0.354 -1.885,-0.987 -3.392,-2.712 -5.422,-3.359 -1.739,-0.555 -3.756,0.477 -5.482,-0.118 -1.064,-0.368 -1.306,-1.861 -2.204,-2.534 -0.332,-0.25 -0.889,0.145 -1.251,-0.059 -0.806,-0.456 -1.302,-1.335 -2.085,-1.827 -1.515,-0.951 -3.129,-1.749 -4.767,-2.475 -1.071,-0.475 -2.219,-0.927 -3.3363,-1.284 -2.805,-0.899 -5.2851,-1.906 -6.7324,-3.018 -0.5812,-0.447 -1.5617,0.179 -2.2043,-0.177 -1.2519,-0.694 -2.0008,-2.076 -3.2172,-2.829 -0.439,-0.271 -1.1093,0.152 -1.5492,-0.117 -0.6355,-0.39 -0.7808,-1.343 -1.4297,-1.71 -0.4308,-0.243 -1.0582,0.302 -1.4898,0.059 -1.7738,-0.998 -3.2793,-2.3 -5.0043,-3.182 -1.4285,-0.729 -2.9789,-1.232 -4.3496,-2.063" 
		style="fill:#ed1c24;fill-opacity:1;fill-rule:evenodd;stroke:none;stroke-width:0.1" id="path20"/>

	</g>
</svg>
