<?xml version="1.0" encoding="utf-8"?>
<!-- Generator: Adobe Illustrator 25.4.1, SVG Export Plug-In . SVG Version: 6.00 Build 0)  -->
<svg version="1.1" id="f-ppo" width="100" height="100" xmlns="http://www.w3.org/2000/svg" xmlns:xlink="http://www.w3.org/1999/xlink" x="0px" y="0px"
	 viewBox="0 0 100 100" style="enable-background:new 0 0 100 100;" xml:space="preserve">
<style type="text/css">
	.st0{fill:#2D2E82;}
	.st1{fill:#FFFFFF;}
</style>
<circle class="st0" cx="50" cy="50" r="50"/>
<g>
	<path class="st1" d="M77.1,77.8H22.9V24.3h54.2V77.8z M23.4,77.3h53.1V24.8H23.4V77.3z"/>
	<rect x="23.2" y="61.5" class="st1" width="53.7" height="0.5"/>
	<path class="st1" d="M31.1,62h-4.3v-8.2h4.3V62z M27.2,61.5h3.3v-7.2h-3.3V61.5z"/>
	<path class="st1" d="M41.5,62h-4.3v-8.2h4.3V62z M37.7,61.5H41v-7.2h-3.3V61.5z"/>
	<path class="st1" d="M52,62h-4.3v-8.2H52V62z M48.2,61.5h3.3v-7.2h-3.3V61.5z"/>
	<path class="st1" d="M62.5,62h-4.3v-8.2h4.3V62z M58.7,61.5H62v-7.2h-3.3V61.5z"/>
	<path class="st1" d="M73,62h-4.3v-8.2H73V62z M69.2,61.5h3.3v-7.2h-3.3V61.5z"/>
	<rect x="28.6" y="54" class="st1" width="0.5" height="7.7"/>
	<rect x="27" y="55.9" class="st1" width="3.9" height="0.5"/>
	<rect x="39.1" y="54" class="st1" width="0.5" height="7.7"/>
	<rect x="37.4" y="55.9" class="st1" width="3.9" height="0.5"/>
	<rect x="49.6" y="54" class="st1" width="0.5" height="7.7"/>
	<rect x="47.9" y="55.9" class="st1" width="3.9" height="0.5"/>
	<rect x="60.1" y="54" class="st1" width="0.5" height="7.7"/>
	<rect x="58.5" y="55.9" class="st1" width="3.9" height="0.5"/>
	<rect x="70.6" y="54" class="st1" width="0.5" height="7.7"/>
	<rect x="69" y="55.9" class="st1" width="3.9" height="0.5"/>
	<g>
		<path class="st1" d="M31.1,74.5h-4.3V64.2h4.3V74.5z M27.2,74h3.3v-9.3h-3.3V74z"/>
		<rect x="28.6" y="64.5" class="st1" width="0.5" height="9.8"/>
		<rect x="27" y="67.4" class="st1" width="3.9" height="0.5"/>
		<rect x="27" y="70.6" class="st1" width="3.9" height="0.5"/>
		<path class="st1" d="M31.7,77.8h-5.6v-3.7h5.6V77.8z M26.6,77.3h4.6v-2.7h-4.6V77.3z"/>
		<g>
			<rect x="27.1" y="74.5" class="st1" width="0.5" height="1.7"/>
			<rect x="27.9" y="74.5" class="st1" width="0.5" height="1.7"/>
			<rect x="28.7" y="74.5" class="st1" width="0.5" height="1.7"/>
			<rect x="29.4" y="74.5" class="st1" width="0.5" height="1.7"/>
			<rect x="30.2" y="74.5" class="st1" width="0.5" height="1.7"/>
		</g>
	</g>
	<g>
		<path class="st1" d="M41.5,74.5h-4.3V64.2h4.3V74.5z M37.7,74H41v-9.3h-3.3V74z"/>
		<rect x="39.1" y="64.5" class="st1" width="0.5" height="9.8"/>
		<rect x="37.5" y="67.4" class="st1" width="3.9" height="0.5"/>
		<rect x="37.5" y="70.6" class="st1" width="3.9" height="0.5"/>
		<path class="st1" d="M42.2,77.8h-5.6v-3.7h5.6V77.8z M37.1,77.3h4.6v-2.7h-4.6V77.3z"/>
		<g>
			<rect x="37.6" y="74.5" class="st1" width="0.5" height="1.7"/>
			<rect x="38.4" y="74.5" class="st1" width="0.5" height="1.7"/>
			<rect x="39.1" y="74.5" class="st1" width="0.5" height="1.7"/>
			<rect x="39.9" y="74.5" class="st1" width="0.5" height="1.7"/>
			<rect x="40.7" y="74.5" class="st1" width="0.5" height="1.7"/>
		</g>
	</g>
	<g>
		<path class="st1" d="M52,74.5h-4.3V64.2H52V74.5z M48.2,74h3.3v-9.3h-3.3V74z"/>
		<rect x="49.6" y="64.5" class="st1" width="0.5" height="9.8"/>
		<rect x="48" y="67.4" class="st1" width="3.9" height="0.5"/>
		<rect x="48" y="70.6" class="st1" width="3.9" height="0.5"/>
		<path class="st1" d="M52.7,77.8h-5.6v-3.7h5.6V77.8z M47.6,77.3h4.6v-2.7h-4.6V77.3z"/>
		<g>
			<rect x="48.1" y="74.5" class="st1" width="0.5" height="1.7"/>
			<rect x="48.8" y="74.5" class="st1" width="0.5" height="1.7"/>
			<rect x="49.6" y="74.5" class="st1" width="0.5" height="1.7"/>
			<rect x="50.4" y="74.5" class="st1" width="0.5" height="1.7"/>
			<rect x="51.2" y="74.5" class="st1" width="0.5" height="1.7"/>
		</g>
	</g>
	<g>
		<path class="st1" d="M73,74.5h-4.3V64.2H73V74.5z M69.2,74h3.3v-9.3h-3.3V74z"/>
		<rect x="70.6" y="64.5" class="st1" width="0.5" height="9.8"/>
		<rect x="69" y="67.4" class="st1" width="3.9" height="0.5"/>
		<rect x="69" y="70.6" class="st1" width="3.9" height="0.5"/>
		<path class="st1" d="M73.7,77.8h-5.6v-3.7h5.6V77.8z M68.5,77.3h4.6v-2.7h-4.6V77.3z"/>
		<g>
			<rect x="69" y="74.5" class="st1" width="0.5" height="1.7"/>
			<rect x="69.8" y="74.5" class="st1" width="0.5" height="1.7"/>
			<rect x="70.6" y="74.5" class="st1" width="0.5" height="1.7"/>
			<rect x="71.4" y="74.5" class="st1" width="0.5" height="1.7"/>
			<rect x="72.2" y="74.5" class="st1" width="0.5" height="1.7"/>
		</g>
	</g>
	<path class="st1" d="M65.1,77.7h-9.5V69c0-2.6,2.1-4.7,4.7-4.7c2.6,0,4.7,2.1,4.7,4.7V77.7z M56.1,77.2h8.5V69
		c0-2.3-1.9-4.2-4.2-4.2c-2.3,0-4.2,1.9-4.2,4.2V77.2z"/>
	<rect x="56" y="69.2" class="st1" width="8.9" height="0.5"/>
	<rect x="26.3" y="52.3" class="st1" width="5.3" height="0.5"/>
	<rect x="36.7" y="52.3" class="st1" width="5.3" height="0.5"/>
	<rect x="47.2" y="52.3" class="st1" width="5.3" height="0.5"/>
	<rect x="57.7" y="52.3" class="st1" width="5.3" height="0.5"/>
	<rect x="68.2" y="52.3" class="st1" width="5.3" height="0.5"/>
	<rect x="23.2" y="50.8" class="st1" width="53.7" height="0.5"/>
	<path class="st1" d="M31.1,51.3h-4.3V43h4.3V51.3z M27.2,50.8h3.3v-7.2h-3.3V50.8z"/>
	<path class="st1" d="M41.5,51.3h-4.3V43h4.3V51.3z M37.7,50.8H41v-7.2h-3.3V50.8z"/>
	<path class="st1" d="M52,51.3h-4.3V43H52V51.3z M48.2,50.8h3.3v-7.2h-3.3V50.8z"/>
	<path class="st1" d="M62.5,51.3h-4.3V43h4.3V51.3z M58.7,50.8H62v-7.2h-3.3V50.8z"/>
	<path class="st1" d="M73,51.3h-4.3V43H73V51.3z M69.2,50.8h3.3v-7.2h-3.3V50.8z"/>
	<rect x="28.6" y="43.3" class="st1" width="0.5" height="7.7"/>
	<rect x="27" y="45.1" class="st1" width="3.9" height="0.5"/>
	<rect x="39.1" y="43.3" class="st1" width="0.5" height="7.7"/>
	<rect x="37.4" y="45.1" class="st1" width="3.9" height="0.5"/>
	<rect x="49.6" y="43.3" class="st1" width="0.5" height="7.7"/>
	<rect x="47.9" y="45.1" class="st1" width="3.9" height="0.5"/>
	<rect x="60.1" y="43.3" class="st1" width="0.5" height="7.7"/>
	<rect x="58.5" y="45.1" class="st1" width="3.9" height="0.5"/>
	<rect x="70.6" y="43.3" class="st1" width="0.5" height="7.7"/>
	<rect x="69" y="45.1" class="st1" width="3.9" height="0.5"/>
	<rect x="26.3" y="41.6" class="st1" width="5.3" height="0.5"/>
	<rect x="36.7" y="41.6" class="st1" width="5.3" height="0.5"/>
	<rect x="47.2" y="41.6" class="st1" width="5.3" height="0.5"/>
	<rect x="57.7" y="41.6" class="st1" width="5.3" height="0.5"/>
	<rect x="68.2" y="41.6" class="st1" width="5.3" height="0.5"/>
	<rect x="23.2" y="40" class="st1" width="53.7" height="0.5"/>
	<path class="st1" d="M31.1,40.5h-4.3v-8.2h4.3V40.5z M27.2,40h3.3v-7.2h-3.3V40z"/>
	<path class="st1" d="M41.5,40.5h-4.3v-8.2h4.3V40.5z M37.7,40H41v-7.2h-3.3V40z"/>
	<path class="st1" d="M52,40.5h-4.3v-8.2H52V40.5z M48.2,40h3.3v-7.2h-3.3V40z"/>
	<path class="st1" d="M62.5,40.5h-4.3v-8.2h4.3V40.5z M58.7,40H62v-7.2h-3.3V40z"/>
	<path class="st1" d="M73,40.5h-4.3v-8.2H73V40.5z M69.2,40h3.3v-7.2h-3.3V40z"/>
	<rect x="28.6" y="32.5" class="st1" width="0.5" height="7.7"/>
	<rect x="27" y="34.4" class="st1" width="3.9" height="0.5"/>
	<rect x="39.1" y="32.5" class="st1" width="0.5" height="7.7"/>
	<rect x="37.4" y="34.4" class="st1" width="3.9" height="0.5"/>
	<rect x="49.6" y="32.5" class="st1" width="0.5" height="7.7"/>
	<rect x="47.9" y="34.4" class="st1" width="3.9" height="0.5"/>
	<rect x="60.1" y="32.5" class="st1" width="0.5" height="7.7"/>
	<rect x="58.5" y="34.4" class="st1" width="3.9" height="0.5"/>
	<rect x="70.6" y="32.5" class="st1" width="0.5" height="7.7"/>
	<rect x="23.2" y="29.3" class="st1" width="53.7" height="0.5"/>
	<path class="st1" d="M31,29.8h-4.3v-5.5H31V29.8z M27.2,29.3h3.3v-4.5h-3.3V29.3z"/>
	<path class="st1" d="M41.5,29.8h-4.3v-5.5h4.3V29.8z M37.7,29.3H41v-4.5h-3.3V29.3z"/>
	<path class="st1" d="M52,29.8h-4.3v-5.5H52V29.8z M48.2,29.3h3.3v-4.5h-3.3V29.3z"/>
	<path class="st1" d="M62.5,29.8h-4.3v-5.5h4.3V29.8z M58.7,29.3H62v-4.5h-3.3V29.3z"/>
	<path class="st1" d="M73,29.8h-4.3v-5.5H73V29.8z M69.2,29.3h3.3v-4.5h-3.3V29.3z"/>
	<rect x="28.6" y="24.5" class="st1" width="0.5" height="4.9"/>
	<rect x="39.1" y="24.5" class="st1" width="0.5" height="4.9"/>
	<rect x="49.6" y="24.5" class="st1" width="0.5" height="4.9"/>
	<rect x="60.1" y="24.5" class="st1" width="0.5" height="4.9"/>
	<rect x="70.6" y="24.5" class="st1" width="0.5" height="4.9"/>
	<rect x="69" y="34.4" class="st1" width="3.9" height="0.5"/>
	<rect x="26.3" y="30.8" class="st1" width="5.3" height="0.5"/>
	<rect x="36.7" y="30.8" class="st1" width="5.3" height="0.5"/>
	<rect x="47.2" y="30.8" class="st1" width="5.3" height="0.5"/>
	<rect x="57.7" y="30.8" class="st1" width="5.3" height="0.5"/>
	<rect x="68.2" y="30.8" class="st1" width="5.3" height="0.5"/>
	<path class="st1" d="M77.3,24.8H22.7l1.2-2.6h52L77.3,24.8z M23.5,24.3h52.9l-0.8-1.6H24.3L23.5,24.3z"/>
</g>
</svg>
