<?xml version="1.0" encoding="utf-8"?>
<!-- Generator: Adobe Illustrator 25.4.1, SVG Export Plug-In . SVG Version: 6.00 Build 0)  -->
<svg version="1.1" id="Layer_1" xmlns="http://www.w3.org/2000/svg" xmlns:xlink="http://www.w3.org/1999/xlink" x="0px" y="0px"
	 viewBox="0 0 100 100" style="enable-background:new 0 0 100 100;" xml:space="preserve">
<style type="text/css">
	.st0{fill:#2D2E82;}
	.st1{fill:#FFFFFF;}
	.st2{fill:#1D1D1B;}
</style>
<circle class="st0" cx="50" cy="50" r="50"/>
<g>
	<path class="st1" d="M54.8,58.9h-9.7V46.5h9.7V58.9z M45.6,58.4h8.8V46.9h-8.8V58.4z"/>
	<path class="st1" d="M53.6,42.6h-7.3v-9h7.3V42.6z M46.8,42.1h6.4v-8.1h-6.4V42.1z"/>
	<path class="st1" d="M51.7,34.1h-3.4v-4.8h3.4V34.1z M48.7,33.6h2.5v-3.9h-2.5V33.6z"/>
	<path class="st1" d="M54.8,46.9h-9.7v-4.7h9.7V46.9z M45.6,46.5h8.8v-3.8h-8.8V46.5z"/>
	<path class="st1" d="M54.8,73.1h-9.7V60.4h9.7V73.1z M45.6,72.6h8.8V60.9h-8.8V72.6z"/>
	<g>
		<rect x="44.4" y="59.1" class="st1" width="0.4" height="1.1"/>
		<rect x="45" y="59.1" class="st1" width="0.4" height="1.1"/>
		<rect x="45.6" y="59.1" class="st1" width="0.4" height="1.1"/>
		<rect x="46.3" y="59.1" class="st1" width="0.4" height="1.1"/>
		<rect x="46.9" y="59.1" class="st1" width="0.4" height="1.1"/>
		<rect x="47.6" y="59.1" class="st1" width="0.4" height="1.1"/>
		<rect x="48.2" y="59.1" class="st1" width="0.4" height="1.1"/>
		<rect x="48.8" y="59.1" class="st1" width="0.4" height="1.1"/>
		<rect x="49.5" y="59.1" class="st1" width="0.4" height="1.1"/>
		<rect x="50.1" y="59.1" class="st1" width="0.4" height="1.1"/>
		<rect x="50.8" y="59.1" class="st1" width="0.4" height="1.1"/>
		<rect x="51.4" y="59.1" class="st1" width="0.4" height="1.1"/>
		<rect x="52" y="59.1" class="st1" width="0.4" height="1.1"/>
		<rect x="52.7" y="59.1" class="st1" width="0.4" height="1.1"/>
		<rect x="53.3" y="59.1" class="st1" width="0.4" height="1.1"/>
		<rect x="54" y="59.1" class="st1" width="0.4" height="1.1"/>
		<rect x="54.6" y="59.1" class="st1" width="0.4" height="1.1"/>
		<rect x="55.2" y="59.1" class="st1" width="0.4" height="1.1"/>
	</g>
	<path class="st1" d="M50,52.6c-0.7,0-1.2-0.6-1.2-1.2c0-0.7,0.6-1.2,1.2-1.2s1.2,0.6,1.2,1.2C51.2,52,50.7,52.6,50,52.6z M50,50.5
		c-0.4,0-0.8,0.4-0.8,0.8s0.4,0.8,0.8,0.8s0.8-0.4,0.8-0.8S50.4,50.5,50,50.5z"/>
	<g>
		<path class="st1" d="M47.7,46.8h-1.8v-2.2c0-0.4,0.3-0.7,0.7-0.7H47c0.4,0,0.7,0.3,0.7,0.7V46.8z M46.3,46.4h0.9v-1.8
			c0-0.1-0.1-0.3-0.3-0.3h-0.4c-0.1,0-0.3,0.1-0.3,0.3V46.4z"/>
		<path class="st1" d="M49.8,46.8H48v-2.2c0-0.4,0.3-0.7,0.7-0.7h0.4c0.4,0,0.7,0.3,0.7,0.7V46.8z M48.5,46.4h0.9v-1.8
			c0-0.1-0.1-0.3-0.3-0.3h-0.4c-0.1,0-0.3,0.1-0.3,0.3V46.4z"/>
		<path class="st1" d="M52,46.8h-1.8v-2.2c0-0.4,0.3-0.7,0.7-0.7h0.4c0.4,0,0.7,0.3,0.7,0.7V46.8z M50.6,46.4h0.9v-1.8
			c0-0.1-0.1-0.3-0.3-0.3h-0.4c-0.1,0-0.3,0.1-0.3,0.3V46.4z"/>
		<path class="st1" d="M54.1,46.8h-1.8v-2.2c0-0.4,0.3-0.7,0.7-0.7h0.4c0.4,0,0.7,0.3,0.7,0.7V46.8z M52.7,46.4h0.9v-1.8
			c0-0.1-0.1-0.3-0.3-0.3h-0.4c-0.1,0-0.3,0.1-0.3,0.3V46.4z"/>
	</g>
	<rect x="45.3" y="42.9" class="st1" width="9.3" height="0.5"/>
	<rect x="47.5" y="32.2" class="st1" width="0.5" height="10.1"/>
	<rect x="52.1" y="32.2" class="st1" width="0.5" height="10.1"/>
	<g>
		<rect x="49.7" y="37.2" class="st2" width="0.6" height="1"/>
		<path class="st1" d="M50.5,38.4h-1v-1.5h1V38.4z M49.9,37.9h0.1v-0.6h-0.1V37.9z"/>
	</g>
	<polygon class="st1" points="51,29.2 50,28.7 49,29.2 48.8,28.7 50,28.3 51.2,28.7 	"/>
	<path class="st1" d="M50.8,33.2h-1.6v-2.2c0-0.5,0.4-0.8,0.8-0.8s0.8,0.4,0.8,0.8V33.2z M49.6,32.7h0.7v-1.8c0-0.2-0.2-0.4-0.4-0.4
		s-0.4,0.2-0.4,0.4V32.7z"/>
	<rect x="49.4" y="31" class="st1" width="1.1" height="0.5"/>
	<path class="st1" d="M51.2,28.2h-2.5v-3.5h2.5V28.2z M49.2,27.7h1.6v-2.6h-1.6V27.7z"/>
	<path class="st1" d="M50.6,27.5h-1.3v-1.6c0-0.4,0.3-0.6,0.6-0.6s0.6,0.3,0.6,0.6V27.5z M49.8,27.1h0.4v-1.2c0-0.1-0.1-0.2-0.2-0.2
		s-0.2,0.1-0.2,0.2V27.1z"/>
	<rect x="49.6" y="25.9" class="st1" width="0.8" height="0.5"/>
	<polygon class="st1" points="52.6,29.6 47.5,29.6 48.8,27.8 49.1,28.1 48.4,29.1 51.6,29.1 50.8,28.1 51.2,27.8 	"/>
	<path class="st1" d="M50.8,24.2h-1.7v-2.4h1.7V24.2z M49.6,23.7h0.8v-1.5h-0.8V23.7z"/>
	<polygon class="st1" points="51.7,25.1 48.2,25.1 49.1,23.8 49.5,24.1 49.1,24.6 50.8,24.6 50.4,24.1 50.8,23.8 	"/>
	<path class="st1" d="M51.4,22.3h-2.8l0.8-1.1h1.2L51.4,22.3z M49.5,21.8h1l-0.2-0.2h-0.7L49.5,21.8z"/>
	<path class="st1" d="M50.5,21.4l-1.1,0l-0.1-1.4l0.7-2.8l0.7,2.8L50.5,21.4z M49.8,20.9l0.3,0l0.1-1L50,19l-0.2,1L49.8,20.9z"/>
	<path class="st1" d="M50,17.5c-0.4,0-0.6-0.3-0.6-0.6s0.3-0.6,0.6-0.6s0.6,0.3,0.6,0.6S50.3,17.5,50,17.5z M50,16.7
		c-0.1,0-0.2,0.1-0.2,0.2s0.1,0.2,0.2,0.2c0.1,0,0.2-0.1,0.2-0.2S50.1,16.7,50,16.7z"/>
	<rect x="49.8" y="11.1" class="st1" width="0.5" height="5.2"/>
	<path class="st1" d="M51.5,14.3h-3l1.5-1L51.5,14.3z M49.5,13.9h1L50,13.6L49.5,13.9z"/>
	<rect x="49.2" y="11.7" class="st1" width="1.5" height="0.3"/>
	<g>
		<path class="st1" d="M70.6,83.3H29.4l1.4-10.6h38.4L70.6,83.3z M29.9,82.9h40.2l-1.3-9.7H31.2L29.9,82.9z"/>
		<rect x="30.6" y="74.6" class="st1" width="1.2" height="0.5"/>
		<rect x="30.5" y="77.1" class="st1" width="1.2" height="0.5"/>
		<rect x="34.1" y="78.4" class="st1" width="1.2" height="0.5"/>
		<rect x="38.6" y="75.2" class="st1" width="1.2" height="0.5"/>
		<rect x="54.7" y="80.1" class="st1" width="1.2" height="0.5"/>
		<rect x="60.6" y="77" class="st1" width="1.2" height="0.5"/>
		<rect x="63" y="78.4" class="st1" width="1.2" height="0.5"/>
		<rect x="30.1" y="79.6" class="st1" width="1.2" height="0.5"/>
		<rect x="68.2" y="76.3" class="st1" width="1.2" height="0.5"/>
		<rect x="68.5" y="78.8" class="st1" width="1.2" height="0.5"/>
		<rect x="68.9" y="81.4" class="st1" width="1.2" height="0.5"/>
	</g>
</g>
</svg>
