<?xml version="1.0" encoding="utf-8"?>
<!-- Generator: Adobe Illustrator 25.4.1, SVG Export Plug-In . SVG Version: 6.00 Build 0)  -->
<svg version="1.1" id="Layer_1" xmlns="http://www.w3.org/2000/svg" xmlns:xlink="http://www.w3.org/1999/xlink" x="0px" y="0px"
	 viewBox="0 0 100 100" style="enable-background:new 0 0 100 100;" xml:space="preserve">
<style type="text/css">
	.st0{fill:#2D2E82;}
	.st1{fill:#FFFFFF;}
</style>
<circle class="st0" cx="50" cy="50" r="50"/>
<g>
	<path class="st1" d="M54.9,84.6h0.5V74.5c0-3-2.4-5.4-5.4-5.4c-3,0-5.4,2.4-5.4,5.4v10.1h0.5V74.5c0-2.7,2.2-4.9,4.9-4.9
		c2.7,0,4.9,2.2,4.9,4.9V84.6z"/>
	<path class="st1" d="M50,48.4l-2.5,2.5c-1.9,2-3.1,4.4-3.5,7.1c0,0.1,0,0.1,0,0.2c-0.1,0.4-0.1,0.8-0.1,1.2c0,0,0,0.1,0,0.1v0.2
		c0,0.1,0,0.2,0,0.4v6.2h0h6.4h6V60c0-3.4-1.3-6.6-3.7-9.1L50,48.4z M49.9,50.7c0.5,0,0.9,0.4,0.9,0.9c0,0.5-0.4,0.9-0.9,0.9
		c-0.5,0-0.9-0.4-0.9-0.9C49,51.1,49.4,50.7,49.9,50.7z M55.2,57.6c0.1,0.1,0.1,0.3,0.2,0.4c0.1,0.2,0.1,0.4,0.1,0.6
		c0,0.1,0,0.3,0,0.4C55.3,58.4,54.7,58,54,58c0,0,0,0,0,0c0.2-0.2,0.3-0.5,0.3-0.8c0-0.3-0.1-0.5-0.3-0.8
		C54.5,56.6,55,57.1,55.2,57.6z M47,56.2c0.5,0,0.9,0.4,0.9,0.9c0,0.5-0.4,0.9-0.9,0.9c-0.5,0-0.9-0.4-0.9-0.9
		C46.1,56.6,46.5,56.2,47,56.2z M48.1,60.3c-0.5,0-0.9-0.4-0.9-0.9c0-0.5,0.4-0.9,0.9-0.9c0.5,0,0.9,0.4,0.9,0.9
		C49.1,59.9,48.7,60.3,48.1,60.3z M47,58.7c0,0,0-0.1-0.1-0.1C46.9,58.5,46.9,58.6,47,58.7c0-0.1,0.1-0.1,0.1-0.1
		C47,58.6,47,58.6,47,58.7z M46.7,59.4c0,0.5-0.4,0.9-0.9,0.9c-0.5,0-0.9-0.4-0.9-0.9c0-0.5,0.4-0.9,0.9-0.9
		C46.3,58.5,46.7,58.9,46.7,59.4z M45.8,60.8c0.5,0,0.9-0.3,1.2-0.7c0.3,0.4,0.7,0.7,1.2,0.7c0.1,0,0.2,0,0.3-0.1
		C48,61,47.5,61.2,47,61.2c-0.5,0-1.1-0.2-1.5-0.5C45.6,60.8,45.7,60.8,45.8,60.8z M49.6,58.7c0,0.1,0,0.3,0,0.4
		c-0.1-0.6-0.7-1.1-1.4-1.1c0,0,0,0,0,0c0.2-0.2,0.3-0.5,0.3-0.8c0-0.3-0.1-0.5-0.3-0.8c0.5,0.3,0.9,0.7,1.2,1.2
		c0.1,0.1,0.1,0.3,0.1,0.4C49.5,58.2,49.6,58.4,49.6,58.7z M52.9,56.2c0.5,0,0.9,0.4,0.9,0.9c0,0.5-0.4,0.9-0.9,0.9
		c-0.5,0-0.9-0.4-0.9-0.9C52,56.6,52.4,56.2,52.9,56.2z M53,62.3c-0.2-0.3-0.4-0.5-0.6-0.6c0.2,0,0.4,0.1,0.5,0.1
		c0.3,0,0.6-0.1,0.8-0.1C53.4,61.7,53.1,62,53,62.3z M51.4,60.8c0.1,0,0.2,0.1,0.3,0.1c0.5,0,0.9-0.3,1.2-0.7
		c0.3,0.4,0.7,0.7,1.2,0.7c0.1,0,0.2,0,0.3-0.1c-0.4,0.3-0.9,0.5-1.5,0.5C52.3,61.2,51.8,61,51.4,60.8z M51.7,61.5
		C51.6,61.5,51.6,61.5,51.7,61.5c-0.7,0-1.1,0.3-1.4,0.7v-2C50.5,60.8,51,61.2,51.7,61.5z M52.8,58.7c0,0,0-0.1-0.1-0.1
		C52.8,58.5,52.8,58.6,52.8,58.7c0-0.1,0.1-0.1,0.1-0.1C52.9,58.6,52.9,58.6,52.8,58.7z M54,60.3c-0.5,0-0.9-0.4-0.9-0.9
		c0-0.5,0.4-0.9,0.9-0.9c0.5,0,0.9,0.4,0.9,0.9C54.9,59.9,54.5,60.3,54,60.3z M52.6,59.4c0,0.5-0.4,0.9-0.9,0.9
		c-0.5,0-0.9-0.4-0.9-0.9c0-0.5,0.4-0.9,0.9-0.9C52.2,58.5,52.6,58.9,52.6,59.4z M50.4,65.6v-2.4c0-0.6,0.5-1.2,1.2-1.2
		c0.6,0,1.2,0.5,1.2,1.2v2.4H50.4z M53.2,65.6v-2.4c0-0.6,0.5-1.2,1.2-1.2s1.2,0.5,1.2,1.2v2.4H53.2z M54.4,61.5
		c-0.2,0-0.4,0-0.6,0.1c0.8-0.2,1.4-0.8,1.8-1.5v2C55.3,61.7,54.9,61.5,54.4,61.5z M51.7,56.4c-0.1,0.2-0.3,0.5-0.3,0.8
		c0,0.3,0.1,0.6,0.3,0.8c0,0-0.1,0-0.1,0c-0.6,0-1.1,0.4-1.3,1c0-0.1,0-0.1,0-0.2c0.1-0.6,0.3-1.1,0.5-1.6
		C51.1,56.8,51.4,56.5,51.7,56.4z M50.4,56.8c-0.2,0.3-0.4,0.6-0.5,1c0-0.1-0.1-0.3-0.1-0.4c-0.2-0.5-0.4-0.9-0.7-1.3
		c0.3,0.1,0.6,0.2,0.9,0.2c0.3,0,0.6-0.1,0.9-0.2C50.7,56.3,50.6,56.5,50.4,56.8z M49.9,55.7c-0.5,0-1.1-0.2-1.5-0.5
		c0.1,0,0.2,0.1,0.3,0.1c0.5,0,0.9-0.3,1.2-0.7c0.3,0.4,0.7,0.7,1.2,0.7c0.1,0,0.2,0,0.3-0.1C51,55.5,50.5,55.7,49.9,55.7z
		 M49.9,53.1c0,0,0-0.1-0.1-0.1C49.9,53,49.9,53,49.9,53.1C50,53,50,53,50,53C50,53.1,50,53.1,49.9,53.1z M51.1,54.8
		c-0.5,0-0.9-0.4-0.9-0.9c0-0.5,0.4-0.9,0.9-0.9c0.5,0,0.9,0.4,0.9,0.9C52,54.4,51.6,54.8,51.1,54.8z M49.7,53.9
		c0,0.5-0.4,0.9-0.9,0.9c-0.5,0-0.9-0.4-0.9-0.9c0-0.5,0.4-0.9,0.9-0.9C49.2,53,49.7,53.4,49.7,53.9z M47.8,55.5
		c0.1,0.1,0.2,0.2,0.3,0.3c-0.3-0.1-0.7-0.2-1.1-0.2c-0.3,0-0.7,0.1-1,0.2c0.1-0.1,0.1-0.2,0.2-0.2l0.8-0.6L47.8,55.5z M45.8,56.4
		c-0.1,0.2-0.3,0.5-0.3,0.8c0,0.3,0.1,0.6,0.3,0.8c0,0-0.1,0-0.1,0c-0.6,0-1.1,0.4-1.3,1c0-0.1,0-0.1,0-0.2c0.1-0.6,0.3-1.1,0.5-1.6
		C45.2,56.8,45.5,56.5,45.8,56.4z M45.7,61.5c-0.6,0-1.1,0.3-1.4,0.8v-2.1C44.7,60.7,45.1,61.2,45.7,61.5z M44.6,63.1
		c0-0.6,0.5-1.2,1.2-1.2s1.2,0.5,1.2,1.2v2.5h-2.3V63.1z M46.5,61.7c0.1,0,0.3,0,0.5,0c1.2,0,2.2-0.7,2.7-1.7v1.9
		c-0.3-0.3-0.7-0.5-1.1-0.5c-0.6,0-1.1,0.3-1.4,0.8C47,62,46.8,61.8,46.5,61.7z M47.4,63.1c0-0.6,0.5-1.2,1.2-1.2
		c0.6,0,1.1,0.5,1.1,1.1v2.5h-2.3V63.1z M52.9,55.6c-0.3,0-0.7,0.1-1,0.2c0.1-0.1,0.1-0.2,0.2-0.2l0.8-0.6l0.8,0.6
		c0.1,0.1,0.2,0.2,0.3,0.3C53.6,55.7,53.3,55.6,52.9,55.6z M52.5,53.1c0,0.1,0,0.3,0,0.4c-0.1-0.6-0.7-1.1-1.4-1.1c0,0,0,0,0,0
		c0.2-0.2,0.3-0.5,0.3-0.8c0-0.3-0.1-0.5-0.3-0.8C51.9,51.3,52.5,52.1,52.5,53.1z M48.8,52.5c0,0-0.1,0-0.1,0c-0.6,0-1.1,0.4-1.3,1
		c0-0.1,0-0.2,0-0.3c0-1,0.6-1.9,1.4-2.3c-0.1,0.2-0.3,0.5-0.3,0.8C48.5,52,48.7,52.2,48.8,52.5z M47.1,54.3L47.1,54.3l-1.2,0.8
		c-0.4,0.3-0.7,0.7-1,1.1c0.5-1.4,1.2-2.7,2.1-3.9c-0.1,0.3-0.1,0.6-0.1,0.9C46.9,53.5,47,53.9,47.1,54.3z M54,55.1l-1.1-0.9
		l-0.1,0.1c0.2-0.4,0.2-0.8,0.2-1.2c0-0.4-0.1-0.7-0.2-1.1c1.1,1.3,1.9,2.8,2.3,4.3C54.8,55.9,54.5,55.5,54,55.1z M51.2,50.3
		c-0.4-0.2-0.8-0.3-1.2-0.3c-0.4,0-0.7,0.1-1.1,0.2l1.1-1.2L51.2,50.3z"/>
	<path class="st1" d="M61.6,50L61,50.6c-0.7,0.7-1.2,1.7-1.2,2.8v24.3h3.5V53.4c0-1-0.4-2-1.2-2.8L61.6,50z M62.9,68.4L62.9,68.4
		L62.8,67h-0.5v1.4h-0.4V67h-0.5v1.4H61V67h-0.5v1.4h-0.1v-2.3h2.5V68.4z M62.9,65.7h-2.5v-6.6h2.5V65.7z M60.4,68.9h2.5v2.1
		c-0.8-0.2-1.5-0.2-2.3,0l-0.2,0.1V68.9z M60.4,71.7l0.3-0.1c0.7-0.2,1.4-0.2,2,0l0.1,0v3.9h-2.5V71.7z M62.9,58.6h-2.5v-2.8
		l0.3-0.1c0.7-0.2,1.4-0.2,2,0l0.1,0V58.6z M60.4,77.2V76h2.5v1.2H60.4z M62.9,55.2c-0.8-0.2-1.5-0.2-2.3,0l-0.2,0.1v-1.9
		c0-0.9,0.4-1.8,1-2.4l0.2-0.2l0.2,0.2v0c0.6,0.6,1,1.5,1,2.4V55.2z"/>
	<path class="st1" d="M60.7,53.2c0,0.5,0.4,0.9,0.9,0.9c0.5,0,0.9-0.4,0.9-0.9s-0.4-0.9-0.9-0.9C61.1,52.2,60.7,52.7,60.7,53.2z
		 M62,53.2c0,0.2-0.2,0.4-0.4,0.4c-0.2,0-0.4-0.2-0.4-0.4s0.2-0.4,0.4-0.4C61.9,52.7,62,52.9,62,53.2z"/>
	<path class="st1" d="M63.7,44.8l-0.3,0.4l-0.3-0.4L62.8,45l-0.3-0.2l-0.3,0.4l-0.3-0.4L61.7,45l-0.3-0.2l-0.3,0.4l-0.3-0.4L60.6,45
		l-0.3-0.2L60,45.1l-0.3-0.4l-0.4,0.3l0.4,0.4L59.3,46l0.4,0.3l0.3-0.4l0.3,0.4l0.3-0.2l0.3,0.2l0.3-0.4l0.3,0.4l0.3-0.2l0.3,0.2
		l0.3-0.4l0.3,0.4l0.3-0.2l0.3,0.2l0.3-0.4l0.3,0.4l0.4-0.3l-0.4-0.4l0.4-0.4L63.7,44.8z M60.6,45.8l-0.2-0.3l0.2-0.3l0.2,0.3
		L60.6,45.8z M61.7,45.8l-0.2-0.3l0.2-0.3l0.2,0.3L61.7,45.8z M62.8,45.8l-0.2-0.3l0.2-0.3l0.2,0.3L62.8,45.8z"/>
	<path class="st1" d="M38.4,50l-0.6,0.6c-0.7,0.7-1.2,1.7-1.2,2.8v24.3h3.5V53.4c0-1-0.4-2-1.2-2.8L38.4,50z M39.7,68.4L39.7,68.4
		L39.6,67h-0.5v1.4h-0.4V67h-0.5v1.4h-0.4V67h-0.5v1.4h-0.1v-2.3h2.5V68.4z M39.7,65.7h-2.5v-6.6h2.5V65.7z M37.2,68.9h2.5v2.1
		c-0.8-0.2-1.5-0.2-2.3,0l-0.2,0.1V68.9z M37.2,71.7l0.3-0.1c0.7-0.2,1.4-0.2,2,0l0.1,0v3.9h-2.5V71.7z M39.7,58.6h-2.5v-2.8
		l0.3-0.1c0.7-0.2,1.4-0.2,2,0l0.1,0V58.6z M37.2,77.2V76h2.5v1.2H37.2z M39.7,55.2c-0.8-0.2-1.5-0.2-2.3,0l-0.2,0.1v-1.9
		c0-0.9,0.4-1.8,1-2.4l0.2-0.2l0.2,0.2c0.6,0.6,1,1.5,1,2.4V55.2z"/>
	<path class="st1" d="M37.5,53.2c0,0.5,0.4,0.9,0.9,0.9c0.5,0,0.9-0.4,0.9-0.9s-0.4-0.9-0.9-0.9C37.9,52.2,37.5,52.7,37.5,53.2z
		 M38.9,53.2c0,0.2-0.2,0.4-0.4,0.4c-0.2,0-0.4-0.2-0.4-0.4s0.2-0.4,0.4-0.4C38.7,52.7,38.9,52.9,38.9,53.2z"/>
	<path class="st1" d="M36.5,46.3l0.3-0.4l0.3,0.4l0.3-0.2l0.3,0.2l0.3-0.4l0.3,0.4l0.3-0.2l0.3,0.2l0.3-0.4l0.3,0.4l0.3-0.2l0.3,0.2
		l0.3-0.4l0.3,0.4l0.4-0.3l-0.4-0.4l0.4-0.4l-0.4-0.3l-0.3,0.4l-0.3-0.4L39.6,45l-0.3-0.2l-0.3,0.4l-0.3-0.4L38.5,45l-0.3-0.2
		l-0.3,0.4l-0.3-0.4L37.4,45l-0.3-0.2l-0.3,0.4l-0.3-0.4l-0.4,0.3l0.4,0.4L36.1,46L36.5,46.3z M39.6,45.3l0.2,0.3l-0.2,0.3l-0.2-0.3
		L39.6,45.3z M38.5,45.3l0.2,0.3l-0.2,0.3l-0.2-0.3L38.5,45.3z M37.4,45.3l0.2,0.3l-0.2,0.3l-0.2-0.3L37.4,45.3z"/>
	<path class="st1" d="M56.4,44.8L56,45.1l-0.3-0.4L55.5,45l-0.3-0.2l-0.3,0.4l-0.3-0.4L54.4,45l-0.3-0.2l-0.3,0.4l-0.3-0.4L53.2,45
		L53,44.8l-0.3,0.4l-0.3-0.4L52.1,45l-0.3-0.2l-0.3,0.4l-0.3-0.4L51,45l-0.3-0.2l-0.3,0.4l-0.3-0.4L49.9,45l-0.2-0.2l-0.3,0.4
		L49,44.8L48.8,45l-0.3-0.2l-0.3,0.4l-0.3-0.4L47.6,45l-0.3-0.2l-0.3,0.4l-0.3-0.4L46.5,45l-0.3-0.2L46,45.1l-0.3-0.4L45.4,45
		l-0.3-0.2l-0.3,0.4l-0.3-0.4L44.3,45L44,44.8l-0.3,0.4l-0.3-0.4L43,45.1l0.4,0.4L43,46l0.4,0.3l0.3-0.4l0.3,0.4l0.3-0.2l0.3,0.2
		l0.3-0.4l0.3,0.4l0.3-0.2l0.3,0.2l0.3-0.4l0.3,0.4l0.3-0.2l0.3,0.2l0.3-0.4l0.3,0.4l0.3-0.2l0.3,0.2l0.3-0.4l0.3,0.4l0.3-0.2
		l0.3,0.2l0.3-0.4l0.3,0.4l0.2-0.2l0.2,0.2l0.3-0.4l0.3,0.4l0.3-0.2l0.3,0.2l0.3-0.4l0.3,0.4l0.3-0.2l0.3,0.2l0.3-0.4l0.3,0.4
		l0.3-0.2l0.3,0.2l0.3-0.4l0.3,0.4l0.3-0.2l0.3,0.2l0.3-0.4l0.3,0.4l0.3-0.2l0.3,0.2l0.3-0.4l0.3,0.4l0.4-0.3l-0.4-0.4l0.4-0.4
		L56.4,44.8z M44.3,45.8L44,45.5l0.2-0.3l0.2,0.3L44.3,45.8z M45.4,45.8l-0.2-0.3l0.2-0.3l0.2,0.3L45.4,45.8z M46.5,45.8l-0.2-0.3
		l0.2-0.3l0.2,0.3L46.5,45.8z M47.6,45.8l-0.2-0.3l0.2-0.3l0.2,0.3L47.6,45.8z M48.8,45.8l-0.2-0.3l0.2-0.3l0.2,0.3L48.8,45.8z
		 M49.9,45.8l-0.2-0.3l0.2-0.3l0.2,0.3L49.9,45.8z M51,45.8l-0.2-0.3l0.2-0.3l0.2,0.3L51,45.8z M52.1,45.8l-0.2-0.3l0.2-0.3l0.2,0.3
		L52.1,45.8z M53.2,45.8L53,45.5l0.2-0.3l0.2,0.3L53.2,45.8z M54.4,45.8l-0.2-0.3l0.2-0.3l0.2,0.3L54.4,45.8z M55.5,45.8l-0.2-0.3
		l0.2-0.3l0.2,0.3L55.5,45.8z"/>
	<path class="st1" d="M65.3,29.3h-1.7l-2-7.8c0.5-0.1,0.8-0.4,0.8-0.9c0-0.5-0.4-0.9-0.9-0.9s-0.9,0.4-0.9,0.9
		c0,0.5,0.4,0.9,0.8,0.9l-2,7.8h-1.3l-2.5-4.5l-0.1,0v-3.2l-1.2-5l-1,4.1l-2.1-3.9l-0.1,0v-3.9l-1.2-5l-1.2,5v3.8l0,0l-2.1,3.9l-1-4
		l-1.2,4.9l0,3.3l-0.1,0l-2.5,4.5h-1.3l-2-7.8c0.5-0.1,0.8-0.4,0.8-0.9c0-0.5-0.4-0.9-0.9-0.9c-0.5,0-0.9,0.4-0.9,0.9
		c0,0.5,0.4,0.9,0.8,0.9l-2,7.8h-1.7v15.1h0v40.8h30.7V44.4h0V29.3z M61,40.1h-1.6v-1.7l0.2-0.1c0.5-0.1,0.9-0.1,1.4,0l0,0V40.1z
		 M61,37.9c-0.5-0.1-1.1-0.1-1.6,0l0,0v-0.3c0-0.6,0.2-1.2,0.7-1.7l0.1-0.1l0.1,0.1c0.4,0.4,0.7,1,0.7,1.7V37.9z M59.4,40.6H61v3.2
		h-1.6V40.6z M63.6,40.1H62v-1.7l0.2-0.1c0.5-0.1,0.9-0.1,1.4,0l0,0V40.1z M63.6,37.9c-0.5-0.1-1.1-0.1-1.6,0l0,0v-0.3
		c0-0.6,0.2-1.2,0.7-1.7l0.1-0.1l0.1,0.1c0.4,0.4,0.7,1,0.7,1.7V37.9z M62,40.6h1.6v3.2H62V40.6z M63.2,35.5l-0.5-0.5l-0.5,0.5
		c-0.5,0.5-0.8,1.2-0.8,1.9c0-0.7-0.3-1.4-0.8-1.9l-0.5-0.5l-0.5,0.5c-0.5,0.5-0.8,1.3-0.8,2v6.3h-0.7V33.7h6.6v10.1h-0.8v-6.3
		C64.1,36.8,63.8,36.1,63.2,35.5z M57.8,84.6h-1.6V74.5c0-3.4-2.8-6.2-6.2-6.2c-3.4,0-6.2,2.8-6.2,6.2v10.1h-1.6V44.4h15.5h0.1V84.6
		z M54.2,75.3h-8.3v-0.7c0-2.3,1.9-4.2,4.2-4.2c2.3,0,4.2,1.9,4.2,4.2V75.3z M45.8,75.8h3.9v8.8h0.5v-8.8h3.9v8.8h-8.3V75.8z M50,70
		c-2.6,0-4.7,2.1-4.7,4.7v10h-1V74.5c0-3.1,2.5-5.7,5.7-5.7c3.1,0,5.7,2.5,5.7,5.7v10.1h-1v-10C54.7,72.1,52.6,70,50,70z M37.9,40.1
		h-1.6v-1.7l0.2-0.1c0.5-0.1,0.9-0.1,1.4,0l0,0V40.1z M37.9,37.9c-0.5-0.1-1.1-0.1-1.6,0l0,0v-0.3c0-0.6,0.2-1.2,0.7-1.7l0.1-0.1
		l0.1,0.1c0.4,0.4,0.7,1,0.7,1.7V37.9z M36.3,40.6h1.6v3.2h-1.6V40.6z M40.5,40.1h-1.6v-1.7l0.2-0.1c0.5-0.1,0.9-0.1,1.4,0l0,0V40.1
		z M40.5,37.9c-0.5-0.1-1.1-0.1-1.6,0l0,0v-0.3c0-0.6,0.2-1.2,0.7-1.7l0.1-0.1l0.1,0.1c0.4,0.4,0.7,1,0.7,1.7V37.9z M38.9,40.6h1.6
		v3.2h-1.6V40.6z M40.2,35.5l-0.5-0.5l-0.5,0.5c-0.5,0.5-0.8,1.2-0.8,1.9c0-0.7-0.3-1.4-0.8-1.9l-0.5-0.5l-0.5,0.5
		c-0.5,0.5-0.8,1.3-0.8,2v6.3h-0.7V33.7h6.6v10.1H41v-6.3C41,36.8,40.7,36.1,40.2,35.5z M50.7,14.5h-1.4l0-0.9h1.4V14.5z M50.7,15
		v0.9h-1.4l0-0.9H50.7z M50.7,16.4v0.9h-1.4l0-0.9H50.7z M56.5,33.5v5c-0.2,0-0.4,0-0.5,0.1v-5.5C56.1,33.3,56.3,33.4,56.5,33.5z
		 M56.8,33.1c-0.2,0-0.4-0.2-0.4-0.4c0-0.2,0.2-0.4,0.4-0.4c0.2,0,0.4,0.2,0.4,0.4C57.2,32.9,57,33.1,56.8,33.1z M57,33.5
		c0.2-0.1,0.4-0.2,0.5-0.4v5.5c-0.2-0.1-0.4-0.1-0.5-0.1V33.5z M56.8,31.7c-0.3,0-0.5,0.1-0.7,0.3c0.1-0.4,0.3-0.7,0.6-1l0.1-0.1
		l0.1,0.1c0.3,0.3,0.5,0.6,0.6,1C57.3,31.8,57.1,31.7,56.8,31.7z M56,39.1l0.1,0c0.5-0.1,0.9-0.1,1.4,0l0.1,0v3H56V39.1z M53.2,42.2
		h-2v-3.1h2V42.2z M45,26.5h1.4v0.9H45V26.5z M45,26v-0.9h1.4V26H45z M45,27.9h1.4v0.9H45V27.9z M45,29.3h1.4v0.9H45V29.3z M45,30.8
		h1.4v0.9H45V30.8z M45,32.2h1.4v0.9H45V32.2z M45,33.6h1.4v0.9H45V33.6z M45,35h1.4v0.9H45V35z M45,42.1h1.4v0.3l-0.7,0.4L45,42.4
		V42.1z M46.4,41.5H45v-0.9h1.4V41.5z M46.4,40.1H45v-0.9h1.4V40.1z M46.4,38.7H45v-0.9h1.4V38.7z M46.4,37.3H45v-0.9h1.4V37.3z
		 M47.6,26.5v8.6c-0.2,0-0.4,0-0.5,0.1v-9.2C47.2,26.3,47.4,26.5,47.6,26.5z M49.3,17.8h1.4v0.9h-1.4L49.3,17.8z M49.3,19.3h1.4v0.9
		h-1.4L49.3,19.3z M49.3,20.7h1.4v0.9h-1.4L49.3,20.7z M49.3,22.1h1.4V23h-1.4L49.3,22.1z M49.3,23.5h1.4v0.9h-1.4L49.3,23.5z
		 M50.7,24.9v0.9h-1.4l0-0.9H50.7z M51.9,26.5v8.6c-0.2,0-0.4,0-0.5,0.1v-9.2C51.5,26.3,51.7,26.5,51.9,26.5z M50.7,41.4h-1.4v-0.9
		h1.4V41.4z M46.9,35.8l0.3-0.1c0.5-0.1,0.9-0.1,1.4,0l0.2,0.1v2.8h-1.9L46.9,35.8z M50.7,27.2h-1.4l0-0.9h1.4V27.2z M50.7,27.7v0.9
		h-1.4l0-0.9H50.7z M50.7,29.1v0.9h-1.4l0-0.9H50.7z M50.7,30.6v0.9h-1.4l0-0.9H50.7z M50.7,32v0.9h-1.4l0-0.9H50.7z M50.7,33.4v0.9
		h-1.4l0-0.9H50.7z M50.7,34.8v0.9h-1.4l0-0.9H50.7z M49.3,36.2h1.4v0.9h-1.4L49.3,36.2z M49.3,37.6h1.4v0.9h-1.4V37.6z M50.7,39
		v0.9h-1.4V39H50.7z M51.2,35.8l0.3-0.1c0.5-0.1,0.9-0.1,1.4,0l0.3,0.1v2.7h-2V35.8z M52.5,35.2v-8.6c0.2-0.1,0.4-0.2,0.5-0.4v9.2
		C52.8,35.2,52.6,35.2,52.5,35.2z M52.2,26.1c-0.2,0-0.4-0.2-0.4-0.4c0-0.2,0.2-0.4,0.4-0.4c0.2,0,0.4,0.2,0.4,0.4
		C52.6,25.9,52.4,26.1,52.2,26.1z M48.7,35.3c-0.2-0.1-0.4-0.1-0.5-0.1v-8.6c0.2-0.1,0.4-0.2,0.5-0.4V35.3z M47.9,26.1
		c-0.2,0-0.4-0.2-0.4-0.4c0-0.2,0.2-0.4,0.4-0.4c0.2,0,0.4,0.2,0.4,0.4C48.3,25.9,48.1,26.1,47.9,26.1z M46.9,39.1h1.9v3.1h-1.9
		L46.9,39.1z M50.7,41.9v0.5L50,42.8l-0.7-0.4v-0.5H50.7z M55.1,41.5h-1.4l0-0.9h1.4V41.5z M55.1,42.1v0.3l-0.7,0.4l-0.7-0.4v-0.3
		H55.1z M55.1,40.1h-1.4l0-0.9h1.4V40.1z M55.1,38.7h-1.4l0-0.9h1.4V38.7z M55.1,37.3h-1.4l0-0.9h1.4V37.3z M55.1,35.9h-1.4l0-0.9
		h1.4V35.9z M55.1,34.5h-1.4l0-0.9h1.4V34.5z M55.1,33.1h-1.4l0-0.9h1.4V33.1z M55.1,31.7h-1.4l0-0.9h1.4V31.7z M55.1,30.2h-1.4
		l0-0.9h1.4V30.2z M55.1,28.8h-1.4l0-0.9h1.4V28.8z M55.1,27.4h-1.4l0-0.9h1.4V27.4z M53.7,26l0-0.9h1.4V26H53.7z M55.1,24.6h-1.4
		l0-0.9h1.4V24.6z M55.1,23.2h-1.4l0-0.9h1.4V23.2z M52.2,24.7c-0.3,0-0.5,0.1-0.7,0.3c0.1-0.4,0.3-0.7,0.6-1l0.1-0.1l0.1,0.1
		c0.3,0.3,0.5,0.6,0.6,1C52.7,24.9,52.5,24.7,52.2,24.7z M47.9,24.7c-0.3,0-0.5,0.1-0.7,0.3c0.1-0.4,0.3-0.7,0.6-1l0.1-0.1l0.1,0.1
		c0.3,0.3,0.5,0.6,0.6,1C48.4,24.9,48.1,24.7,47.9,24.7z M46.4,23.2H45v-0.9h1.4V23.2z M46.4,23.7v0.9H45v-0.9H46.4z M42.5,42.2v-3
		l0.1,0c0.5-0.1,0.9-0.1,1.4,0l0.1,0v3H42.5z M43,33.5v5c-0.2,0-0.4,0-0.5,0.1v-5.5C42.6,33.3,42.8,33.4,43,33.5z M43.5,33.5
		c0.2-0.1,0.4-0.2,0.5-0.4v5.5c-0.2-0.1-0.4-0.1-0.5-0.1V33.5z M43.3,33.1c-0.2,0-0.4-0.2-0.4-0.4c0-0.2,0.2-0.4,0.4-0.4
		c0.2,0,0.4,0.2,0.4,0.4C43.7,32.9,43.5,33.1,43.3,33.1z M43.3,31.7c-0.3,0-0.5,0.1-0.7,0.3c0.1-0.4,0.3-0.7,0.6-1l0.1-0.1l0.1,0.1
		c0.3,0.3,0.5,0.6,0.6,1C43.8,31.8,43.5,31.7,43.3,31.7z M42.3,42.7h2.2v0l1.2,0.6l1.2-0.6v0h1.9v0.1l1.2,0.6l1.2-0.6v-0.1h2v0
		l1.2,0.6l1.2-0.6v0h2.1v1.2H42.3V42.7z M59.7,29.7L59.7,29.7l0.1,2h-0.1V29.7z M61.5,29.7L61.5,29.7l0.1,2h-0.1V29.7z M63.3,29.7
		L63.3,29.7l0.1,2h-0.1V29.7z M61.1,20.6c0-0.2,0.2-0.4,0.4-0.4s0.4,0.2,0.4,0.4c0,0.2-0.2,0.4-0.4,0.4S61.1,20.8,61.1,20.6z
		 M61.5,23.1l1.6,6.1H60L61.5,23.1z M59.2,29.8v2.4h1.1v-2.4H61v2.4h1.1v-2.4h0.7v2.4h1.1v-2.4h1v3.4h-6.6v-3.4H59.2z M57.7,29.6
		v1.8c-0.1-0.2-0.3-0.5-0.5-0.7l-0.5-0.5l-0.5,0.5c-0.4,0.4-0.6,0.8-0.7,1.3v-6.3L57.7,29.6z M54.4,18.7l0.7,2.9v0.2h-1.4v-0.1
		L54.4,18.7z M53.1,21.2l0.2-0.1l-0.1,0.5v2.9c-0.1-0.3-0.3-0.5-0.5-0.7l-0.5-0.5l-0.5,0.5c-0.2,0.2-0.4,0.5-0.5,0.7v-6.8L53.1,21.2
		z M50,10l0.7,2.9v0.2h-1.4V13L50,10z M46.9,21.2l1.9-3.4v6.6c-0.1-0.2-0.3-0.4-0.5-0.6l-0.5-0.5l-0.5,0.5c-0.2,0.2-0.4,0.5-0.5,0.7
		l0-3l-0.1-0.4L46.9,21.2z M45.7,18.7l0.7,2.9v0.2H45v-0.2L45.7,18.7z M44.5,25.7l0,6.3c-0.1-0.5-0.4-0.9-0.7-1.3l-0.5-0.5l-0.5,0.5
		c-0.2,0.2-0.4,0.5-0.6,0.8v-1.9l0,0L44.5,25.7z M36.7,29.7L36.7,29.7l0.1,2h-0.1V29.7z M38.4,29.7L38.4,29.7l0.1,2h-0.1V29.7z
		 M40.2,29.7L40.2,29.7l0.1,2h-0.1V29.7z M38,20.6c0-0.2,0.2-0.4,0.4-0.4c0.2,0,0.4,0.2,0.4,0.4c0,0.2-0.2,0.4-0.4,0.4
		C38.2,21,38,20.8,38,20.6z M38.5,23.1l1.6,6.1h-3.2L38.5,23.1z M36.2,29.8v2.4h1.1v-2.4h0.7v2.4H39v-2.4h0.7v2.4h1.1v-2.4h1v3.4
		h-6.6v-3.4H36.2z M35.8,44.4h2.6h0H41h0.8v35h-6.6v-35H35.8z M35.2,79.9h6.6v4.8h-1.6v-2.8l-1.7-0.6l-1.7,0.6v2.8h-1.5V79.9z
		 M37.2,84.6v-2.4l1.2-0.4l1.2,0.4v2.4H37.2z M60.4,84.6v-2.4l1.2-0.4l1.2,0.4v2.4H60.4z M63.4,84.6v-2.8l-1.7-0.6l-1.7,0.6v2.8
		h-1.5v-4.8h6.5v4.8H63.4z M64.8,79.3h-6.5v-35h0.6h2.6h0h2.6h0.7V79.3z"/>
</g>
</svg>
