<?xml version="1.0" encoding="utf-8"?>
<!-- Generator: Adobe Illustrator 25.4.1, SVG Export Plug-In . SVG Version: 6.00 Build 0)  -->
<svg version="1.1" id="Layer_1" xmlns="http://www.w3.org/2000/svg" xmlns:xlink="http://www.w3.org/1999/xlink" x="0px" y="0px"
	 viewBox="0 0 100 100" style="enable-background:new 0 0 100 100;" xml:space="preserve">
<style type="text/css">
	.st0{fill:#2D2E82;}
	.st1{fill:#FFFFFF;}
	.st2{fill:#1D1D1B;}
</style>
<circle class="st0" cx="50" cy="50" r="50"/>
<g>
	<g>
		<path class="st1" d="M62.5,67.6h-3.2v-6.5c0-0.6-0.2-1.2-0.7-1.7c-0.4-0.4-1-0.7-1.7-0.7c-1.3,0-2.4,1.1-2.4,2.4v6.5h-2.9v-7.2
			c0-0.4-0.2-0.8-0.5-1.1c-0.3-0.3-0.7-0.5-1.1-0.5c-0.9,0-1.6,0.7-1.6,1.6v7.2h-2.9v-6.5c0-0.6-0.2-1.2-0.7-1.7
			c-0.5-0.4-1-0.7-1.7-0.7c-1.3,0-2.4,1.1-2.4,2.4v6.5h-3.2V56.3h25V67.6z M59.8,67.2H62V56.7H37.9v10.4h2.2v-6
			c0-1.6,1.3-2.9,2.8-2.9c0.8,0,1.5,0.3,2,0.8c0.5,0.5,0.8,1.3,0.8,2v6h2v-6.8c0-1.2,0.9-2.1,2.1-2.1c0.5,0,1.1,0.2,1.5,0.6
			c0.4,0.4,0.6,0.9,0.6,1.5v6.8h2v-6c0-1.6,1.3-2.9,2.8-2.9c0.8,0,1.5,0.3,2,0.8c0.5,0.5,0.8,1.3,0.8,2V67.2z"/>
		<path class="st1" d="M40,56.7h-2.6V39.9H40V56.7z M37.9,56.2h1.5V40.5h-1.5V56.2z"/>
		<path class="st1" d="M47.5,56.7h-2.6V39.9h2.6V56.7z M45.5,56.2H47V40.5h-1.5V56.2z"/>
		<path class="st1" d="M55,56.7h-2.6V39.9H55V56.7z M53,56.2h1.5V40.5H53V56.2z"/>
		<path class="st1" d="M62.5,56.7H60V40h2.5V56.7z M60.4,56.2H62V40.4h-1.6V56.2z"/>
		<path class="st1" d="M44.3,56.7h-3.6v-8l0.8-0.2c0.7-0.2,1.4-0.2,2.1,0l0.8,0.2V56.7z M41.1,56.2h2.7V49l-0.4-0.1
			c-0.6-0.2-1.2-0.2-1.8,0L41.1,49V56.2z"/>
		<path class="st1" d="M51.8,56.7h-3.6v-8l0.8-0.2c0.7-0.2,1.4-0.2,2.1,0l0.8,0.2V56.7z M48.6,56.2h2.7V49l-0.4-0.1
			c-0.6-0.2-1.2-0.2-1.8,0L48.6,49V56.2z"/>
		<path class="st1" d="M59.3,56.7h-3.6v-8l0.8-0.2c0.7-0.2,1.4-0.2,2.1,0l0.8,0.2V56.7z M56.1,56.2h2.7V49l-0.4-0.1
			c-0.6-0.2-1.2-0.2-1.8,0L56.1,49V56.2z"/>
		<path class="st1" d="M44.3,45.8h-3.6v-4.2l0.8-0.2c0.7-0.2,1.4-0.2,2.1,0l0.8,0.2V45.8z M41.1,45.4h2.7V42l-0.4-0.1
			c-0.6-0.2-1.2-0.2-1.8,0L41.1,42V45.4z"/>
		<path class="st1" d="M51.8,45.8h-3.6v-4.2l0.8-0.2c0.7-0.2,1.4-0.2,2.1,0l0.8,0.2V45.8z M48.6,45.4h2.7V42l-0.4-0.1
			c-0.6-0.2-1.2-0.2-1.8,0L48.6,42V45.4z"/>
		<path class="st1" d="M59.3,45.8h-3.6v-4.2l0.8-0.2c0.7-0.2,1.4-0.2,2.1,0l0.8,0.2V45.8z M56.1,45.4h2.7V42l-0.4-0.1
			c-0.6-0.2-1.2-0.2-1.8,0L56.1,42V45.4z"/>
		<path class="st1" d="M62.6,40.4H37.3v-3.1h25.2V40.4z M37.8,40h24.3v-2.2H37.8V40z"/>
		<path class="st1" d="M62.5,37.8H37.4l-0.7-1.7L50,29.6l0.1,0.1l13.1,6.4L62.5,37.8z M37.7,37.3h24.5l0.4-1L50,30.2l-12.6,6.2
			L37.7,37.3z"/>
		<g>
			<path class="st1" d="M46.4,31.9h-0.4v-0.7c0-0.5,0.3-1,0.8-1.2l0.2-0.1c0.4-0.2,0.8-0.6,0.9-1l0.3-0.8l0.4,0.1L48.3,29
				c-0.2,0.6-0.6,1-1.2,1.3l-0.2,0.1c-0.3,0.1-0.5,0.5-0.5,0.8V31.9z"/>
			<path class="st1" d="M53.9,31.9h-0.4v-0.7c0-0.4-0.2-0.7-0.5-0.8l-0.2-0.1c-0.6-0.2-1-0.7-1.2-1.3l-0.3-0.8l0.4-0.1l0.3,0.8
				c0.2,0.5,0.5,0.8,0.9,1l0.2,0.1c0.5,0.2,0.8,0.7,0.8,1.2V31.9z"/>
		</g>
		<path class="st1" d="M52.3,28.3h-0.8c-0.3,0-0.6-0.1-0.8-0.3l-0.2-0.1c-0.3-0.3-0.8-0.3-1.1,0L49.2,28c-0.2,0.2-0.5,0.3-0.8,0.3
			h-0.8v-0.4h0.8c0.2,0,0.4-0.1,0.6-0.2l0.2-0.1c0.5-0.4,1.2-0.4,1.7,0l0.2,0.1c0.2,0.1,0.4,0.2,0.6,0.2h0.8V28.3z"/>
		<g>
			<path class="st1" d="M65.6,65.1h-3.4v-5.9l0.7-0.2c0.6-0.2,1.3-0.2,2,0l0.7,0.2V65.1z M62.6,64.6h2.5v-5.1l-0.4-0.1
				c-0.6-0.2-1.1-0.2-1.7,0l-0.4,0.1V64.6z"/>
			<path class="st1" d="M65.6,55.7h-3.5V49h3.5V55.7z M62.6,55.2h2.6v-5.8h-2.6V55.2z"/>
			<path class="st1" d="M70.4,65.1H67v-5.9l0.7-0.2c0.6-0.2,1.3-0.2,2,0l0.7,0.2V65.1z M67.5,64.6H70v-5.1l-0.4-0.1
				c-0.6-0.2-1.1-0.2-1.7,0l-0.4,0.1V64.6z"/>
			<path class="st1" d="M70.5,55.7H67V49h3.5V55.7z M67.4,55.2H70v-5.8h-2.6V55.2z"/>
			<path class="st1" d="M71.1,46.7h-4.7l0.4-1.8c0.1-0.4,0.1-0.8,0.1-1.3v-2l1.8-1.1l1.8,1.1v2c0,0.4,0.1,0.9,0.1,1.3L71.1,46.7z
				 M67,46.3h3.5L70.2,45c-0.1-0.4-0.2-0.9-0.2-1.4v-1.8l-1.3-0.8l-1.3,0.8v1.8c0,0.5-0.1,0.9-0.2,1.4L67,46.3z"/>
			<path class="st1" d="M69.8,46.7h-2.1v-4.2h2.1V46.7z M68.1,46.3h1.2V43h-1.2V46.3z"/>
			<path class="st1" d="M75.3,65.1h-3.4v-5.9l0.7-0.2c0.6-0.2,1.3-0.2,2,0l0.7,0.2V65.1z M72.3,64.6h2.5v-5.1l-0.4-0.1
				c-0.6-0.2-1.1-0.2-1.7,0l-0.4,0.1V64.6z"/>
			<path class="st1" d="M75.3,55.7h-3.5V49h3.5V55.7z M72.3,55.2h2.6v-5.8h-2.6V55.2z"/>
			<g>
				<path class="st1" d="M82.4,65.1H79v-5.9l0.7-0.2c0.6-0.2,1.3-0.2,2,0l0.7,0.2V65.1z M79.4,64.6h2.5v-5.1l-0.4-0.1
					c-0.6-0.2-1.1-0.2-1.7,0l-0.4,0.1V64.6z"/>
				<path class="st1" d="M82.4,55.1h-3.5v-6.7h3.5V55.1z M79.4,54.7H82v-5.8h-2.6V54.7z"/>
				<path class="st1" d="M87.2,65.1h-3.4v-5.9l0.7-0.2c0.6-0.2,1.3-0.2,2,0l0.7,0.2V65.1z M84.3,64.6h2.5v-5.1l-0.4-0.1
					c-0.6-0.2-1.1-0.2-1.7,0l-0.4,0.1V64.6z"/>
				<path class="st1" d="M87.3,55.1h-3.5v-6.7h3.5V55.1z M84.2,54.7h2.6v-5.8h-2.6V54.7z"/>
			</g>
			<path class="st1" d="M89.6,67.6H76.6v-22h12.9V67.6z M77.1,67.2h12v-21h-12V67.2z"/>
			<polygon class="st1" points="89.3,45.9 83.1,41.7 76.9,45.9 76.6,45.5 83.1,41.1 89.6,45.5 			"/>
			<rect x="62.3" y="46.3" class="st1" width="14.5" height="0.5"/>
			<rect x="62.3" y="66.5" class="st1" width="14.5" height="0.5"/>
			<polygon class="st1" points="84.5,42.1 84.1,42.1 84.1,38.4 82.1,38.4 82.1,42.1 81.7,42.1 81.7,38 84.5,38 			"/>
			<polygon class="st1" points="67.9,30.8 67.5,30.8 67.5,27.8 66,27.8 66,30.8 65.5,30.8 65.5,27.4 67.9,27.4 			"/>
			<polygon class="st1" points="60.1,30.8 59.6,30.8 59.6,27.8 58.1,27.8 58.1,30.8 57.7,30.8 57.7,27.4 60.1,27.4 			"/>
			<polygon class="st1" points="76.5,36.3 62.8,36.3 62.8,35.8 75,35.8 67.9,31.2 53.6,31.2 53.6,30.7 68.1,30.7 			"/>
			<rect x="78" y="34.3" transform="matrix(0.5872 -0.8094 0.8094 0.5872 1.0179 79.2241)" class="st1" width="0.5" height="8.7"/>
			<rect x="67.2" y="41.7" class="st1" width="3.1" height="0.5"/>
		</g>
		<g>
			<path class="st1" d="M37.8,65.1h-3.4v-5.9l0.7-0.2c0.6-0.2,1.3-0.2,2,0l0.7,0.2V65.1z M34.9,64.6h2.5v-5.1L37,59.4
				c-0.6-0.2-1.1-0.2-1.7,0l-0.4,0.1V64.6z"/>
			<path class="st1" d="M37.9,55.7h-3.5V49h3.5V55.7z M34.8,55.2h2.6v-5.8h-2.6V55.2z"/>
			<path class="st1" d="M33,65.1h-3.4v-5.9l0.7-0.2c0.6-0.2,1.3-0.2,2,0l0.7,0.2V65.1z M30,64.6h2.5v-5.1l-0.4-0.1
				c-0.6-0.2-1.1-0.2-1.7,0L30,59.5V64.6z"/>
			<path class="st1" d="M33,55.7h-3.5V49H33V55.7z M30,55.2h2.6v-5.8H30V55.2z"/>
			<path class="st1" d="M33.6,46.7h-4.7l0.4-1.8c0.1-0.4,0.1-0.8,0.1-1.3v-2l1.8-1.1l1.8,1.1v2c0,0.4,0.1,0.9,0.1,1.3L33.6,46.7z
				 M29.5,46.3H33L32.7,45c-0.1-0.5-0.2-0.9-0.2-1.4v-1.8l-1.3-0.8L30,41.9v1.8c0,0.5-0.1,0.9-0.2,1.4L29.5,46.3z"/>
			<path class="st1" d="M32.3,46.7h-2.1v-4.2h2.1V46.7z M30.7,46.3h1.2V43h-1.2V46.3z"/>
			<path class="st1" d="M28.2,65.1h-3.4v-5.9l0.7-0.2c0.6-0.2,1.3-0.2,2,0l0.7,0.2V65.1z M25.2,64.6h2.5v-5.1l-0.4-0.1
				c-0.6-0.2-1.1-0.2-1.7,0l-0.4,0.1V64.6z"/>
			<path class="st1" d="M28.2,55.7h-3.5V49h3.5V55.7z M25.1,55.2h2.6v-5.8h-2.6V55.2z"/>
			<g>
				<path class="st1" d="M21,65.1h-3.4v-5.9l0.7-0.2c0.6-0.2,1.3-0.2,2,0l0.7,0.2V65.1z M18.1,64.6h2.5v-5.1l-0.4-0.1
					c-0.6-0.2-1.1-0.2-1.7,0l-0.4,0.1V64.6z"/>
				<path class="st1" d="M21.1,55.1h-3.5v-6.7h3.5V55.1z M18,54.7h2.6v-5.8H18V54.7z"/>
				<path class="st1" d="M16.2,65.1h-3.4v-5.9l0.7-0.2c0.6-0.2,1.3-0.2,2,0l0.7,0.2V65.1z M13.2,64.6h2.5v-5.1l-0.4-0.1
					c-0.6-0.2-1.1-0.2-1.7,0l-0.4,0.1V64.6z"/>
				<path class="st1" d="M16.2,55.1h-3.5v-6.7h3.5V55.1z M13.2,54.7h2.6v-5.8h-2.6V54.7z"/>
			</g>
			<path class="st1" d="M23.4,67.6H10.4v-22h12.9V67.6z M10.9,67.2h12v-21h-12V67.2z"/>
			<polygon class="st1" points="23.1,45.9 16.9,41.7 10.7,45.9 10.4,45.5 16.9,41.1 23.4,45.5 			"/>
			<rect x="23.1" y="46.3" class="st1" width="14.5" height="0.5"/>
			<rect x="23.1" y="66.5" class="st1" width="14.5" height="0.5"/>
			<polygon class="st1" points="18.3,42.1 17.9,42.1 17.9,38.4 15.9,38.4 15.9,42.1 15.5,42.1 15.5,38 18.3,38 			"/>
			<polygon class="st1" points="34.5,30.8 34,30.8 34,27.8 32.5,27.8 32.5,30.8 32.1,30.8 32.1,27.4 34.5,27.4 			"/>
			<polygon class="st1" points="42.3,30.8 41.9,30.8 41.9,27.8 40.4,27.8 40.4,30.8 39.9,30.8 39.9,27.4 42.3,27.4 			"/>
			<polygon class="st1" points="37.2,36.3 23.5,36.3 31.9,30.7 46.4,30.7 46.4,31.2 32.1,31.2 25,35.8 37.2,35.8 			"/>
			
				<rect x="17.5" y="38.4" transform="matrix(0.8097 -0.5869 0.5869 0.8097 -18.5096 20.1502)" class="st1" width="8.7" height="0.5"/>
			<rect x="29.7" y="41.7" class="st1" width="3.1" height="0.5"/>
		</g>
		<rect x="62.3" y="55.3" class="st1" width="14.6" height="0.5"/>
		<rect x="62.3" y="57.1" class="st1" width="14.6" height="0.5"/>
		<rect x="23.1" y="55.3" class="st1" width="14.6" height="0.5"/>
		<rect x="23.1" y="57.1" class="st1" width="14.6" height="0.5"/>
		<rect x="10.6" y="54.7" class="st1" width="12.6" height="0.5"/>
		<rect x="10.6" y="56.5" class="st1" width="12.6" height="0.5"/>
		<rect x="76.7" y="54.7" class="st1" width="12.6" height="0.5"/>
		<rect x="76.7" y="56.5" class="st1" width="12.6" height="0.5"/>
		<g>
			<polygon class="st2" points="23.4,36.3 23.8,37.2 25.1,36.1 			"/>
			<path class="st1" d="M23.7,37.6l-0.6-1.5l2.9-0.3L23.7,37.6z M23.8,36.5l0.1,0.2l0.3-0.3L23.8,36.5z"/>
		</g>
		<g>
			<polygon class="st2" points="76.5,36.3 76.2,37.2 74.9,36.1 			"/>
			<path class="st1" d="M76.3,37.6L74,35.8l2.9,0.3L76.3,37.6z M75.7,36.5l0.3,0.3l0.1-0.2L75.7,36.5z"/>
		</g>
	</g>
	<rect x="37.7" y="67.2" class="st1" width="24.6" height="0.5"/>
</g>
</svg>
