<?xml version="1.0" encoding="utf-8"?>
<!-- Generator: Adobe Illustrator 26.3.1, SVG Export Plug-In . SVG Version: 6.00 Build 0)  -->
<svg version="1.1" width="100" height="100" id="Layer_1" xmlns="http://www.w3.org/2000/svg" xmlns:xlink="http://www.w3.org/1999/xlink" x="0px" y="0px"
	 viewBox="0 0 100 100" style="enable-background:new 0 0 100 100;" xml:space="preserve">
<style type="text/css">
	.st0{fill:#2D2E82;}
	.st1{fill:#FFFFFF;}
</style>
<circle class="st0" cx="50" cy="50" r="50"/>
<g>
	<path class="st1" d="M12.1,62.1h2.5v-2.8h-2.5V62.1z M12.5,60.7h0.5v0.9h-0.5V60.7z M13.6,61.6v-0.9h0.5v0.9H13.6z M14.1,60.2h-0.5
		v-0.4h0.5V60.2z M13.1,59.8v0.4h-0.5v-0.4H13.1z"/>
	<path class="st1" d="M15.5,62.1H18v-2.8h-2.5V62.1z M16,60.7h0.5v0.9H16V60.7z M17,61.6v-0.9h0.5v0.9H17z M17.5,60.2H17v-0.4h0.5
		V60.2z M16.5,59.8v0.4H16v-0.4H16.5z"/>
	<path class="st1" d="M18.9,62.1h2.5v-2.8h-2.5V62.1z M19.4,60.7h0.5v0.9h-0.5V60.7z M20.4,61.6v-0.9h0.5v0.9H20.4z M20.9,60.2h-0.5
		v-0.4h0.5V60.2z M19.9,59.8v0.4h-0.5v-0.4H19.9z"/>
	<path class="st1" d="M22.3,62.1h2.5v-2.8h-2.5V62.1z M22.8,60.7h0.5v0.9h-0.5V60.7z M23.8,61.6v-0.9h0.5v0.9H23.8z M24.4,60.2h-0.5
		v-0.4h0.5V60.2z M23.4,59.8v0.4h-0.5v-0.4H23.4z"/>
	<path class="st1" d="M39.9,59.6v2.8h2.5v-2.8H39.9z M42,60.5h-0.5v-0.4H42V60.5z M41,60.1v0.4h-0.5v-0.4H41z M40.4,61H41v0.9h-0.5
		V61z M41.4,61.9V61H42v0.9H41.4z"/>
	<path class="st1" d="M43.4,59.6v2.8h2.5v-2.8H43.4z M45.4,60.5h-0.5v-0.4h0.5V60.5z M44.4,60.1v0.4h-0.5v-0.4H44.4z M43.9,61h0.5
		v0.9h-0.5V61z M44.9,61.9V61h0.5v0.9H44.9z"/>
	<path class="st1" d="M48.7,56.4v1.7h2.6v-1.7H48.7z M50.8,57.6h-1.6v-0.7h1.6V57.6z"/>
	<path class="st1" d="M29.5,54.6h2.3V51h-2.3V54.6z M30,51.5h1.3v2.7H30V51.5z"/>
	<path class="st1" d="M35.4,54.6V51h-2.3v3.7H35.4z M33.6,51.5h1.3v2.7h-1.3V51.5z"/>
	<path class="st1" d="M38.8,54.6V51h-2.3v3.7H38.8z M37,51.5h1.3v2.7H37V51.5z"/>
	<path class="st1" d="M42.4,54.6V51h-2.3v3.7H42.4z M40.6,51.5h1.3v2.7h-1.3V51.5z"/>
	<path class="st1" d="M45.9,54.6V51h-2.3v3.7H45.9z M44.1,51.5h1.3v2.7h-1.3V51.5z"/>
	<path class="st1" d="M47.2,54.6h2.3V51h-2.3V54.6z M47.7,51.5H49v2.7h-1.3V51.5z"/>
	<path class="st1" d="M29.5,45.1v3.7h2.3v-3.7H29.5z M31.3,48.2H30v-2.7h1.3V48.2z"/>
	<path class="st1" d="M35.4,45.1h-2.3v3.7h2.3V45.1z M34.9,48.2h-1.3v-2.7h1.3V48.2z"/>
	<path class="st1" d="M38.8,45.1h-2.3v3.7h2.3V45.1z M38.3,48.2H37v-2.7h1.3V48.2z"/>
	<path class="st1" d="M42.4,45.1h-2.3v3.7h2.3V45.1z M41.9,48.2h-1.3v-2.7h1.3V48.2z"/>
	<path class="st1" d="M45.9,45.1h-2.3v3.7h2.3V45.1z M45.4,48.2h-1.3v-2.7h1.3V48.2z"/>
	<path class="st1" d="M47.2,45.1v3.7h2.3v-3.7H47.2z M49,48.2h-1.3v-2.7H49V48.2z"/>
	<path class="st1" d="M92.4,36.6v-2.3l1.9-1.7H50v0.5h43l-1,0.8H51.5h-3.1H7.9l-1-0.8h43v-0.5H5.6l1.9,1.7v2.3h0.5v21.2H7.6V63v0.2
		v2.1h32.1v0.3h-1.1v1.7h1.8h0.3h8.6h1.2h8.6h0.3h1.8v-1.7h-1.1v-0.3h32.1v-2.1V63v-5.2h-0.5V36.6H92.4z M8.1,34.4h40.4h3.1h40.4
		v1.7H51.5h-3.1H8.1V34.4z M88.5,57.8v-1.7h1.2v1.7H88.5z M71.4,62.8h-3.3v-0.4h2.5v-2.8h-2.5v-1.3h3.3V62.8z M58.7,64.9h-0.6v0.5
		h-0.6v-0.7h1.2V64.9z M58.1,65.9v0.2h-7.5h-1.2h-7.5v-0.2h1.1v0h6.5h1.2h6.5v0H58.1z M41.3,64.9v-0.2h1.2v0.7h-0.6v-0.5H41.3z
		 M57.1,65.4h-6.5h-1.2h-6.5v-0.7h14.1V65.4z M28.6,58.3h3.3v1.3h-2.5v2.8h2.5v0.4h-3.3V58.3z M11.5,36.6v19h-1.2v-19H11.5z
		 M88,36.6v19h-1.2v-19H88z M86.4,55.6h-1.2v-19h1.2V55.6z M84.7,55.6h-1.2v-19h1.2V55.6z M83.1,55.6h-1.2v-19h1.2V55.6z M81.4,55.6
		h-1.2v-19h1.2V55.6z M79.7,55.6h-1.2v-19h1.2V55.6z M78.1,55.6h-1.2v-19h1.2V55.6z M76.4,55.6h-1.2v-19h1.2V55.6z M74.7,55.6h-1.2
		v-19h1.2V55.6z M73.1,55.6h-1.2v-19h1.2V55.6z M69.5,57.8v-1.7h0.3v1.7H69.5z M53.3,55.1h-3.1V43h3.1V55.1z M28.6,43h3.3v12.7h-3.3
		V43z M35.4,43v12.7h-3V43H35.4z M39.1,43v12.7h-3.1V43H39.1z M42.7,43v12.7h-3.1V43H42.7z M30.5,56.1v1.7h-0.3v-1.7H30.5z M31,56.1
		h1v1.7h-1V56.1z M32.4,56.1h0.9v1.7h-0.9V56.1z M33.8,56.1h0.3v1.7h-0.3V56.1z M34.6,56.1h0.9v1.7h-0.9V56.1z M35.9,56.1h1v1.7h-1
		V56.1z M37.4,56.1h0.3v1.7h-0.3V56.1z M38.2,56.1h0.9v1.7h-0.9V56.1z M39.6,56.1h1v1.7h-1V56.1z M41,56.1h0.3v1.7H41V56.1z
		 M41.8,56.1h0.8v1.7h-0.8V56.1z M43.2,56.1h1v1.7h-1V56.1z M44.7,56.1H45v1.7h-0.3V56.1z M45.5,56.1h0.7v1.7h-0.7V56.1z M46.2,55.6
		h-3V43h3V55.6z M46.7,43h3.1v12.1h-3.1V43z M56.8,43v12.7h-3V43H56.8z M60.4,43v12.7h-3.1V43H60.4z M64.1,43v12.7h-3.1V43H64.1z
		 M67.6,43v12.7h-3V43H67.6z M53.8,56.1h0.7v1.7h-0.7V56.1z M55,56.1h0.3v1.7H55V56.1z M55.8,56.1h1v1.7h-1V56.1z M57.3,56.1h0.8
		v1.7h-0.8V56.1z M58.7,56.1H59v1.7h-0.3V56.1z M59.5,56.1h1v1.7h-1V56.1z M60.9,56.1h0.9v1.7h-0.9V56.1z M62.3,56.1h0.3v1.7h-0.3
		V56.1z M63.1,56.1h1v1.7h-1V56.1z M64.6,56.1h0.9v1.7h-0.9V56.1z M65.9,56.1h0.3v1.7h-0.3V56.1z M66.7,56.1h0.9v1.7h-0.9V56.1z
		 M68.1,56.1h1v1.7h-1V56.1z M68.1,55.6V43h3.3v12.7H68.1z M71.4,42.5h-1.2v-5.8h1.2V42.5z M69.7,42.5h-1.2v-5.8h1.2V42.5z
		 M68.1,42.5L68.1,42.5l0-0.6h-0.5v0.6h-0.7v-5.8h1.2V42.5z M66.4,42.5h-1.2v-5.8h1.2V42.5z M64.7,42.5h-0.2v-0.6h-0.5v0.6h-0.5
		v-5.8h1.2V42.5z M63.1,42.5h-1.2v-5.8h1.2V42.5z M61.4,42.5h-0.5v-0.6h-0.5v0.6h-0.2v-5.8h1.2V42.5z M59.7,42.5h-1.2v-5.8h1.2V42.5
		z M58.1,42.5h-0.8v-0.6h-0.4v-5.2h1.2V42.5z M56.4,42.5h-1.2v-5.8h1.2V42.5z M54.8,42.5h-0.9v-0.6h-0.2v-5.2h1.2V42.5z M53.1,42.5
		h-1.2v-5.8h1.2V42.5z M51.4,42.5h-1.2v-5.8h1.2V42.5z M49.8,42.5h-1.2v-5.8h1.2V42.5z M48.1,42.5h-1.2v-5.8h1.2V42.5z M46.4,41.9
		h-0.2v0.6h-0.9v-5.8h1.2V41.9z M44.8,42.5h-1.2v-5.8h1.2V42.5z M43.1,41.9h-0.4v0.6h-0.8v-5.8h1.2V41.9z M41.4,42.5h-1.2v-5.8h1.2
		V42.5z M39.8,42.5h-0.2v-0.6h-0.5v0.6h-0.5v-5.8h1.2V42.5z M38.1,42.5h-1.2v-5.8h1.2V42.5z M36.4,42.5h-0.5v-0.6h-0.5v0.6h-0.2
		v-5.8h1.2V42.5z M34.8,42.5h-1.2v-5.8h1.2V42.5z M33.1,42.5h-0.7v-0.6h-0.5v0.6h0v-5.8h1.2V42.5z M31.4,42.5h-1.2v-5.8h1.2V42.5z
		 M29.8,42.5h-1.2v-5.8h1.2V42.5z M28.1,55.6h-1.2v-19h1.2V55.6z M26.4,55.6h-1.2v-19h1.2V55.6z M24.8,55.6h-1.2v-19h1.2V55.6z
		 M23.1,55.6h-1.2v-19h1.2V55.6z M21.5,55.6h-1.2v-19h1.2V55.6z M19.8,55.6h-1.2v-19h1.2V55.6z M18.1,55.6h-1.2v-19h1.2V55.6z
		 M16.5,55.6h-1.2v-19h1.2V55.6z M14.8,55.6h-1.2v-19h1.2V55.6z M13.1,55.6H12v-19h1.2V55.6z M11.5,56.1v1.7h-1.2v-1.7H11.5z
		 M12,56.1h1.2v1.7H12V56.1z M13.6,56.1h1.2v1.7h-1.2V56.1z M15.3,56.1h1.2v1.7h-1.2V56.1z M16.9,56.1h1.2v1.7h-1.2V56.1z
		 M18.6,56.1h1.2v1.7h-1.2V56.1z M20.3,56.1h1.2v1.7h-1.2V56.1z M21.9,56.1h1.2v1.7h-1.2V56.1z M23.6,56.1h1.2v1.7h-1.2V56.1z
		 M25.3,56.1h1.2v1.7h-1.2V56.1z M26.9,56.1h1.2v1.7h-1.2V56.1z M28.6,56.1h1.1v1.7h-1.1V56.1z M31.5,60.5H31v-0.4h0.5V60.5z
		 M30.5,60.5h-0.5v-0.4h0.5V60.5z M29.9,61h0.5v0.9h-0.5V61z M31,61h0.5v0.9H31V61z M32.4,58.3h3v1.3H33v2.8h2.5v0.4h-3V58.3z
		 M35,60.5h-0.5v-0.4H35V60.5z M34,60.5h-0.5v-0.4H34V60.5z M33.5,61H34v0.9h-0.5V61z M34.5,61H35v0.9h-0.5V61z M35.9,58.3h3.1v1.3
		h-2.5v2.8h2.5v0.4h-3.1V58.3z M38.6,60.5h-0.5v-0.4h0.5V60.5z M37.6,60.5h-0.5v-0.4h0.5V60.5z M37.1,61h0.5v0.9h-0.5V61z M38.1,61
		h0.5v0.9h-0.5V61z M39.6,58.3h3.1v4.4h-3.1V58.3z M43.2,58.3h3v4.4h-3V58.3z M49.2,62.9h0.6v0.9h-0.6V62.9z M50.2,62.9h0.6v0.9
		h-0.6V62.9z M50.8,62.4h-0.6v-0.8h0.6V62.4z M50.8,61h-0.6v-0.9h0.6V61z M49.8,61h-0.6v-0.9h0.6V61z M49.2,61.5h0.6v0.8h-0.6V61.5z
		 M51.3,64.2v-4.5h-2.6v4.5h-2.1v-8.6h6.7v8.6H51.3z M53.8,58.3h3v4.4h-3V58.3z M57.3,58.3h3.1v4.4h-3.1V58.3z M60.9,62.4h2.5v-2.8
		h-2.5v-1.3h3.1v4.4h-3.1V62.4z M61.4,61h0.5v0.9h-0.5V61z M62.4,61h0.5v0.9h-0.5V61z M62.9,60.5h-0.5v-0.4h0.5V60.5z M61.9,60.5
		h-0.5v-0.4h0.5V60.5z M64.6,62.4H67v-2.8h-2.5v-1.3h3v4.4h-3V62.4z M65,61h0.5v0.9H65V61z M66,61h0.5v0.9H66V61z M66.5,60.5H66
		v-0.4h0.5V60.5z M65.5,60.5H65v-0.4h0.5V60.5z M68.5,61H69v0.9h-0.5V61z M69.5,61h0.5v0.9h-0.5V61z M70.1,60.5h-0.5v-0.4h0.5V60.5z
		 M69,60.5h-0.5v-0.4H69V60.5z M70.3,57.8v-1.7h1.1v1.7H70.3z M71.9,56.1h1.2v1.7h-1.2V56.1z M73.6,56.1h1.2v1.7h-1.2V56.1z
		 M75.2,56.1h1.2v1.7h-1.2V56.1z M76.9,56.1h1.2v1.7h-1.2V56.1z M78.5,56.1h1.2v1.7h-1.2V56.1z M80.2,56.1h1.2v1.7h-1.2V56.1z
		 M81.9,56.1h1.2v1.7h-1.2V56.1z M83.5,56.1h1.2v1.7h-1.2V56.1z M85.2,56.1h1.2v1.7h-1.2V56.1z M86.9,56.1H88v1.7h-1.2V56.1z
		 M88.5,55.6v-19h1.2v19H88.5z M9.8,36.6v19H8.6v-19H9.8z M8.6,56.1h1.2v1.7H8.6V56.1z M8.1,58.3h20v1h-2.3v2.8h2.3v0.7h-20V58.3z
		 M27.8,60.2h-0.5v-0.4h0.5V60.2z M26.8,60.2h-0.5v-0.4h0.5V60.2z M26.3,60.7h0.5v0.9h-0.5V60.7z M27.3,60.7h0.5v0.9h-0.5V60.7z
		 M8.1,63.2h20v0.1h0.5v-0.1h3.3v0.1h0.5v-0.1h3v0.1h0.5v-0.1h3.1v0.1h0.5v-0.1h3.1v0.1h0.5v-0.1h3v0.9l-5.4,0v0.7l-32.7,0V63.2z
		 M40.2,65.4h0.6h0.6v0.5v0.2h-0.6v-0.4h-0.6V65.4z M40.3,66.9h-1.2v-0.7h0.6h0.6v0.4V66.9z M50.6,66.9h-1.2h-8.6v-0.3l8.6,0h1.2
		l8.6,0v0.3H50.6z M60.9,66.1v0.7h-1.2v-0.3v-0.4h0.6H60.9z M59.2,65.7v0.4h-0.6v-0.2v-0.5h0.6h0.6v0.3H59.2z M91.9,64.8l-32.7,0
		v-0.7l-5.4,0v-0.9h3v0.1h0.5v-0.1h3.1v0.1h0.5v-0.1h3.1v0.1h0.5v-0.1h3v0.1h0.5v-0.1h3.3v0.1h0.5v-0.1h20V64.8z M91.9,62.8h-20
		v-0.7h2.3v-2.8h-2.3v-1h20V62.8z M72.2,60.7h0.5v0.9h-0.5V60.7z M73.2,60.7h0.5v0.9h-0.5V60.7z M73.7,60.2h-0.5v-0.4h0.5V60.2z
		 M72.7,60.2h-0.5v-0.4h0.5V60.2z M90.2,57.8v-1.7h1.2v1.7H90.2z M91.4,55.6h-1.2v-19h1.2V55.6z"/>
	<path class="st1" d="M87.9,59.3h-2.5v2.8h2.5V59.3z M87.5,60.2h-0.5v-0.4h0.5V60.2z M86.4,59.8v0.4h-0.5v-0.4H86.4z M85.9,60.7h0.5
		v0.9h-0.5V60.7z M86.9,61.6v-0.9h0.5v0.9H86.9z"/>
	<path class="st1" d="M84.5,59.3H82v2.8h2.5V59.3z M84,60.2h-0.5v-0.4H84V60.2z M83,59.8v0.4h-0.5v-0.4H83z M82.5,60.7H83v0.9h-0.5
		V60.7z M83.5,61.6v-0.9H84v0.9H83.5z"/>
	<path class="st1" d="M81.1,59.3h-2.5v2.8h2.5V59.3z M80.6,60.2h-0.5v-0.4h0.5V60.2z M79.6,59.8v0.4h-0.5v-0.4H79.6z M79.1,60.7h0.5
		v0.9h-0.5V60.7z M80.1,61.6v-0.9h0.5v0.9H80.1z"/>
	<path class="st1" d="M77.7,59.3h-2.5v2.8h2.5V59.3z M77.2,60.2h-0.5v-0.4h0.5V60.2z M76.2,59.8v0.4h-0.5v-0.4H76.2z M75.6,60.7h0.5
		v0.9h-0.5V60.7z M76.6,61.6v-0.9h0.5v0.9H76.6z"/>
	<path class="st1" d="M57.5,59.6v2.8h2.5v-2.8H57.5z M59.6,60.5H59v-0.4h0.5V60.5z M58.6,60.1v0.4H58v-0.4H58.6z M58,61h0.5v0.9H58
		V61z M59,61.9V61h0.5v0.9H59z"/>
	<path class="st1" d="M54.1,59.6v2.8h2.5v-2.8H54.1z M56.1,60.5h-0.5v-0.4h0.5V60.5z M55.1,60.1v0.4h-0.5v-0.4H55.1z M54.6,61h0.5
		v0.9h-0.5V61z M55.6,61.9V61h0.5v0.9H55.6z"/>
	<path class="st1" d="M68.2,54.6h2.3V51h-2.3V54.6z M68.7,51.5H70v2.7h-1.3V51.5z"/>
	<path class="st1" d="M66.9,54.6V51h-2.3v3.7H66.9z M65.1,51.5h1.3v2.7h-1.3V51.5z"/>
	<path class="st1" d="M63.4,54.6V51h-2.3v3.7H63.4z M61.7,51.5H63v2.7h-1.3V51.5z"/>
	<path class="st1" d="M59.9,54.6V51h-2.3v3.7H59.9z M58.1,51.5h1.3v2.7h-1.3V51.5z"/>
	<path class="st1" d="M56.3,54.6V51h-2.3v3.7H56.3z M54.6,51.5h1.3v2.7h-1.3V51.5z"/>
	<path class="st1" d="M52.8,54.6V51h-2.3v3.7H52.8z M51,51.5h1.3v2.7H51V51.5z"/>
	<path class="st1" d="M68.2,45.1v3.7h2.3v-3.7H68.2z M70,48.2h-1.3v-2.7H70V48.2z"/>
	<path class="st1" d="M66.9,45.1h-2.3v3.7h2.3V45.1z M66.4,48.2h-1.3v-2.7h1.3V48.2z"/>
	<path class="st1" d="M63.4,45.1h-2.3v3.7h2.3V45.1z M63,48.2h-1.3v-2.7H63V48.2z"/>
	<path class="st1" d="M59.9,45.1h-2.3v3.7h2.3V45.1z M59.4,48.2h-1.3v-2.7h1.3V48.2z"/>
	<path class="st1" d="M56.3,45.1h-2.3v3.7h2.3V45.1z M55.9,48.2h-1.3v-2.7h1.3V48.2z"/>
	<path class="st1" d="M52.8,45.1h-2.3v3.7h2.3V45.1z M52.3,48.2H51v-2.7h1.3V48.2z"/>
</g>
</svg>
