<?xml version="1.0" encoding="utf-8"?>
<!-- Generator: Adobe Illustrator 25.4.1, SVG Export Plug-In . SVG Version: 6.00 Build 0)  -->
<svg version="1.1" id="Layer_1" xmlns="http://www.w3.org/2000/svg" xmlns:xlink="http://www.w3.org/1999/xlink" x="0px" y="0px"
	 viewBox="0 0 100 100" style="enable-background:new 0 0 100 100;" xml:space="preserve">
<style type="text/css">
	.st0{fill:#2D2E82;}
	.st1{fill:#FFFFFF;}
</style>
<circle class="st0" cx="50" cy="50" r="50"/>
<g>
	<g>
		<path class="st1" d="M16.9,55.3h-3.1V34.1h3.1V55.3z M14.2,54.9h2.3V34.6h-2.3V54.9z"/>
		<rect x="14" y="53" class="st1" width="2.8" height="0.4"/>
		<rect x="14" y="51.1" class="st1" width="2.8" height="0.4"/>
		<rect x="14" y="49.2" class="st1" width="2.8" height="0.4"/>
		<rect x="14" y="47.3" class="st1" width="2.8" height="0.4"/>
		<rect x="14" y="45.5" class="st1" width="2.8" height="0.4"/>
		<rect x="14" y="43.6" class="st1" width="2.8" height="0.4"/>
		<rect x="14" y="41.7" class="st1" width="2.8" height="0.4"/>
		<rect x="14" y="39.8" class="st1" width="2.8" height="0.4"/>
		<rect x="14" y="37.9" class="st1" width="2.8" height="0.4"/>
		<rect x="14" y="36" class="st1" width="2.8" height="0.4"/>
	</g>
	<g>
		<path class="st1" d="M21.8,55.3h-3.1V34.1h3.1V55.3z M19.1,54.9h2.3V34.6h-2.3V54.9z"/>
		<rect x="18.9" y="53" class="st1" width="2.8" height="0.4"/>
		<rect x="18.9" y="51.1" class="st1" width="2.8" height="0.4"/>
		<rect x="18.9" y="49.2" class="st1" width="2.8" height="0.4"/>
		<rect x="18.9" y="47.3" class="st1" width="2.8" height="0.4"/>
		<rect x="18.9" y="45.5" class="st1" width="2.8" height="0.4"/>
		<rect x="18.9" y="43.6" class="st1" width="2.8" height="0.4"/>
		<rect x="18.9" y="41.7" class="st1" width="2.8" height="0.4"/>
		<rect x="18.9" y="39.8" class="st1" width="2.8" height="0.4"/>
		<rect x="18.9" y="37.9" class="st1" width="2.8" height="0.4"/>
		<rect x="18.9" y="36" class="st1" width="2.8" height="0.4"/>
	</g>
	<g>
		<path class="st1" d="M26.7,55.3h-3.1V34.1h3.1V55.3z M24,54.9h2.3V34.6H24V54.9z"/>
		<rect x="23.8" y="53" class="st1" width="2.8" height="0.4"/>
		<rect x="23.8" y="51.1" class="st1" width="2.8" height="0.4"/>
		<rect x="23.8" y="49.2" class="st1" width="2.8" height="0.4"/>
		<rect x="23.8" y="47.3" class="st1" width="2.8" height="0.4"/>
		<rect x="23.8" y="45.5" class="st1" width="2.8" height="0.4"/>
		<rect x="23.8" y="43.6" class="st1" width="2.8" height="0.4"/>
		<rect x="23.8" y="41.7" class="st1" width="2.8" height="0.4"/>
		<rect x="23.8" y="39.8" class="st1" width="2.8" height="0.4"/>
		<rect x="23.8" y="37.9" class="st1" width="2.8" height="0.4"/>
		<rect x="23.8" y="36" class="st1" width="2.8" height="0.4"/>
	</g>
	<g>
		<path class="st1" d="M26.7,65.4h-3.1v-6.2h3.1V65.4z M24,65h2.3v-5.3H24V65z"/>
		<rect x="23.8" y="63" class="st1" width="2.8" height="0.4"/>
		<rect x="23.8" y="61.1" class="st1" width="2.8" height="0.4"/>
	</g>
	<g>
		<path class="st1" d="M21.8,65.4h-3.1v-6.2h3.1V65.4z M19.1,65h2.3v-5.3h-2.3V65z"/>
		<rect x="18.9" y="63" class="st1" width="2.8" height="0.4"/>
		<rect x="18.9" y="61.1" class="st1" width="2.8" height="0.4"/>
	</g>
	<g>
		<path class="st1" d="M41.5,65.4h-3.1v-6.2h3.1V65.4z M38.8,65h2.3v-5.3h-2.3V65z"/>
		<rect x="38.6" y="63" class="st1" width="2.8" height="0.4"/>
		<rect x="38.6" y="61.1" class="st1" width="2.8" height="0.4"/>
	</g>
	<g>
		<path class="st1" d="M53.2,69.2h-6.7v-10h6.7V69.2z M46.9,68.8h5.8v-9.1h-5.8V68.8z"/>
		<rect x="46.7" y="61.1" class="st1" width="6.2" height="0.4"/>
	</g>
	<g>
		<path class="st1" d="M86.1,69.1h-4.6v-7.6h4.6V69.1z M82,68.6h3.7v-6.7H82V68.6z"/>
	</g>
	<g>
		<path class="st1" d="M36.6,65.4h-3.1v-6.2h3.1V65.4z M33.9,65h2.3v-5.3h-2.3V65z"/>
		<rect x="33.7" y="63" class="st1" width="2.8" height="0.4"/>
		<rect x="33.7" y="61.1" class="st1" width="2.8" height="0.4"/>
	</g>
	<g>
		<path class="st1" d="M66.2,65.4H63v-6.2h3.1V65.4z M63.5,65h2.3v-5.3h-2.3V65z"/>
		<rect x="63.3" y="63" class="st1" width="2.8" height="0.4"/>
		<rect x="63.3" y="61.1" class="st1" width="2.8" height="0.4"/>
	</g>
	<g>
		<path class="st1" d="M61.3,65.4h-3.1v-6.2h3.1V65.4z M58.6,65h2.3v-5.3h-2.3V65z"/>
		<rect x="58.3" y="63" class="st1" width="2.8" height="0.4"/>
		<rect x="58.3" y="61.1" class="st1" width="2.8" height="0.4"/>
	</g>
	<g>
		<path class="st1" d="M31.7,55.3h-3.1V34.1h3.1V55.3z M29,54.9h2.3V34.6H29V54.9z"/>
		<rect x="28.8" y="53" class="st1" width="2.8" height="0.4"/>
		<rect x="28.8" y="51.1" class="st1" width="2.8" height="0.4"/>
		<rect x="28.8" y="49.2" class="st1" width="2.8" height="0.4"/>
		<rect x="28.8" y="47.3" class="st1" width="2.8" height="0.4"/>
		<rect x="28.8" y="45.5" class="st1" width="2.8" height="0.4"/>
		<rect x="28.8" y="43.6" class="st1" width="2.8" height="0.4"/>
		<rect x="28.8" y="41.7" class="st1" width="2.8" height="0.4"/>
		<rect x="28.8" y="39.8" class="st1" width="2.8" height="0.4"/>
		<rect x="28.8" y="37.9" class="st1" width="2.8" height="0.4"/>
		<rect x="28.8" y="36" class="st1" width="2.8" height="0.4"/>
	</g>
	<g>
		<path class="st1" d="M36.6,55.3h-3.1V34.1h3.1V55.3z M33.9,54.9h2.3V34.6h-2.3V54.9z"/>
		<rect x="33.7" y="53" class="st1" width="2.8" height="0.4"/>
		<rect x="33.7" y="51.1" class="st1" width="2.8" height="0.4"/>
		<rect x="33.7" y="49.2" class="st1" width="2.8" height="0.4"/>
		<rect x="33.7" y="47.3" class="st1" width="2.8" height="0.4"/>
		<rect x="33.7" y="45.5" class="st1" width="2.8" height="0.4"/>
		<rect x="33.7" y="43.6" class="st1" width="2.8" height="0.4"/>
		<rect x="33.7" y="41.7" class="st1" width="2.8" height="0.4"/>
		<rect x="33.7" y="39.8" class="st1" width="2.8" height="0.4"/>
		<rect x="33.7" y="37.9" class="st1" width="2.8" height="0.4"/>
		<rect x="33.7" y="36" class="st1" width="2.8" height="0.4"/>
	</g>
	<g>
		<path class="st1" d="M41.5,55.3h-3.1V34.1h3.1V55.3z M38.8,54.9h2.3V34.6h-2.3V54.9z"/>
		<rect x="38.6" y="53" class="st1" width="2.8" height="0.4"/>
		<rect x="38.6" y="51.1" class="st1" width="2.8" height="0.4"/>
		<rect x="38.6" y="49.2" class="st1" width="2.8" height="0.4"/>
		<rect x="38.6" y="47.3" class="st1" width="2.8" height="0.4"/>
		<rect x="38.6" y="45.5" class="st1" width="2.8" height="0.4"/>
		<rect x="38.6" y="43.6" class="st1" width="2.8" height="0.4"/>
		<rect x="38.6" y="41.7" class="st1" width="2.8" height="0.4"/>
		<rect x="38.6" y="39.8" class="st1" width="2.8" height="0.4"/>
		<rect x="38.6" y="37.9" class="st1" width="2.8" height="0.4"/>
		<rect x="38.6" y="36" class="st1" width="2.8" height="0.4"/>
	</g>
	<g>
		<path class="st1" d="M46.5,55.3h-3.1V34.1h3.1V55.3z M43.8,54.9H46V34.6h-2.3V54.9z"/>
		<rect x="43.5" y="53" class="st1" width="2.8" height="0.4"/>
		<rect x="43.5" y="51.1" class="st1" width="2.8" height="0.4"/>
		<rect x="43.5" y="49.2" class="st1" width="2.8" height="0.4"/>
		<rect x="43.5" y="47.3" class="st1" width="2.8" height="0.4"/>
		<rect x="43.5" y="45.5" class="st1" width="2.8" height="0.4"/>
		<rect x="43.5" y="43.6" class="st1" width="2.8" height="0.4"/>
		<rect x="43.5" y="41.7" class="st1" width="2.8" height="0.4"/>
		<rect x="43.5" y="39.8" class="st1" width="2.8" height="0.4"/>
		<rect x="43.5" y="37.9" class="st1" width="2.8" height="0.4"/>
		<rect x="43.5" y="36" class="st1" width="2.8" height="0.4"/>
	</g>
	<g>
		<path class="st1" d="M51.4,55.3h-3.1V34.1h3.1V55.3z M48.7,54.9H51V34.6h-2.3V54.9z"/>
		<rect x="48.5" y="53" class="st1" width="2.8" height="0.4"/>
		<rect x="48.5" y="51.1" class="st1" width="2.8" height="0.4"/>
		<rect x="48.5" y="49.2" class="st1" width="2.8" height="0.4"/>
		<rect x="48.5" y="47.3" class="st1" width="2.8" height="0.4"/>
		<rect x="48.5" y="45.5" class="st1" width="2.8" height="0.4"/>
		<rect x="48.5" y="43.6" class="st1" width="2.8" height="0.4"/>
		<rect x="48.5" y="41.7" class="st1" width="2.8" height="0.4"/>
		<rect x="48.5" y="39.8" class="st1" width="2.8" height="0.4"/>
		<rect x="48.5" y="37.9" class="st1" width="2.8" height="0.4"/>
		<rect x="48.5" y="36" class="st1" width="2.8" height="0.4"/>
	</g>
	<g>
		<path class="st1" d="M56.3,55.3h-3.1V34.1h3.1V55.3z M53.6,54.9h2.3V34.6h-2.3V54.9z"/>
		<rect x="53.4" y="53" class="st1" width="2.8" height="0.4"/>
		<rect x="53.4" y="51.1" class="st1" width="2.8" height="0.4"/>
		<rect x="53.4" y="49.2" class="st1" width="2.8" height="0.4"/>
		<rect x="53.4" y="47.3" class="st1" width="2.8" height="0.4"/>
		<rect x="53.4" y="45.5" class="st1" width="2.8" height="0.4"/>
		<rect x="53.4" y="43.6" class="st1" width="2.8" height="0.4"/>
		<rect x="53.4" y="41.7" class="st1" width="2.8" height="0.4"/>
		<rect x="53.4" y="39.8" class="st1" width="2.8" height="0.4"/>
		<rect x="53.4" y="37.9" class="st1" width="2.8" height="0.4"/>
		<rect x="53.4" y="36" class="st1" width="2.8" height="0.4"/>
	</g>
	<g>
		<path class="st1" d="M61.3,55.3h-3.1V34.1h3.1V55.3z M58.6,54.9h2.3V34.6h-2.3V54.9z"/>
		<rect x="58.3" y="53" class="st1" width="2.8" height="0.4"/>
		<rect x="58.3" y="51.1" class="st1" width="2.8" height="0.4"/>
		<rect x="58.3" y="49.2" class="st1" width="2.8" height="0.4"/>
		<rect x="58.3" y="47.3" class="st1" width="2.8" height="0.4"/>
		<rect x="58.3" y="45.5" class="st1" width="2.8" height="0.4"/>
		<rect x="58.3" y="43.6" class="st1" width="2.8" height="0.4"/>
		<rect x="58.3" y="41.7" class="st1" width="2.8" height="0.4"/>
		<rect x="58.3" y="39.8" class="st1" width="2.8" height="0.4"/>
		<rect x="58.3" y="37.9" class="st1" width="2.8" height="0.4"/>
		<rect x="58.3" y="36" class="st1" width="2.8" height="0.4"/>
	</g>
	<g>
		<path class="st1" d="M66.2,55.3H63V34.1h3.1V55.3z M63.5,54.9h2.3V34.6h-2.3V54.9z"/>
		<rect x="63.3" y="53" class="st1" width="2.8" height="0.4"/>
		<rect x="63.3" y="51.1" class="st1" width="2.8" height="0.4"/>
		<rect x="63.3" y="49.2" class="st1" width="2.8" height="0.4"/>
		<rect x="63.3" y="47.3" class="st1" width="2.8" height="0.4"/>
		<rect x="63.3" y="45.5" class="st1" width="2.8" height="0.4"/>
		<rect x="63.3" y="43.6" class="st1" width="2.8" height="0.4"/>
		<rect x="63.3" y="41.7" class="st1" width="2.8" height="0.4"/>
		<rect x="63.3" y="39.8" class="st1" width="2.8" height="0.4"/>
		<rect x="63.3" y="37.9" class="st1" width="2.8" height="0.4"/>
		<rect x="63.3" y="36" class="st1" width="2.8" height="0.4"/>
	</g>
	<g>
		<path class="st1" d="M71.1,55.3H68V34.1h3.1V55.3z M68.4,54.9h2.3V34.6h-2.3V54.9z"/>
		<rect x="68.2" y="53" class="st1" width="2.8" height="0.4"/>
		<rect x="68.2" y="51.1" class="st1" width="2.8" height="0.4"/>
		<rect x="68.2" y="49.2" class="st1" width="2.8" height="0.4"/>
		<rect x="68.2" y="47.3" class="st1" width="2.8" height="0.4"/>
		<rect x="68.2" y="45.5" class="st1" width="2.8" height="0.4"/>
		<rect x="68.2" y="43.6" class="st1" width="2.8" height="0.4"/>
		<rect x="68.2" y="41.7" class="st1" width="2.8" height="0.4"/>
		<rect x="68.2" y="39.8" class="st1" width="2.8" height="0.4"/>
		<rect x="68.2" y="37.9" class="st1" width="2.8" height="0.4"/>
		<rect x="68.2" y="36" class="st1" width="2.8" height="0.4"/>
	</g>
	<g>
		<path class="st1" d="M76,55.3h-3.1V34.1H76V55.3z M73.3,54.9h2.3V34.6h-2.3V54.9z"/>
		<rect x="73.1" y="53" class="st1" width="2.8" height="0.4"/>
		<rect x="73.1" y="51.1" class="st1" width="2.8" height="0.4"/>
		<rect x="73.1" y="49.2" class="st1" width="2.8" height="0.4"/>
		<rect x="73.1" y="47.3" class="st1" width="2.8" height="0.4"/>
		<rect x="73.1" y="45.5" class="st1" width="2.8" height="0.4"/>
		<rect x="73.1" y="43.6" class="st1" width="2.8" height="0.4"/>
		<rect x="73.1" y="41.7" class="st1" width="2.8" height="0.4"/>
		<rect x="73.1" y="39.8" class="st1" width="2.8" height="0.4"/>
		<rect x="73.1" y="37.9" class="st1" width="2.8" height="0.4"/>
		<rect x="73.1" y="36" class="st1" width="2.8" height="0.4"/>
	</g>
	<g>
		<path class="st1" d="M81,55.3h-3.1V34.1H81V55.3z M78.3,54.9h2.3V34.6h-2.3V54.9z"/>
		<rect x="78.1" y="53" class="st1" width="2.8" height="0.4"/>
		<rect x="78.1" y="51.1" class="st1" width="2.8" height="0.4"/>
		<rect x="78.1" y="49.2" class="st1" width="2.8" height="0.4"/>
		<rect x="78.1" y="47.3" class="st1" width="2.8" height="0.4"/>
		<rect x="78.1" y="45.5" class="st1" width="2.8" height="0.4"/>
		<rect x="78.1" y="43.6" class="st1" width="2.8" height="0.4"/>
		<rect x="78.1" y="41.7" class="st1" width="2.8" height="0.4"/>
		<rect x="78.1" y="39.8" class="st1" width="2.8" height="0.4"/>
		<rect x="78.1" y="37.9" class="st1" width="2.8" height="0.4"/>
		<rect x="78.1" y="36" class="st1" width="2.8" height="0.4"/>
	</g>
	<g>
		<path class="st1" d="M85.9,55.3h-3.1V34.1h3.1V55.3z M83.2,54.9h2.3V34.6h-2.3V54.9z"/>
		<rect x="83" y="53" class="st1" width="2.8" height="0.4"/>
		<rect x="83" y="51.1" class="st1" width="2.8" height="0.4"/>
		<rect x="83" y="49.2" class="st1" width="2.8" height="0.4"/>
		<rect x="83" y="47.3" class="st1" width="2.8" height="0.4"/>
		<rect x="83" y="45.5" class="st1" width="2.8" height="0.4"/>
		<rect x="83" y="43.6" class="st1" width="2.8" height="0.4"/>
		<rect x="83" y="41.7" class="st1" width="2.8" height="0.4"/>
		<rect x="83" y="39.8" class="st1" width="2.8" height="0.4"/>
		<rect x="83" y="37.9" class="st1" width="2.8" height="0.4"/>
		<rect x="83" y="36" class="st1" width="2.8" height="0.4"/>
	</g>
	<path class="st1" d="M89.1,58.3H10.9V30.8h78.3V58.3z M11.3,57.9h77.4V31.2H11.3V57.9z"/>
	<path class="st1" d="M89.1,69.2H10.9V57.9h78.3V69.2z M11.3,68.8h77.4V58.3H11.3V68.8z"/>
	<rect x="10.2" y="56.8" class="st1" width="79.6" height="0.4"/>
	<rect x="10.2" y="31.9" class="st1" width="79.6" height="0.4"/>
	<rect x="11.3" y="66.7" class="st1" width="35.4" height="0.4"/>
	<rect x="53" y="66.7" class="st1" width="28.5" height="0.4"/>
	<rect x="85.9" y="66.7" class="st1" width="3.1" height="0.4"/>
	<rect x="49.6" y="61.5" class="st1" width="0.4" height="7.3"/>
</g>
</svg>
