<?xml version="1.0" encoding="utf-8"?>
<!-- Generator: Adobe Illustrator 25.4.1, SVG Export Plug-In . SVG Version: 6.00 Build 0)  -->
<svg version="1.1" id="pl-kk" width="100" height="100" width="100" height="100" xmlns="http://www.w3.org/2000/svg" xmlns:xlink="http://www.w3.org/1999/xlink" x="0px" y="0px"
	 viewBox="0 0 100 100" style="enable-background:new 0 0 100 100;" xml:space="preserve">
<style type="text/css">
	.st0{fill:#2D2E82;}
	.st1{fill:#FFFFFF;}
</style>
<circle class="st0" cx="50" cy="50" r="50"/>
<g>
	<path class="st1" d="M46.1,35.8H33.5l0-12l6.3-13.4l6.3,13.5V35.8z M33.9,35.3h11.7V23.9l-5.9-12.5l-5.9,12.5V35.3z"/>
	<polygon class="st1" points="45.8,35.7 41.6,33.6 41.6,22.7 45.9,23.7 45.8,24.1 42,23.2 42,33.4 46,35.3 	"/>
	<polygon class="st1" points="33.8,35.7 33.6,35.3 37.5,33.4 37.5,23.2 33.8,24.1 33.7,23.7 38,22.7 38,33.6 	"/>
	<rect x="37.8" y="33.3" class="st1" width="4.1" height="0.4"/>
	<rect x="37.8" y="22.7" class="st1" width="4.1" height="0.4"/>
	<path class="st1" d="M40.7,33.6H39v-7.2c0-0.5,0.4-0.9,0.9-0.9c0.5,0,0.9,0.4,0.9,0.9V33.6z M39.4,33.2h0.9v-6.8
		c0-0.2-0.2-0.4-0.4-0.4c-0.2,0-0.4,0.2-0.4,0.4V33.2z"/>
	<path class="st1" d="M40.7,45.9H39v-6.2c0-0.5,0.4-0.9,0.9-0.9c0.5,0,0.9,0.4,0.9,0.9V45.9z M39.4,45.4h0.9v-5.8
		c0-0.2-0.2-0.4-0.4-0.4c-0.2,0-0.4,0.2-0.4,0.4V45.4z"/>
	<path class="st1" d="M40.7,58.1H39v-6.2c0-0.5,0.4-0.9,0.9-0.9c0.5,0,0.9,0.4,0.9,0.9V58.1z M39.4,57.6h0.9v-5.8
		c0-0.2-0.2-0.4-0.4-0.4c-0.2,0-0.4,0.2-0.4,0.4V57.6z"/>
	<path class="st1" d="M44.7,35.2L43,34.2v-7.1c0-0.5,0.4-0.9,0.9-0.9c0.5,0,0.9,0.4,0.9,0.9V35.2z M43.4,34l0.8,0.5v-7.3
		c0-0.2-0.2-0.4-0.4-0.4c-0.2,0-0.4,0.2-0.4,0.4V34z"/>
	<path class="st1" d="M34.9,35.2v-8.1c0-0.5,0.4-0.9,0.9-0.9c0.5,0,0.9,0.4,0.9,0.9v7.1L34.9,35.2z M35.8,26.7
		c-0.2,0-0.4,0.2-0.4,0.4v7.3l0.9-0.5v-6.9C36.2,26.8,36,26.7,35.8,26.7z"/>
	<rect x="32.2" y="36.1" class="st1" width="15.1" height="0.4"/>
	<path class="st1" d="M47.4,61.2H32.6V36.9h14.8V61.2z M33,60.7h13.9V37.4H33V60.7z"/>
	<path class="st1" d="M47.4,87.2H32.6V60.7h14.8V87.2z M33,86.7h13.9V61.2H33V86.7z"/>
	<path class="st1" d="M41.9,81.7h-4.1V74c0-1.1,0.6-2.1,1.6-2.6l0.4-0.2l0.4,0.2c1,0.5,1.6,1.5,1.6,2.6V81.7z M38.3,81.3h3.2V74
		c0-0.9-0.5-1.8-1.4-2.2l-0.2-0.1l-0.2,0.1c-0.8,0.4-1.4,1.3-1.4,2.2V81.3z"/>
	<g>
		<path class="st1" d="M58.1,52.3h-1.4v-4.5c0-0.4,0.3-0.7,0.7-0.7c0.4,0,0.7,0.3,0.7,0.7V52.3z M57.1,51.9h0.5v-4
			c0-0.2-0.1-0.3-0.3-0.3c-0.2,0-0.3,0.1-0.3,0.3V51.9z"/>
		<path class="st1" d="M59.7,52.6l-1.4-0.3v-4.4c0-0.4,0.3-0.7,0.7-0.7c0.4,0,0.7,0.3,0.7,0.7V52.6z M58.7,51.9l0.5,0.1v-4.2
			c0-0.2-0.1-0.3-0.3-0.3s-0.3,0.1-0.3,0.3V51.9z"/>
		<path class="st1" d="M55.2,52.6v-4.7c0-0.4,0.3-0.7,0.7-0.7c0.4,0,0.7,0.3,0.7,0.7v4.4L55.2,52.6z M55.9,47.6
			c-0.2,0-0.3,0.1-0.3,0.3V52l0.5-0.1v-4.1C56.1,47.7,56,47.6,55.9,47.6z"/>
		<path class="st1" d="M67.8,87.2H47V72.3h20.7V87.2z M47.5,86.7h19.9v-14H47.5V86.7z"/>
		<path class="st1" d="M66.1,64.5H48.6v-3.9c0-4.8,3.9-8.7,8.7-8.7s8.7,3.9,8.7,8.7V64.5z M49.1,64.1h16.6v-3.5
			c0-4.6-3.7-8.3-8.3-8.3s-8.3,3.7-8.3,8.3V64.1z"/>
		<path class="st1" d="M54.1,64.3h-0.4v-7.2c0-1.7,0.5-3.4,1.5-4.8l0.4,0.2c-0.9,1.4-1.4,2.9-1.4,4.6V64.3z"/>
		<path class="st1" d="M61,64.3h-0.4v-7.2c0-1.7-0.5-3.5-1.4-4.8l0.4-0.2c0.9,1.4,1.5,3.3,1.5,5V64.3z"/>
		<path class="st1" d="M59.6,46.7h-4.5v-0.2c0-1.2,1-2.3,2.3-2.3s2.3,1,2.3,2.3V46.7z M55.6,46.3h3.6c-0.1-0.9-0.9-1.6-1.8-1.6
			C56.5,44.7,55.7,45.4,55.6,46.3z"/>
		<path class="st1" d="M67.8,66.5H47v-2.4h20.7V66.5z M47.5,66.1h19.9v-1.5H47.5V66.1z"/>
		<path class="st1" d="M54.2,72.8H47v-6.7h7.2V72.8z M47.5,72.3h6.3v-5.8h-6.3V72.3z"/>
		<path class="st1" d="M61,72.8h-7.2v-6.7H61V72.8z M54.2,72.3h6.3v-5.8h-6.3V72.3z"/>
		<path class="st1" d="M67.8,72.8h-7.2v-6.7h7.2V72.8z M61,72.3h6.3v-5.8H61V72.3z"/>
		<path class="st1" d="M57.4,71.8c-1.3,0-2.4-1.1-2.4-2.4s1.1-2.4,2.4-2.4c1.3,0,2.4,1.1,2.4,2.4S58.7,71.8,57.4,71.8z M57.4,67.5
			c-1.1,0-1.9,0.9-1.9,1.9s0.9,1.9,1.9,1.9c1.1,0,1.9-0.9,1.9-1.9S58.5,67.5,57.4,67.5z"/>
		<path class="st1" d="M64.2,71.8c-1.3,0-2.4-1.1-2.4-2.4s1.1-2.4,2.4-2.4s2.4,1.1,2.4,2.4S65.5,71.8,64.2,71.8z M64.2,67.5
			c-1.1,0-1.9,0.9-1.9,1.9s0.9,1.9,1.9,1.9c1.1,0,1.9-0.9,1.9-1.9S65.2,67.5,64.2,67.5z"/>
		<path class="st1" d="M50.6,71.8c-1.3,0-2.4-1.1-2.4-2.4s1.1-2.4,2.4-2.4s2.4,1.1,2.4,2.4S51.9,71.8,50.6,71.8z M50.6,67.5
			c-1.1,0-1.9,0.9-1.9,1.9s0.9,1.9,1.9,1.9c1.1,0,1.9-0.9,1.9-1.9S51.7,67.5,50.6,67.5z"/>
		<polygon class="st1" points="59.6,52.3 59.2,52.3 59.2,46.7 55.6,46.7 55.6,52.3 55.2,52.3 55.2,46.3 59.6,46.3 		"/>
		<rect x="53.8" y="72.6" class="st1" width="0.4" height="14.3"/>
		<rect x="60.6" y="72.6" class="st1" width="0.4" height="14.3"/>
		<path class="st1" d="M50.6,77l-3-1.8l3-1.8l3,1.8L50.6,77z M48.4,75.2l2.2,1.3l2.2-1.3l-2.2-1.3L48.4,75.2z"/>
		<path class="st1" d="M50.6,86.1l-3-1.8l3-1.8l3,1.8L50.6,86.1z M48.4,84.2l2.2,1.3l2.2-1.3l-2.2-1.3L48.4,84.2z"/>
		<path class="st1" d="M53.4,81.4h-5.6V78h5.6V81.4z M48.3,81H53v-2.6h-4.7V81z"/>
		<path class="st1" d="M57.3,77l-3-1.8l3-1.8l3,1.8L57.3,77z M55.2,75.2l2.2,1.3l2.2-1.3l-2.2-1.3L55.2,75.2z"/>
		<path class="st1" d="M57.3,86.1l-3-1.8l3-1.8l3,1.8L57.3,86.1z M55.2,84.2l2.2,1.3l2.2-1.3l-2.2-1.3L55.2,84.2z"/>
		<path class="st1" d="M60.2,81.4h-5.6V78h5.6V81.4z M55,81h4.7v-2.6H55V81z"/>
		<path class="st1" d="M64.1,77l-3-1.8l3-1.8l3,1.8L64.1,77z M61.9,75.2l2.2,1.3l2.2-1.3l-2.2-1.3L61.9,75.2z"/>
		<path class="st1" d="M64.1,86.1l-3-1.8l3-1.8l3,1.8L64.1,86.1z M61.9,84.2l2.2,1.3l2.2-1.3l-2.2-1.3L61.9,84.2z"/>
		<path class="st1" d="M66.9,81.4h-5.6V78h5.6V81.4z M61.8,81h4.7v-2.6h-4.7V81z"/>
		<rect x="57.2" y="38.2" class="st1" width="0.4" height="6"/>
		<rect x="56.5" y="39.5" class="st1" width="1.8" height="0.4"/>
	</g>
	<rect x="39.6" y="7.6" class="st1" width="0.4" height="3.3"/>
	<path class="st1" d="M39.9,9.9h-2.3L38.3,9l-0.6-0.9h2.3V9.9z M38.5,9.5h1V8.5h-1L38.8,9L38.5,9.5z"/>
</g>
</svg>
