<?xml version="1.0" encoding="utf-8"?>
<!-- Generator: Adobe Illustrator 25.4.1, SVG Export Plug-In . SVG Version: 6.00 Build 0)  -->
<svg version="1.1" id="Layer_1" xmlns="http://www.w3.org/2000/svg" xmlns:xlink="http://www.w3.org/1999/xlink" x="0px" y="0px"
	 viewBox="0 0 100 100" style="enable-background:new 0 0 100 100;" xml:space="preserve">
<style type="text/css">
	.st0{fill:#2D2E82;}
	.st1{fill:#FFFFFF;}
</style>
<circle class="st0" cx="50" cy="50" r="50"/>
<g>
	<path class="st1" d="M70.8,80.5H29.2V47h41.6V80.5z M29.7,79.9h40.5V47.5H29.7V79.9z"/>
	<path class="st1" d="M71.7,44.5H28.3v-3.3h43.5V44.5z M28.8,43.9h42.4v-2.2H28.8V43.9z"/>
	<g>
		<path class="st1" d="M39.5,40.1h-2.9v-10h2.9V40.1z M37.2,39.5h1.7v-8.7h-1.7V39.5z"/>
		<path class="st1" d="M35.5,40.1h-1.9V39c0-0.6,0-1.2-0.1-1.7l-0.1-1l0.3-0.2c0.4-0.2,0.7-0.5,1-0.9l0.9-1.1V40.1z M34.2,39.5h0.7
			v-3.7c-0.3,0.3-0.6,0.5-0.9,0.7l0.1,0.6c0.1,0.6,0.1,1.2,0.1,1.8V39.5z"/>
		<path class="st1" d="M43.5,40.1h-2.9v-10h2.9V40.1z M41.2,39.5h1.7v-8.7h-1.7V39.5z"/>
		<path class="st1" d="M46.5,39h-1.9v-7.2h1.9V39z M45.2,38.4h0.6v-5.9h-0.6V38.4z"/>
		<path class="st1" d="M31,40.5c-1.3,0-2.2-1-2.2-2.4c0-1.4,1.3-2.4,2.9-2.4v0.6c-1.3,0-2.3,0.8-2.3,1.8c0,0.8,0.5,1.7,1.5,1.7
			c0.8,0,1.4-0.6,1.4-1.4c0-0.6-0.5-1-1-1c-0.4,0-0.9,0.3-0.9,0.8c0,0.4,0.3,0.7,0.6,0.7c0.2,0,0.4-0.2,0.4-0.4
			c0-0.1-0.1-0.2-0.2-0.2v-0.6c0.5,0,0.9,0.4,0.9,0.9c0,0.5-0.5,1-1.1,1c-0.7,0-1.2-0.6-1.2-1.3c0-0.9,0.8-1.5,1.5-1.5
			c0.9,0,1.7,0.8,1.7,1.7C33.1,39.6,32.2,40.5,31,40.5z"/>
		<path class="st1" d="M31.5,36.2L31,35.8l0.5-0.5c0.2-0.2,0.5-0.4,0.8-0.6l0,0c0.6-0.4,1.1-2.2,1.4-3.1c0.1-0.2,0.1-0.4,0.2-0.6
			l0.3-0.8H50v0.6H34.6l-0.1,0.3c-0.1,0.2-0.1,0.4-0.2,0.6c-0.5,1.6-1,3-1.7,3.5l0,0c-0.2,0.2-0.5,0.3-0.7,0.5L31.5,36.2z"/>
	</g>
	<g>
		<path class="st1" d="M63.3,40.1h-2.9v-10h2.9V40.1z M61,39.5h1.7v-8.7H61V39.5z"/>
		<path class="st1" d="M66.3,40.1h-1.9V34l0.9,1.1c0.3,0.3,0.6,0.6,1,0.9l0.3,0.2l-0.1,1c-0.1,0.6-0.1,1.2-0.1,1.7V40.1z M65,39.5
			h0.7V39c0-0.6,0-1.2,0.1-1.8l0.1-0.6c-0.3-0.2-0.6-0.5-0.9-0.7V39.5z"/>
		<path class="st1" d="M59.3,40.1h-2.9v-10h2.9V40.1z M57,39.5h1.7v-8.7H57V39.5z"/>
		<path class="st1" d="M55.3,39h-1.9v-7.2h1.9V39z M54.1,38.4h0.6v-5.9h-0.6V38.4z"/>
		<path class="st1" d="M68.9,40.5c-1.1,0-2-0.9-2-2c0-0.9,0.8-1.7,1.7-1.7c0.7,0,1.5,0.6,1.5,1.5c0,0.7-0.5,1.3-1.2,1.3
			c-0.6,0-1.1-0.5-1.1-1c0-0.5,0.4-0.9,0.9-0.9v0.6c-0.1,0-0.2,0.1-0.2,0.2c0,0.2,0.2,0.4,0.4,0.4c0.3,0,0.6-0.2,0.6-0.7
			c0-0.5-0.5-0.8-0.9-0.8c-0.6,0-1,0.5-1,1c0,0.8,0.6,1.4,1.4,1.4c1.1,0,1.5-0.9,1.5-1.7c0-1-1-1.8-2.3-1.8v-0.6
			c1.7,0,2.9,1,2.9,2.4C71.1,39.5,70.1,40.5,68.9,40.5z"/>
		<path class="st1" d="M68.5,36.2l-0.5-0.5c-0.2-0.2-0.4-0.4-0.7-0.5l0,0c-0.7-0.5-1.2-1.9-1.7-3.5c-0.1-0.2-0.1-0.4-0.2-0.6
			l-0.1-0.3H49.9v-0.6h15.8l0.3,0.8c0.1,0.2,0.1,0.4,0.2,0.6c0.3,1,0.8,2.8,1.4,3.1l0,0c0.3,0.2,0.5,0.4,0.8,0.6l0.5,0.5L68.5,36.2z
			"/>
	</g>
	<path class="st1" d="M52.4,39h-4.8v-6.3l0.7-0.2c1.1-0.4,2.3-0.4,3.4,0l0.7,0.2V39z M48.2,38.4h3.6v-5.2L51.5,33c-1-0.3-2-0.3-3,0
		l-0.3,0.1V38.4z"/>
	<rect x="28.6" y="44.9" class="st1" width="42.6" height="0.5"/>
	<rect x="29.1" y="45.9" class="st1" width="41.5" height="0.5"/>
	<rect x="33.4" y="27.9" class="st1" width="33" height="0.5"/>
	<rect x="34" y="28.9" class="st1" width="31.9" height="0.5"/>
	<rect x="33.4" y="25.8" class="st1" width="33" height="0.5"/>
	<rect x="32.9" y="24.7" class="st1" width="34.1" height="0.5"/>
	<rect x="34" y="26.8" class="st1" width="31.9" height="0.5"/>
	<g>
		<path class="st1" d="M46.9,24.2h-2.2v-5.4h2.2V24.2z M45.3,23.7h1.1v-4.3h-1.1V23.7z"/>
		<path class="st1" d="M55.1,24.2h-2.2v-5.4h2.2V24.2z M53.4,23.7h1.1v-4.3h-1.1V23.7z"/>
	</g>
	<path class="st1" d="M56.6,17.7H43.2l6.7-3.7L56.6,17.7z M45.3,17.2h9.2l-4.6-2.6L45.3,17.2z"/>
	<rect x="43.8" y="18" class="st1" width="12.2" height="0.5"/>
	<path class="st1" d="M40.4,23.7l-0.3-0.5l0.1,0c1.4-0.9,2.7-2.7,3.7-4.2l0.1-0.2l0.4,0.3l-0.1,0.2C43.3,20.8,42,22.7,40.4,23.7
		L40.4,23.7z"/>
	<path class="st1" d="M59.4,23.7L59.4,23.7c-1.6-1-2.9-2.9-3.9-4.4l-0.1-0.2l0.4-0.3L56,19c1,1.5,2.2,3.3,3.7,4.2l0.1,0L59.4,23.7z"
		/>
	<path class="st1" d="M51,22.1h-2v-1.4h2V22.1z M49.5,21.6h0.9v-0.4h-0.9V21.6z"/>
	<g>
		<path class="st1" d="M35.8,23.9c-0.6,0-1-0.3-1-0.6s0.4-0.6,1-0.6c0.6,0,1,0.3,1,0.6S36.4,23.9,35.8,23.9z M35.4,23.3
			c0.1,0,0.2,0.1,0.4,0.1c0.2,0,0.3-0.1,0.4-0.1c-0.1,0-0.2-0.1-0.4-0.1C35.6,23.2,35.5,23.3,35.4,23.3z"/>
		<rect x="35.6" y="24.4" class="st1" width="0.5" height="0.5"/>
		<path class="st1" d="M35.8,24.6c-0.5,0-0.9-0.5-0.9-1.1h0.5c0,0.3,0.2,0.5,0.4,0.5s0.4-0.2,0.4-0.5h0.5
			C36.8,24.1,36.3,24.6,35.8,24.6z"/>
	</g>
	<g>
		<path class="st1" d="M64,23.9c-0.6,0-1-0.3-1-0.6s0.4-0.6,1-0.6s1,0.3,1,0.6S64.5,23.9,64,23.9z M63.6,23.3c0.1,0,0.2,0.1,0.4,0.1
			c0.2,0,0.3-0.1,0.4-0.1c-0.1,0-0.2-0.1-0.4-0.1C63.8,23.2,63.6,23.3,63.6,23.3z"/>
		<rect x="63.7" y="24.4" class="st1" width="0.5" height="0.5"/>
		<path class="st1" d="M63.9,24.6c-0.5,0-0.9-0.5-0.9-1.1h0.5c0,0.3,0.2,0.5,0.4,0.5c0.2,0,0.4-0.2,0.4-0.5h0.5
			C64.9,24.1,64.5,24.6,63.9,24.6z"/>
	</g>
	<g>
		<path class="st1" d="M49.9,13.4c-0.6,0-1-0.3-1-0.6c0-0.4,0.4-0.6,1-0.6c0.6,0,1,0.3,1,0.6C50.9,13.1,50.5,13.4,49.9,13.4z
			 M49.5,12.8c0.1,0,0.2,0.1,0.4,0.1s0.3-0.1,0.4-0.1c-0.1,0-0.2-0.1-0.4-0.1S49.6,12.7,49.5,12.8z"/>
		<rect x="49.6" y="13.8" class="st1" width="0.5" height="0.5"/>
		<path class="st1" d="M49.9,14c-0.5,0-0.9-0.5-0.9-1.1h0.5c0,0.3,0.2,0.5,0.4,0.5c0.2,0,0.4-0.2,0.4-0.5h0.5
			C50.8,13.5,50.4,14,49.9,14z"/>
	</g>
	<rect x="29.5" y="61.5" class="st1" width="41" height="0.5"/>
	<g>
		<g>
			<path class="st1" d="M46.1,58.5h-7.3v-8.9h7.3V58.5z M39.3,57.9h6.2v-7.8h-6.2V57.9z"/>
			<g>
				<rect x="39.8" y="49.9" class="st1" width="0.5" height="8.2"/>
				<rect x="44.6" y="49.9" class="st1" width="0.5" height="8.2"/>
			</g>
			<g>
				<rect x="39.1" y="51.7" class="st1" width="6.8" height="0.5"/>
				<rect x="39.1" y="53.8" class="st1" width="6.8" height="0.5"/>
				<rect x="39.1" y="55.8" class="st1" width="6.8" height="0.5"/>
			</g>
		</g>
		<g>
			<path class="st1" d="M61.2,58.5h-7.3v-8.9h7.3V58.5z M54.4,57.9h6.2v-7.8h-6.2V57.9z"/>
			<g>
				<rect x="54.9" y="49.9" class="st1" width="0.5" height="8.2"/>
				<rect x="59.6" y="49.9" class="st1" width="0.5" height="8.2"/>
			</g>
			<g>
				<rect x="54.1" y="51.7" class="st1" width="6.8" height="0.5"/>
				<rect x="54.1" y="53.8" class="st1" width="6.8" height="0.5"/>
				<rect x="54.1" y="55.8" class="st1" width="6.8" height="0.5"/>
			</g>
		</g>
	</g>
	<g>
		<g>
			<path class="st1" d="M46.1,76.4h-7.3v-8.9h7.3V76.4z M39.3,75.8h6.2V68h-6.2V75.8z"/>
			<g>
				<rect x="39.8" y="67.8" class="st1" width="0.5" height="8.2"/>
				<rect x="44.6" y="67.8" class="st1" width="0.5" height="8.2"/>
			</g>
			<g>
				<rect x="39.1" y="69.6" class="st1" width="6.8" height="0.5"/>
				<rect x="39.1" y="71.7" class="st1" width="6.8" height="0.5"/>
				<rect x="39.1" y="73.7" class="st1" width="6.8" height="0.5"/>
			</g>
		</g>
		<g>
			<path class="st1" d="M61.2,76.4h-7.3v-8.9h7.3V76.4z M54.4,75.8h6.2V68h-6.2V75.8z"/>
			<g>
				<rect x="54.9" y="67.8" class="st1" width="0.5" height="8.2"/>
				<rect x="59.6" y="67.8" class="st1" width="0.5" height="8.2"/>
			</g>
			<g>
				<rect x="54.1" y="69.6" class="st1" width="6.8" height="0.5"/>
				<rect x="54.1" y="71.7" class="st1" width="6.8" height="0.5"/>
				<rect x="54.1" y="73.7" class="st1" width="6.8" height="0.5"/>
			</g>
		</g>
	</g>
</g>
</svg>
