<?xml version="1.0" encoding="utf-8"?>
<!-- Generator: Adobe Illustrator 25.4.1, SVG Export Plug-In . SVG Version: 6.00 Build 0)  -->
<svg version="1.1" id="Layer_1" xmlns="http://www.w3.org/2000/svg" xmlns:xlink="http://www.w3.org/1999/xlink" x="0px" y="0px"
	 viewBox="0 0 100 100" style="enable-background:new 0 0 100 100;" xml:space="preserve">
<style type="text/css">
	.st0{fill:#2D2E82;}
	.st1{fill:#FFFFFF;}
</style>
<circle class="st0" cx="50" cy="50" r="50"/>
<g>
	<path class="st1" d="M67.4,82.5H32.6v-38l0.1-0.1c5.9-5.9,17-28.4,17.1-28.7l0.2-0.4l0.2,0.4c0.1,0.2,11.1,22.7,17.1,28.7l0.1,0.1
		V82.5z M33.1,82h33.8V44.7C61.3,39,51.6,19.5,50,16.4c-1.6,3.2-11.4,22.7-16.9,28.3V82z"/>
	<path class="st1" d="M53.8,36h-7.6v-5.4c0-2.1,1.7-3.8,3.8-3.8c2.1,0,3.8,1.7,3.8,3.8V36z M46.7,35.6h6.7v-5c0-1.8-1.5-3.3-3.3-3.3
		s-3.3,1.5-3.3,3.3V35.6z"/>
	<g>
		<path class="st1" d="M55.5,56.8h-11v-3.5c0-2.9,2.4-5.3,5.3-5.3h0.5c2.9,0,5.3,2.4,5.3,5.3V56.8z M44.9,56.4h10.1v-3
			c0-2.7-2.2-4.8-4.8-4.8h-0.5c-2.7,0-4.8,2.2-4.8,4.8V56.4z"/>
		<path class="st1" d="M54,55h-8v-1.7c0-2.2,1.8-4,4-4H50c2.2,0,4,1.8,4,4V55z M46.4,54.5h7.1v-1.2c0-1.9-1.6-3.5-3.5-3.5H50
			c-1.9,0-3.5,1.6-3.5,3.5V54.5z"/>
		<rect x="44.3" y="55.5" transform="matrix(0.6332 -0.774 0.774 0.6332 -26.4288 55.612)" class="st1" width="2.4" height="0.5"/>
		
			<rect x="54.3" y="54.5" transform="matrix(0.7741 -0.6331 0.6331 0.7741 -22.9362 47.105)" class="st1" width="0.5" height="2.4"/>
	</g>
	<path class="st1" d="M49.9,24.3c-0.6,0-1.1-0.5-1.1-1.1c0-0.6,0.5-1.1,1.1-1.1s1.1,0.5,1.1,1.1C51,23.8,50.5,24.3,49.9,24.3z
		 M49.9,22.6c-0.3,0-0.6,0.3-0.6,0.6c0,0.3,0.3,0.6,0.6,0.6s0.6-0.3,0.6-0.6C50.5,22.9,50.2,22.6,49.9,22.6z"/>
	<g>
		<g>
			<path class="st1" d="M41.2,57h-5.5v-2h5.5V57z M36.2,56.5h4.6v-1.1h-4.6V56.5z"/>
			<path class="st1" d="M41.2,82.4h-5.5V56.5h5.5V82.4z M36.2,81.9h4.6V57h-4.6V81.9z"/>
		</g>
		<g>
			<path class="st1" d="M64.3,57h-5.5v-2h5.5V57z M59.2,56.5h4.6v-1.1h-4.6V56.5z"/>
			<path class="st1" d="M64.3,82.4h-5.5V56.5h5.5V82.4z M59.2,81.9h4.6V57h-4.6V81.9z"/>
		</g>
	</g>
	<path class="st1" d="M61.7,46.9h-4.2v-2.1h4.2V46.9z M58,46.4h3.2v-1.1H58V46.4z"/>
	<path class="st1" d="M63,45.3h-4.2v-2.1H63V45.3z M59.3,44.8h3.2v-1.1h-3.2V44.8z"/>
	<path class="st1" d="M64.1,48.6h-4.2v-2.1h4.2V48.6z M60.3,48.1h3.2V47h-3.2V48.1z"/>
	<rect x="49.8" y="11.7" class="st1" width="0.5" height="4.1"/>
	<rect x="48.3" y="13.1" class="st1" width="3.5" height="0.5"/>
</g>
</svg>
