<?xml version="1.0" encoding="utf-8"?>
<!-- Generator: Adobe Illustrator 25.4.1, SVG Export Plug-In . SVG Version: 6.00 Build 0)  -->
<svg version="1.1" id="pl-wtm" width="100" height="100" xmlns="http://www.w3.org/2000/svg" xmlns:xlink="http://www.w3.org/1999/xlink" x="0px" y="0px"
	 viewBox="0 0 100 100" style="enable-background:new 0 0 100 100;" xml:space="preserve">
<style type="text/css">
	.st0{fill:#2D2E82;}
	.st1{fill:#FFFFFF;}
</style>
<circle class="st0" cx="50" cy="50" r="50"/>
<g>
	<path class="st1" d="M45.1,66.7h-5.8V35.3h5.8V66.7z M39.8,66.2h4.8V35.8h-4.8V66.2z"/>
	<rect x="39.5" y="44.5" class="st1" width="5.3" height="0.5"/>
	<rect x="39.5" y="53.8" class="st1" width="5.3" height="0.5"/>
	<path class="st1" d="M60.7,66.7H55V35.3h5.8V66.7z M55.4,66.2h4.8V35.8h-4.8V66.2z"/>
	<rect x="55.2" y="44.5" class="st1" width="5.3" height="0.5"/>
	<rect x="55.2" y="53.8" class="st1" width="5.3" height="0.5"/>
	<path class="st1" d="M61.1,35.8H38.9v-6.6h3.6v2.8h1v-2.8h3.6v2.8h1v-2.8h3.6v2.8h1v-2.8h3.6v2.8h1v-2.8h3.6V35.8z M39.4,35.3h21.3
		v-5.6H58v2.8h-2v-2.8h-2.7v2.8h-2v-2.8h-2.7v2.8h-2v-2.8H44v2.8h-2v-2.8h-2.7V35.3z"/>
	<path class="st1" d="M52.8,66.7h-5.6v-9.5c0-1.9,1-3.6,2.6-4.6l0.2-0.1l0.2,0.1c1.6,1,2.6,2.7,2.6,4.6V66.7z M47.7,66.2h4.6v-9.1
		c0-1.7-0.9-3.3-2.3-4.2c-1.4,0.9-2.3,2.5-2.3,4.2V66.2z"/>
	<path class="st1" d="M52.5,47h-5v-6.1l2.5-1.7l2.5,1.7V47z M48,46.5h4v-5.3l-2-1.4l-2,1.4V46.5z"/>
	<rect x="49.8" y="39.6" class="st1" width="0.5" height="7.2"/>
	<rect x="48" y="42" class="st1" width="4.3" height="0.5"/>
	<rect x="48" y="44.4" class="st1" width="4.3" height="0.5"/>
	<g>
		<path class="st1" d="M87.1,49.5H60.2V45h3.6v2.8h1V45h3.6v2.8h1V45h3.6l0,0.2v2.6h1V45h3.6l0,0.2v2.6h1V45h3.7v2.8h1V45h3.6V49.5z
			 M60.7,49.1h25.9v-3.6H84v2.8h-1.9v-2.8h-2.7v2.8h-1.9v-2.8h-2.7v2.8h-1.9v-2.8H70v2.8h-2v-2.8h-2.7v2.8h-2v-2.8h-2.7V49.1z"/>
		<g>
			<path class="st1" d="M76.5,66.7h-5.6v-9.5c0-1.9,1-3.6,2.6-4.6l0.2-0.1l0.2,0.1c1.6,1,2.6,2.7,2.6,4.6V66.7z M71.4,66.2H76v-9.1
				c0-1.7-0.9-3.3-2.3-4.2c-1.4,0.9-2.3,2.5-2.3,4.2V66.2z"/>
			<path class="st1" d="M70.4,66.7h-3.9v-9.5c0-1.9,0.7-3.6,1.8-4.6l0,0l0.2-0.1l0.2,0.2c1.1,1,1.8,2.7,1.8,4.6V66.7z M66.9,66.2h3
				v-9.1c0-1.7-0.6-3.2-1.5-4.1c-0.9,0.9-1.5,2.5-1.5,4.1V66.2z"/>
			<path class="st1" d="M81,66.7H77v-9.5c0-1.9,0.7-3.6,1.8-4.6l0,0l0.2-0.1l0.2,0.2c1.1,1,1.8,2.7,1.8,4.6V66.7z M77.5,66.2h3v-9.1
				c0-1.7-0.6-3.2-1.5-4.1c-0.9,0.9-1.5,2.5-1.5,4.1V66.2z"/>
		</g>
		<polygon class="st1" points="87.2,66.6 86.7,66.6 86.7,50.6 60.5,50.6 60.5,50.1 87.2,50.1 		"/>
		<path class="st1" d="M68.7,44.4h-3.8v-1.3c0-0.7,0.2-1.5,0.6-2.1l1.4-2.4l1.4,2.4c0.4,0.6,0.6,1.4,0.6,2.1V44.4z M65.3,43.9h2.9
			v-0.8c0-0.6-0.2-1.3-0.5-1.9v0l-0.9-1.6l-0.9,1.6c-0.3,0.6-0.5,1.2-0.5,1.9V43.9z"/>
		<path class="st1" d="M66.7,44.3C66.7,44.3,66.7,44.2,66.7,44.3c-0.2,0-0.2-0.1-0.2-0.2v-4.8H67v3.6l0.7-1.7l0.4,0.2L67,44.1
			C66.9,44.2,66.8,44.3,66.7,44.3z"/>
		
			<rect x="65.9" y="41.1" transform="matrix(0.9284 -0.3716 0.3716 0.9284 -11.0882 27.6413)" class="st1" width="0.5" height="3.1"/>
	</g>
	<g>
		<path class="st1" d="M39.8,49.5H12.9V45h3.6v2.8h1V45h3.6l0,0.2v2.6h1V45h3.6l0,0.2v2.6h1V45h3.7v2.8h1V45h3.6v2.8h1V45h3.6V49.5z
			 M13.3,49.1h25.9v-3.6h-2.7v2.8h-2v-2.8H32v2.8h-2v-2.8h-2.7v2.8h-1.9v-2.8h-2.7v2.8h-1.9v-2.8h-2.7v2.8H16v-2.8h-2.7V49.1z"/>
		<polygon class="st1" points="13.3,66.6 12.8,66.6 12.8,50.1 39.5,50.1 39.5,50.6 13.3,50.6 		"/>
		<path class="st1" d="M35.2,44.4h-3.8v-1.3c0-0.7,0.2-1.5,0.6-2.1l1.4-2.4l1.4,2.4c0.4,0.6,0.6,1.4,0.6,2.1V44.4z M31.8,43.9h2.9
			v-0.8c0-0.6-0.2-1.3-0.5-1.9l-0.9-1.6l-0.9,1.6c-0.3,0.6-0.5,1.2-0.5,1.9V43.9z"/>
		<path class="st1" d="M33.3,44.3c-0.1,0-0.2-0.1-0.2-0.1l-1.2-2.8l0.4-0.2l0.7,1.7v-3.6h0.5V44C33.5,44.1,33.4,44.2,33.3,44.3
			C33.3,44.2,33.3,44.3,33.3,44.3z"/>
		
			<rect x="32.3" y="42.3" transform="matrix(0.3714 -0.9285 0.9285 0.3714 -18.2772 58.1815)" class="st1" width="3.1" height="0.5"/>
		<path class="st1" d="M29.4,66.8h-6.3V53.3h6.3V66.8z M23.6,66.3h5.3V53.8h-5.3V66.3z"/>
	</g>
	<rect x="13" y="66.3" class="st1" width="74" height="0.5"/>
	<rect x="13.1" y="64.7" class="st1" width="10.2" height="0.5"/>
	<rect x="29.2" y="64.7" class="st1" width="10.2" height="0.5"/>
	<rect x="60.5" y="64.7" class="st1" width="6.1" height="0.5"/>
	<rect x="80.7" y="64.7" class="st1" width="6.1" height="0.5"/>
	<rect x="44.8" y="64.7" class="st1" width="2.7" height="0.5"/>
	<rect x="52.5" y="64.7" class="st1" width="2.7" height="0.5"/>
	<rect x="70.2" y="64.7" class="st1" width="1" height="0.5"/>
	<rect x="76.3" y="64.7" class="st1" width="1" height="0.5"/>
	<g>
		<rect x="47.5" y="34.8" class="st1" width="0.5" height="0.7"/>
		<rect x="48.4" y="34.8" class="st1" width="0.5" height="0.7"/>
		<rect x="49.3" y="34.8" class="st1" width="0.5" height="0.7"/>
		<rect x="50.2" y="34.8" class="st1" width="0.5" height="0.7"/>
		<rect x="51.1" y="34.8" class="st1" width="0.5" height="0.7"/>
		<rect x="52" y="34.8" class="st1" width="0.5" height="0.7"/>
	</g>
	<rect x="70.3" y="30.2" transform="matrix(0.3903 -0.9207 0.9207 0.3903 5.2154 89.983)" class="st1" width="0.5" height="21.7"/>
	
		<rect x="18.6" y="40.8" transform="matrix(0.9197 -0.3925 0.3925 0.9197 -13.7358 14.8667)" class="st1" width="21.7" height="0.5"/>
</g>
</svg>
