<?xml version="1.0" encoding="utf-8"?>
<!-- Generator: Adobe Illustrator 25.4.1, SVG Export Plug-In . SVG Version: 6.00 Build 0)  -->
<svg version="1.1" id="Layer_1" xmlns="http://www.w3.org/2000/svg" xmlns:xlink="http://www.w3.org/1999/xlink" x="0px" y="0px"
	 viewBox="0 0 100 100" style="enable-background:new 0 0 100 100;" xml:space="preserve">
<style type="text/css">
	.st0{fill:#2D2E82;}
	.st1{clip-path:url(#SVGID_00000031903462029632833630000004985147024660436923_);}
	.st2{fill:#FFFFFF;}
</style>
<circle class="st0" cx="50" cy="50" r="50"/>
<g>
	<defs>
		<circle id="SVGID_1_" cx="50" cy="50" r="47.6"/>
	</defs>
	<clipPath id="SVGID_00000009581946878266109480000017112330443076326568_">
		<use xlink:href="#SVGID_1_"  style="overflow:visible;"/>
	</clipPath>
	<g style="clip-path:url(#SVGID_00000009581946878266109480000017112330443076326568_);">
		<path class="st2" d="M129.9,62.9H-29.9V37.1h159.7V62.9z M-29.3,62.4h158.6V37.6H-29.3V62.4z"/>
		<g>
			<polygon class="st2" points="129.6,48.3 62,48.3 62,47.5 38,47.5 38,48.3 -29.6,48.3 -29.6,47.7 37.4,47.7 37.4,47 62.5,47 
				62.5,47.7 129.6,47.7 			"/>
			<g>
				<rect x="-29.6" y="39.4" class="st2" width="159.2" height="0.5"/>
				<rect x="-29.6" y="42.2" class="st2" width="159.2" height="0.5"/>
				<rect x="-29.6" y="45" class="st2" width="159.2" height="0.5"/>
				<rect x="-28.2" y="39.6" class="st2" width="0.5" height="8.4"/>
				<rect x="-26.4" y="39.6" class="st2" width="0.5" height="8.4"/>
				<rect x="-24.7" y="39.6" class="st2" width="0.5" height="8.4"/>
				<rect x="-22.9" y="39.6" class="st2" width="0.5" height="8.4"/>
				<rect x="-21.1" y="39.6" class="st2" width="0.5" height="8.4"/>
				<rect x="-19.3" y="39.6" class="st2" width="0.5" height="8.4"/>
				<rect x="-17.6" y="39.6" class="st2" width="0.5" height="8.4"/>
				<rect x="-15.8" y="39.6" class="st2" width="0.5" height="8.4"/>
				<rect x="-14" y="39.6" class="st2" width="0.5" height="8.4"/>
				<rect x="-12.3" y="39.6" class="st2" width="0.5" height="8.4"/>
				<rect x="-10.5" y="39.6" class="st2" width="0.5" height="8.4"/>
				<rect x="-8.7" y="39.6" class="st2" width="0.5" height="8.4"/>
				<rect x="-7" y="39.6" class="st2" width="0.5" height="8.4"/>
				<rect x="-5.2" y="39.6" class="st2" width="0.5" height="8.4"/>
				<rect x="-3.4" y="39.6" class="st2" width="0.5" height="8.4"/>
				<rect x="-1.7" y="39.6" class="st2" width="0.5" height="8.4"/>
				<rect x="0.1" y="39.6" class="st2" width="0.5" height="8.4"/>
				<rect x="1.9" y="39.6" class="st2" width="0.5" height="8.4"/>
				<rect x="3.6" y="39.6" class="st2" width="0.5" height="8.4"/>
				<rect x="5.4" y="39.6" class="st2" width="0.5" height="8.4"/>
				<rect x="7.2" y="39.6" class="st2" width="0.5" height="8.4"/>
				<rect x="8.9" y="39.6" class="st2" width="0.5" height="8.4"/>
				<rect x="10.7" y="39.6" class="st2" width="0.5" height="8.4"/>
				<rect x="12.5" y="39.6" class="st2" width="0.5" height="8.4"/>
				<rect x="14.3" y="39.6" class="st2" width="0.5" height="8.4"/>
				<rect x="16" y="39.6" class="st2" width="0.5" height="8.4"/>
				<rect x="17.8" y="39.6" class="st2" width="0.5" height="8.4"/>
				<rect x="19.6" y="39.6" class="st2" width="0.5" height="8.4"/>
				<rect x="21.3" y="39.6" class="st2" width="0.5" height="8.4"/>
				<rect x="23.1" y="39.6" class="st2" width="0.5" height="8.4"/>
				<rect x="24.9" y="39.6" class="st2" width="0.5" height="8.4"/>
				<rect x="26.6" y="39.6" class="st2" width="0.5" height="8.4"/>
				<rect x="28.4" y="39.6" class="st2" width="0.5" height="8.4"/>
				<rect x="30.2" y="39.6" class="st2" width="0.5" height="8.4"/>
				<rect x="31.9" y="39.6" class="st2" width="0.5" height="8.4"/>
				<rect x="33.7" y="39.6" class="st2" width="0.5" height="8.4"/>
				<rect x="35.5" y="39.6" class="st2" width="0.5" height="8.4"/>
				<rect x="37.2" y="39.6" class="st2" width="0.5" height="8.4"/>
				<rect x="39" y="39.6" class="st2" width="0.5" height="7.9"/>
				<rect x="40.8" y="39.6" class="st2" width="0.5" height="7.9"/>
				<rect x="42.5" y="39.6" class="st2" width="0.5" height="7.9"/>
				<rect x="44.3" y="39.6" class="st2" width="0.5" height="7.8"/>
				<rect x="46.1" y="39.6" class="st2" width="0.5" height="7.8"/>
				<rect x="47.9" y="39.6" class="st2" width="0.5" height="7.8"/>
				<rect x="49.6" y="39.6" class="st2" width="0.5" height="7.8"/>
				<rect x="51.4" y="39.6" class="st2" width="0.5" height="7.8"/>
				<rect x="53.2" y="39.6" class="st2" width="0.5" height="7.8"/>
				<rect x="54.9" y="39.6" class="st2" width="0.5" height="7.8"/>
				<rect x="56.7" y="39.6" class="st2" width="0.5" height="7.8"/>
				<rect x="58.5" y="39.6" class="st2" width="0.5" height="7.8"/>
				<rect x="60.2" y="39.6" class="st2" width="0.5" height="7.8"/>
				<rect x="62" y="39.6" class="st2" width="0.5" height="8.4"/>
				<rect x="63.8" y="39.6" class="st2" width="0.5" height="8.4"/>
				<rect x="65.5" y="39.6" class="st2" width="0.5" height="8.4"/>
				<rect x="67.3" y="39.6" class="st2" width="0.5" height="8.4"/>
				<rect x="69.1" y="39.6" class="st2" width="0.5" height="8.4"/>
				<rect x="70.8" y="39.6" class="st2" width="0.5" height="8.4"/>
				<rect x="72.6" y="39.6" class="st2" width="0.5" height="8.4"/>
				<rect x="74.4" y="39.6" class="st2" width="0.5" height="8.4"/>
				<rect x="76.2" y="39.6" class="st2" width="0.5" height="8.4"/>
				<rect x="77.9" y="39.6" class="st2" width="0.5" height="8.4"/>
				<rect x="79.7" y="39.6" class="st2" width="0.5" height="8.4"/>
				<rect x="81.5" y="39.6" class="st2" width="0.5" height="8.4"/>
				<rect x="83.2" y="39.6" class="st2" width="0.5" height="8.4"/>
				<rect x="85" y="39.6" class="st2" width="0.5" height="8.4"/>
				<rect x="86.8" y="39.6" class="st2" width="0.5" height="8.4"/>
				<rect x="88.5" y="39.6" class="st2" width="0.5" height="8.4"/>
				<rect x="90.3" y="39.6" class="st2" width="0.5" height="8.4"/>
				<rect x="92.1" y="39.6" class="st2" width="0.5" height="8.4"/>
				<rect x="93.8" y="39.6" class="st2" width="0.5" height="8.4"/>
				<rect x="95.6" y="39.6" class="st2" width="0.5" height="8.4"/>
				<rect x="97.4" y="39.6" class="st2" width="0.5" height="8.4"/>
				<rect x="99.1" y="39.6" class="st2" width="0.5" height="8.4"/>
				<rect x="100.9" y="39.6" class="st2" width="0.5" height="8.4"/>
				<rect x="102.7" y="39.6" class="st2" width="0.5" height="8.4"/>
				<rect x="104.4" y="39.6" class="st2" width="0.5" height="8.4"/>
				<rect x="106.2" y="39.6" class="st2" width="0.5" height="8.4"/>
				<rect x="108" y="39.6" class="st2" width="0.5" height="8.4"/>
				<rect x="109.8" y="39.6" class="st2" width="0.5" height="8.4"/>
				<rect x="111.5" y="39.6" class="st2" width="0.5" height="8.4"/>
				<rect x="113.3" y="39.6" class="st2" width="0.5" height="8.4"/>
				<rect x="115.1" y="39.6" class="st2" width="0.5" height="8.4"/>
				<rect x="116.8" y="39.6" class="st2" width="0.5" height="8.4"/>
				<rect x="118.6" y="39.6" class="st2" width="0.5" height="8.4"/>
				<rect x="120.4" y="39.6" class="st2" width="0.5" height="8.4"/>
				<rect x="122.1" y="39.6" class="st2" width="0.5" height="8.4"/>
				<rect x="123.9" y="39.6" class="st2" width="0.5" height="8.4"/>
				<rect x="125.7" y="39.6" class="st2" width="0.5" height="8.4"/>
				<rect x="127.4" y="39.6" class="st2" width="0.5" height="8.4"/>
			</g>
		</g>
		<rect x="-29.7" y="50.1" class="st2" width="159.2" height="0.5"/>
		<g>
			<g>
				<path class="st2" d="M48.9,57.2h-7v-7h7V57.2z M42.4,56.6h5.9v-5.9h-5.9V56.6z"/>
				<path class="st2" d="M58.3,57.2h-7v-7h7V57.2z M51.8,56.6h5.9v-5.9h-5.9V56.6z"/>
				<rect x="42.1" y="54.2" class="st2" width="6.4" height="0.5"/>
				<rect x="51.4" y="54.2" class="st2" width="6.4" height="0.5"/>
				<rect x="45.1" y="50.5" class="st2" width="0.5" height="6.4"/>
				<rect x="54.5" y="50.5" class="st2" width="0.5" height="6.4"/>
			</g>
			<rect x="48.6" y="56.6" class="st2" width="2.8" height="0.5"/>
			<g>
				
					<rect x="32.9" y="59.4" transform="matrix(0.8353 -0.5498 0.5498 0.8353 -26.5562 30.6627)" class="st2" width="10.1" height="0.5"/>
				
					<rect x="61.8" y="54.6" transform="matrix(0.5496 -0.8354 0.8354 0.5496 -21.8644 78.75)" class="st2" width="0.5" height="10.1"/>
				<rect x="34.9" y="61.4" class="st2" width="30.3" height="0.5"/>
				<rect x="36.3" y="60.5" class="st2" width="27.5" height="0.5"/>
				<rect x="37.6" y="59.5" class="st2" width="24.8" height="0.5"/>
				<rect x="39" y="58.6" class="st2" width="21.9" height="0.5"/>
				<rect x="40.5" y="57.6" class="st2" width="18.9" height="0.5"/>
			</g>
		</g>
		<g>
			<rect x="37.5" y="47.1" class="st2" width="0.5" height="3.3"/>
			<rect x="38.3" y="47.1" class="st2" width="0.5" height="3.3"/>
			<rect x="39.1" y="47.1" class="st2" width="0.5" height="3.3"/>
			<rect x="40" y="47.1" class="st2" width="0.5" height="3.3"/>
			<rect x="40.8" y="47.1" class="st2" width="0.5" height="3.3"/>
			<rect x="41.7" y="47.1" class="st2" width="0.5" height="3.3"/>
			<rect x="42.5" y="47.1" class="st2" width="0.5" height="3.3"/>
			<rect x="43.4" y="47.1" class="st2" width="0.5" height="3.3"/>
			<rect x="44.2" y="47.1" class="st2" width="0.5" height="3.3"/>
			<rect x="45.1" y="47.1" class="st2" width="0.5" height="3.3"/>
			<rect x="45.9" y="47.1" class="st2" width="0.5" height="3.3"/>
			<rect x="46.8" y="47.1" class="st2" width="0.5" height="3.3"/>
			<rect x="47.6" y="47.1" class="st2" width="0.5" height="3.3"/>
			<rect x="48.5" y="47.1" class="st2" width="0.5" height="3.3"/>
			<rect x="49.3" y="47.1" class="st2" width="0.5" height="3.3"/>
			<rect x="50.2" y="47.1" class="st2" width="0.5" height="3.3"/>
			<rect x="51" y="47.1" class="st2" width="0.5" height="3.3"/>
			<rect x="51.8" y="47.1" class="st2" width="0.5" height="3.3"/>
			<rect x="52.7" y="47.1" class="st2" width="0.5" height="3.3"/>
			<rect x="53.5" y="47.1" class="st2" width="0.5" height="3.3"/>
			<rect x="54.4" y="47.1" class="st2" width="0.5" height="3.3"/>
			<rect x="55.2" y="47.1" class="st2" width="0.5" height="3.3"/>
			<rect x="56.1" y="47.1" class="st2" width="0.5" height="3.3"/>
			<rect x="56.9" y="47.1" class="st2" width="0.5" height="3.3"/>
			<rect x="57.8" y="47.1" class="st2" width="0.5" height="3.3"/>
			<rect x="58.6" y="47.1" class="st2" width="0.5" height="3.3"/>
			<rect x="59.5" y="47.1" class="st2" width="0.5" height="3.3"/>
			<rect x="60.3" y="47.1" class="st2" width="0.5" height="3.3"/>
			<rect x="61.2" y="47.1" class="st2" width="0.5" height="3.3"/>
			<rect x="62" y="47.1" class="st2" width="0.5" height="3.3"/>
		</g>
		<rect x="58.1" y="56.5" class="st2" width="71.5" height="0.5"/>
		<rect x="-29.7" y="56.5" class="st2" width="71.5" height="0.5"/>
		<g>
			<path class="st2" d="M35.1,56.9h-7v-6.8h7V56.9z M28.6,56.4h5.9v-5.7h-5.9V56.4z"/>
			<rect x="28.3" y="54" class="st2" width="6.4" height="0.5"/>
			<rect x="28.3" y="52.9" class="st2" width="6.4" height="0.5"/>
			<rect x="31.3" y="50.5" class="st2" width="0.5" height="6.1"/>
		</g>
		<g>
			<path class="st2" d="M26.8,56.9h-7v-6.8h7V56.9z M20.4,56.4h5.9v-5.7h-5.9V56.4z"/>
			<rect x="20" y="54" class="st2" width="6.4" height="0.5"/>
			<rect x="20" y="52.9" class="st2" width="6.4" height="0.5"/>
			<rect x="23.1" y="50.5" class="st2" width="0.5" height="6.1"/>
		</g>
		<g>
			<path class="st2" d="M18.6,56.9h-7v-6.8h7V56.9z M12.1,56.4h5.9v-5.7h-5.9V56.4z"/>
			<rect x="11.8" y="54" class="st2" width="6.4" height="0.5"/>
			<rect x="11.8" y="52.9" class="st2" width="6.4" height="0.5"/>
			<rect x="14.8" y="50.5" class="st2" width="0.5" height="6.1"/>
		</g>
		<g>
			<path class="st2" d="M10.4,56.9h-7v-6.8h7V56.9z M3.9,56.4h5.9v-5.7H3.9V56.4z"/>
			<rect x="3.6" y="54" class="st2" width="6.4" height="0.5"/>
			<rect x="3.6" y="52.9" class="st2" width="6.4" height="0.5"/>
			<rect x="6.6" y="50.5" class="st2" width="0.5" height="6.1"/>
		</g>
		<g>
			<path class="st2" d="M129.7,56.9h-7v-6.8h7V56.9z M123.2,56.4h5.9v-5.7h-5.9V56.4z"/>
			<rect x="122.9" y="54" class="st2" width="6.4" height="0.5"/>
			<rect x="122.9" y="52.9" class="st2" width="6.4" height="0.5"/>
			<rect x="125.9" y="50.5" class="st2" width="0.5" height="6.1"/>
		</g>
		<g>
			<path class="st2" d="M121.5,56.9h-7v-6.8h7V56.9z M115,56.4h5.9v-5.7H115V56.4z"/>
			<rect x="114.7" y="54" class="st2" width="6.4" height="0.5"/>
			<rect x="114.7" y="52.9" class="st2" width="6.4" height="0.5"/>
			<rect x="117.7" y="50.5" class="st2" width="0.5" height="6.1"/>
		</g>
		<g>
			<path class="st2" d="M113.2,56.9h-7v-6.8h7V56.9z M106.8,56.4h5.9v-5.7h-5.9V56.4z"/>
			<rect x="106.4" y="54" class="st2" width="6.4" height="0.5"/>
			<rect x="106.4" y="52.9" class="st2" width="6.4" height="0.5"/>
			<rect x="109.5" y="50.5" class="st2" width="0.5" height="6.1"/>
		</g>
		<g>
			<path class="st2" d="M105,56.9h-7v-6.8h7V56.9z M98.5,56.4h5.9v-5.7h-5.9V56.4z"/>
			<rect x="98.2" y="54" class="st2" width="6.4" height="0.5"/>
			<rect x="98.2" y="52.9" class="st2" width="6.4" height="0.5"/>
			<rect x="101.2" y="50.5" class="st2" width="0.5" height="6.1"/>
		</g>
		<g>
			<path class="st2" d="M2.2,56.9h-7v-6.8h7V56.9z M-4.3,56.4h5.9v-5.7h-5.9V56.4z"/>
			<rect x="-4.6" y="54" class="st2" width="6.4" height="0.5"/>
			<rect x="-4.6" y="52.9" class="st2" width="6.4" height="0.5"/>
			<rect x="-1.6" y="50.5" class="st2" width="0.5" height="6.1"/>
		</g>
		<g>
			<path class="st2" d="M-6,56.9h-7v-6.8h7V56.9z M-12.5,56.4h5.9v-5.7h-5.9V56.4z"/>
			<rect x="-12.8" y="54" class="st2" width="6.4" height="0.5"/>
			<rect x="-12.8" y="52.9" class="st2" width="6.4" height="0.5"/>
			<rect x="-9.8" y="50.5" class="st2" width="0.5" height="6.1"/>
		</g>
		<g>
			<path class="st2" d="M-14.3,56.9h-7v-6.8h7V56.9z M-20.8,56.4h5.9v-5.7h-5.9V56.4z"/>
			<rect x="-21.1" y="54" class="st2" width="6.4" height="0.5"/>
			<rect x="-21.1" y="52.9" class="st2" width="6.4" height="0.5"/>
			<rect x="-18.1" y="50.5" class="st2" width="0.5" height="6.1"/>
		</g>
		<g>
			<path class="st2" d="M-22.5,56.9h-7v-6.8h7V56.9z M-29,56.4h5.9v-5.7H-29V56.4z"/>
			<rect x="-29.3" y="54" class="st2" width="6.4" height="0.5"/>
			<rect x="-29.3" y="52.9" class="st2" width="6.4" height="0.5"/>
			<rect x="-26.3" y="50.5" class="st2" width="0.5" height="6.1"/>
		</g>
		<rect x="-29.7" y="60.6" class="st2" width="65.3" height="0.5"/>
		<rect x="64.1" y="60.6" class="st2" width="65.3" height="0.5"/>
		<rect x="38" y="52.1" class="st2" width="0.5" height="3.3"/>
		<rect x="61.6" y="52.1" class="st2" width="0.5" height="3.3"/>
		<rect x="65.7" y="52.1" class="st2" width="0.5" height="3.3"/>
		<rect x="69.7" y="52.1" class="st2" width="0.5" height="3.3"/>
		<rect x="73.8" y="52.1" class="st2" width="0.5" height="3.3"/>
		<rect x="77.8" y="52.1" class="st2" width="0.5" height="3.3"/>
		<rect x="81.9" y="52.1" class="st2" width="0.5" height="3.3"/>
		<rect x="85.9" y="52.1" class="st2" width="0.5" height="3.3"/>
		<rect x="89.9" y="52.1" class="st2" width="0.5" height="3.3"/>
		<rect x="94" y="52.1" class="st2" width="0.5" height="3.3"/>
	</g>
</g>
</svg>
