<?xml version="1.0" encoding="utf-8"?>
<!-- Generator: Adobe Illustrator 25.4.1, SVG Export Plug-In . SVG Version: 6.00 Build 0)  -->
<svg version="1.1" id="Layer_1" xmlns="http://www.w3.org/2000/svg" xmlns:xlink="http://www.w3.org/1999/xlink" x="0px" y="0px"
	 viewBox="0 0 100 100" style="enable-background:new 0 0 100 100;" xml:space="preserve">
<style type="text/css">
	.st0{fill:#2D2E82;}
	.st1{fill:#FFFFFF;}
</style>
<circle class="st0" cx="50" cy="50" r="50"/>
<g>
	<path class="st1" d="M60.4,54H39.7V39.6c0-1.1,0.9-2,2-2h16.7c1.1,0,2,0.9,2,2V54z M40.1,53.7H60V39.6c0-0.9-0.7-1.6-1.6-1.6H41.7
		c-0.9,0-1.6,0.7-1.6,1.6V53.7z"/>
	<path class="st1" d="M93.9,54H60.2V38.8h33.7V54z M60.5,53.7h33V39.1h-33V53.7z"/>
	<g>
		<path class="st1" d="M63.5,54h-3.2V42.6h3.2V54z M60.7,53.7h2.5V43h-2.5V53.7z"/>
		<rect x="60.6" y="44.2" class="st1" width="2.8" height="0.4"/>
		<rect x="60.6" y="48" class="st1" width="2.8" height="0.4"/>
		<rect x="60.6" y="50.5" class="st1" width="2.8" height="0.4"/>
	</g>
	<g>
		<path class="st1" d="M67.2,54H64V42.6h3.2V54z M64.4,53.7h2.5V43h-2.5V53.7z"/>
		<rect x="64.3" y="44.2" class="st1" width="2.8" height="0.4"/>
		<rect x="64.3" y="48" class="st1" width="2.8" height="0.4"/>
		<rect x="64.3" y="50.5" class="st1" width="2.8" height="0.4"/>
	</g>
	<g>
		<path class="st1" d="M70.9,54h-3.2V42.6h3.2V54z M68,53.7h2.5V43H68V53.7z"/>
		<rect x="68" y="44.2" class="st1" width="2.8" height="0.4"/>
		<rect x="68" y="48" class="st1" width="2.8" height="0.4"/>
		<rect x="68" y="50.5" class="st1" width="2.8" height="0.4"/>
	</g>
	<g>
		<path class="st1" d="M74.5,54h-3.2V42.6h3.2V54z M71.7,53.7h2.5V43h-2.5V53.7z"/>
		<rect x="71.6" y="44.2" class="st1" width="2.8" height="0.4"/>
		<rect x="71.6" y="48" class="st1" width="2.8" height="0.4"/>
		<rect x="71.6" y="50.5" class="st1" width="2.8" height="0.4"/>
	</g>
	<g>
		<path class="st1" d="M78.2,54H75V42.6h3.2V54z M75.4,53.7h2.5V43h-2.5V53.7z"/>
		<rect x="75.3" y="44.2" class="st1" width="2.8" height="0.4"/>
		<rect x="75.3" y="48" class="st1" width="2.8" height="0.4"/>
		<rect x="75.3" y="50.5" class="st1" width="2.8" height="0.4"/>
	</g>
	<g>
		<path class="st1" d="M81.9,54h-3.2V42.6h3.2V54z M79.1,53.7h2.5V43h-2.5V53.7z"/>
		<rect x="79" y="44.2" class="st1" width="2.8" height="0.4"/>
		<rect x="79" y="48" class="st1" width="2.8" height="0.4"/>
		<rect x="79" y="50.5" class="st1" width="2.8" height="0.4"/>
	</g>
	<g>
		<path class="st1" d="M85.6,54h-3.2V42.6h3.2V54z M82.7,53.7h2.5V43h-2.5V53.7z"/>
		<rect x="82.7" y="44.2" class="st1" width="2.8" height="0.4"/>
		<rect x="82.7" y="48" class="st1" width="2.8" height="0.4"/>
		<rect x="82.7" y="50.5" class="st1" width="2.8" height="0.4"/>
	</g>
	<g>
		<path class="st1" d="M89.2,54H86V42.6h3.2V54z M86.4,53.7h2.5V43h-2.5V53.7z"/>
		<rect x="86.3" y="44.2" class="st1" width="2.8" height="0.4"/>
		<rect x="86.3" y="48" class="st1" width="2.8" height="0.4"/>
		<rect x="86.3" y="50.5" class="st1" width="2.8" height="0.4"/>
	</g>
	<g>
		<path class="st1" d="M92.9,54h-3.2V42.6h3.2V54z M90.1,53.7h2.5V43h-2.5V53.7z"/>
		<rect x="90" y="44.2" class="st1" width="2.8" height="0.4"/>
		<rect x="90" y="48" class="st1" width="2.8" height="0.4"/>
		<rect x="90" y="50.5" class="st1" width="2.8" height="0.4"/>
	</g>
	<path class="st1" d="M39.9,54H6.1V38.8h33.7V54z M6.5,53.7h33V39.1h-33V53.7z"/>
	<path class="st1" d="M93.9,62.4H6.1v-8.7h87.8V62.4z M6.5,62h86.9v-7.8H6.5V62z"/>
	<g>
		<path class="st1" d="M39.7,54h-3.2V42.6h3.2V54z M36.9,53.7h2.5V43h-2.5V53.7z"/>
		<rect x="36.6" y="44.2" class="st1" width="2.8" height="0.4"/>
		<rect x="36.6" y="48" class="st1" width="2.8" height="0.4"/>
		<rect x="36.6" y="50.5" class="st1" width="2.8" height="0.4"/>
	</g>
	<g>
		<path class="st1" d="M36,54h-3.2V42.6H36V54z M33.2,53.7h2.5V43h-2.5V53.7z"/>
		<rect x="32.9" y="44.2" class="st1" width="2.8" height="0.4"/>
		<rect x="32.9" y="48" class="st1" width="2.8" height="0.4"/>
		<rect x="32.9" y="50.5" class="st1" width="2.8" height="0.4"/>
	</g>
	<g>
		<path class="st1" d="M32.4,54h-3.2V42.6h3.2V54z M29.5,53.7H32V43h-2.5V53.7z"/>
		<rect x="29.2" y="44.2" class="st1" width="2.8" height="0.4"/>
		<rect x="29.2" y="48" class="st1" width="2.8" height="0.4"/>
		<rect x="29.2" y="50.5" class="st1" width="2.8" height="0.4"/>
	</g>
	<g>
		<path class="st1" d="M28.7,54h-3.2V42.6h3.2V54z M25.9,53.7h2.5V43h-2.5V53.7z"/>
		<rect x="25.6" y="44.2" class="st1" width="2.8" height="0.4"/>
		<rect x="25.6" y="48" class="st1" width="2.8" height="0.4"/>
		<rect x="25.6" y="50.5" class="st1" width="2.8" height="0.4"/>
	</g>
	<g>
		<path class="st1" d="M25,54h-3.2V42.6H25V54z M22.2,53.7h2.5V43h-2.5V53.7z"/>
		<rect x="21.9" y="44.2" class="st1" width="2.8" height="0.4"/>
		<rect x="21.9" y="48" class="st1" width="2.8" height="0.4"/>
		<rect x="21.9" y="50.5" class="st1" width="2.8" height="0.4"/>
	</g>
	<g>
		<path class="st1" d="M21.3,54h-3.2V42.6h3.2V54z M18.5,53.7H21V43h-2.5V53.7z"/>
		<rect x="18.2" y="44.2" class="st1" width="2.8" height="0.4"/>
		<rect x="18.2" y="48" class="st1" width="2.8" height="0.4"/>
		<rect x="18.2" y="50.5" class="st1" width="2.8" height="0.4"/>
	</g>
	<g>
		<path class="st1" d="M17.7,54h-3.2V42.6h3.2V54z M14.8,53.7h2.5V43h-2.5V53.7z"/>
		<rect x="14.5" y="44.2" class="st1" width="2.8" height="0.4"/>
		<rect x="14.5" y="48" class="st1" width="2.8" height="0.4"/>
		<rect x="14.5" y="50.5" class="st1" width="2.8" height="0.4"/>
	</g>
	<g>
		<path class="st1" d="M14,54h-3.2V42.6H14V54z M11.2,53.7h2.5V43h-2.5V53.7z"/>
		<rect x="10.9" y="44.2" class="st1" width="2.8" height="0.4"/>
		<rect x="10.9" y="48" class="st1" width="2.8" height="0.4"/>
		<rect x="10.9" y="50.5" class="st1" width="2.8" height="0.4"/>
	</g>
	<g>
		<path class="st1" d="M10.3,54H7.1V42.6h3.2V54z M7.5,53.7H10V43H7.5V53.7z"/>
		<rect x="7.2" y="44.2" class="st1" width="2.8" height="0.4"/>
		<rect x="7.2" y="48" class="st1" width="2.8" height="0.4"/>
		<rect x="7.2" y="50.5" class="st1" width="2.8" height="0.4"/>
	</g>
	<g>
		<path class="st1" d="M63.5,59.5h-3.2v-4.7h3.2V59.5z M60.7,59.2h2.5v-4h-2.5V59.2z"/>
	</g>
	<g>
		<path class="st1" d="M59.9,59.5h-3.2v-4.7h3.2V59.5z M57.1,59.2h2.5v-4h-2.5V59.2z"/>
	</g>
	<g>
		<path class="st1" d="M43.2,59.5H40v-4.7h3.2V59.5z M40.4,59.2h2.5v-4h-2.5V59.2z"/>
	</g>
	<g>
		<path class="st1" d="M52,59.6h-4v-4.8h4V59.6z M48.4,59.2h3.2v-4h-3.2V59.2z"/>
	</g>
	<g>
		<path class="st1" d="M47.6,59.6h-4v-4.8h4V59.6z M44,59.2h3.2v-4H44V59.2z"/>
	</g>
	<g>
		<path class="st1" d="M56.3,59.6h-4v-4.8h4V59.6z M52.7,59.2h3.2v-4h-3.2V59.2z"/>
	</g>
	<g>
		<path class="st1" d="M67.2,59.5H64v-4.7h3.2V59.5z M64.4,59.2h2.5v-4h-2.5V59.2z"/>
	</g>
	<g>
		<path class="st1" d="M70.9,59.5h-3.2v-4.7h3.2V59.5z M68,59.2h2.5v-4H68V59.2z"/>
	</g>
	<g>
		<path class="st1" d="M74.5,59.5h-3.2v-4.7h3.2V59.5z M71.7,59.2h2.5v-4h-2.5V59.2z"/>
	</g>
	<g>
		<path class="st1" d="M78.2,59.5H75v-4.7h3.2V59.5z M75.4,59.2h2.5v-4h-2.5V59.2z"/>
	</g>
	<g>
		<path class="st1" d="M81.9,59.5h-3.2v-4.7h3.2V59.5z M79.1,59.2h2.5v-4h-2.5V59.2z"/>
	</g>
	<g>
		<path class="st1" d="M85.6,59.5h-3.2v-4.7h3.2V59.5z M82.7,59.2h2.5v-4h-2.5V59.2z"/>
	</g>
	<g>
		<path class="st1" d="M89.2,59.5H86v-4.7h3.2V59.5z M86.4,59.2h2.5v-4h-2.5V59.2z"/>
	</g>
	<g>
		<path class="st1" d="M92.9,59.5h-3.2v-4.7h3.2V59.5z M90.1,59.2h2.5v-4h-2.5V59.2z"/>
	</g>
	<g>
		<g>
			<path class="st1" d="M10.2,59.5H7v-4.7h3.2V59.5z M7.4,59.2h2.5v-4H7.4V59.2z"/>
		</g>
		<g>
			<path class="st1" d="M13.9,59.5h-3.2v-4.7h3.2V59.5z M11.1,59.2h2.5v-4h-2.5V59.2z"/>
		</g>
		<g>
			<path class="st1" d="M17.6,59.5h-3.2v-4.7h3.2V59.5z M14.7,59.2h2.5v-4h-2.5V59.2z"/>
		</g>
		<g>
			<path class="st1" d="M21.2,59.5H18v-4.7h3.2V59.5z M18.4,59.2h2.5v-4h-2.5V59.2z"/>
		</g>
		<g>
			<path class="st1" d="M24.9,59.5h-3.2v-4.7h3.2V59.5z M22.1,59.2h2.5v-4h-2.5V59.2z"/>
		</g>
		<g>
			<path class="st1" d="M28.6,59.5h-3.2v-4.7h3.2V59.5z M25.8,59.2h2.5v-4h-2.5V59.2z"/>
		</g>
		<g>
			<path class="st1" d="M32.3,59.5h-3.2v-4.7h3.2V59.5z M29.4,59.2h2.5v-4h-2.5V59.2z"/>
		</g>
		<g>
			<path class="st1" d="M35.9,59.5h-3.2v-4.7h3.2V59.5z M33.1,59.2h2.5v-4h-2.5V59.2z"/>
		</g>
		<g>
			<path class="st1" d="M39.6,59.5h-3.2v-4.7h3.2V59.5z M36.8,59.2h2.5v-4h-2.5V59.2z"/>
		</g>
	</g>
	<rect x="6.4" y="59.2" class="st1" width="87.3" height="0.4"/>
	<rect x="35" y="60.6" transform="matrix(0.8608 -0.509 0.509 0.8608 -25.7483 27.5461)" class="st1" width="5" height="0.4"/>
	<rect x="62.3" y="58.3" transform="matrix(0.5087 -0.8609 0.8609 0.5087 -21.6412 83.7488)" class="st1" width="0.4" height="5"/>
	<rect x="38.2" y="60.2" class="st1" width="23.6" height="0.4"/>
	<rect x="36.7" y="61.1" class="st1" width="26.5" height="0.4"/>
	<rect x="58.6" y="39.1" class="st1" width="0.4" height="13.6"/>
	<rect x="57.4" y="39.1" class="st1" width="0.4" height="13.6"/>
	<rect x="41.5" y="42.1" class="st1" width="18" height="0.4"/>
	<rect x="41.5" y="44.9" class="st1" width="18" height="0.4"/>
	<rect x="41.5" y="47.8" class="st1" width="18" height="0.4"/>
</g>
</svg>
