<?xml version="1.0" encoding="utf-8"?>
<!-- Generator: Adobe Illustrator 25.4.1, SVG Export Plug-In . SVG Version: 6.00 Build 0)  -->
<svg version="1.1" id="pl-wbfc" width="100" height="100" xmlns="http://www.w3.org/2000/svg" xmlns:xlink="http://www.w3.org/1999/xlink" x="0px" y="0px"
	 viewBox="0 0 100 100" style="enable-background:new 0 0 100 100;" xml:space="preserve">
<style type="text/css">
	.st0{fill:#2D2E82;}
	.st1{fill:#FFFFFF;}
</style>
<circle class="st0" cx="50" cy="50" r="50"/>
<g>
	<path class="st1" d="M72.2,80H27.8V55h44.5V80z M28.2,79.5h43.6V55.4H28.2V79.5z"/>
	<path class="st1" d="M33.3,77.2h-2.8v-4.4h2.8V77.2z M30.9,76.8h2v-3.6h-2V76.8z"/>
	<path class="st1" d="M37.8,77.2h-2.8v-4.4h2.8V77.2z M35.4,76.8h2v-3.6h-2V76.8z"/>
	<path class="st1" d="M42.2,77.2h-2.8v-4.4h2.8V77.2z M39.8,76.8h2v-3.6h-2V76.8z"/>
	<path class="st1" d="M46.7,77.2h-2.8v-4.4h2.8V77.2z M44.3,76.8h2v-3.6h-2V76.8z"/>
	<path class="st1" d="M51.2,79.9h-2.8v-7.1h2.8V79.9z M48.8,79.5h2v-6.3h-2V79.5z"/>
	<path class="st1" d="M55.7,77.2h-2.8v-4.4h2.8V77.2z M53.3,76.8h2v-3.6h-2V76.8z"/>
	<path class="st1" d="M60.1,77.2h-2.8v-4.4h2.8V77.2z M57.7,76.8h2v-3.6h-2V76.8z"/>
	<path class="st1" d="M64.6,77.2h-2.8v-4.4h2.8V77.2z M62.2,76.8h2v-3.6h-2V76.8z"/>
	<path class="st1" d="M69.1,77.2h-2.8v-4.4h2.8V77.2z M66.7,76.8h2v-3.6h-2V76.8z"/>
	<path class="st1" d="M33.3,69.6h-2.8v-4.4h2.8V69.6z M30.9,69.2h2v-3.6h-2V69.2z"/>
	<path class="st1" d="M37.8,69.6h-2.8v-4.4h2.8V69.6z M35.4,69.2h2v-3.6h-2V69.2z"/>
	<path class="st1" d="M42.2,69.6h-2.8v-4.4h2.8V69.6z M39.8,69.2h2v-3.6h-2V69.2z"/>
	<path class="st1" d="M46.7,69.6h-2.8v-4.4h2.8V69.6z M44.3,69.2h2v-3.6h-2V69.2z"/>
	<path class="st1" d="M51.2,70.9h-2.8v-5.7h2.8V70.9z M48.8,70.5h2v-4.9h-2V70.5z"/>
	<path class="st1" d="M55.7,69.6h-2.8v-4.4h2.8V69.6z M53.3,69.2h2v-3.6h-2V69.2z"/>
	<path class="st1" d="M60.1,69.6h-2.8v-4.4h2.8V69.6z M57.7,69.2h2v-3.6h-2V69.2z"/>
	<path class="st1" d="M64.6,69.6h-2.8v-4.4h2.8V69.6z M62.2,69.2h2v-3.6h-2V69.2z"/>
	<path class="st1" d="M69.1,69.6h-2.8v-4.4h2.8V69.6z M66.7,69.2h2v-3.6h-2V69.2z"/>
	<path class="st1" d="M33.3,62h-2.8v-4.4h2.8V62z M30.9,61.6h2V58h-2V61.6z"/>
	<path class="st1" d="M37.8,63.3h-2.8v-5.7h2.8V63.3z M35.4,62.8h2V58h-2V62.8z"/>
	<path class="st1" d="M42.2,62h-2.8v-4.4h2.8V62z M39.8,61.6h2V58h-2V61.6z"/>
	<path class="st1" d="M46.7,62h-2.8v-4.4h2.8V62z M44.3,61.6h2V58h-2V61.6z"/>
	<path class="st1" d="M51.2,62h-2.8v-4.4h2.8V62z M48.8,61.6h2V58h-2V61.6z"/>
	<path class="st1" d="M55.7,62h-2.8v-4.4h2.8V62z M53.3,61.6h2V58h-2V61.6z"/>
	<path class="st1" d="M60.1,62h-2.8v-4.4h2.8V62z M57.7,61.6h2V58h-2V61.6z"/>
	<path class="st1" d="M64.6,63.3h-2.8v-5.7h2.8V63.3z M62.2,62.8h2V58h-2V62.8z"/>
	<path class="st1" d="M69.1,62h-2.8v-4.4h2.8V62z M66.7,61.6h2V58h-2V61.6z"/>
	<rect x="34.4" y="60.9" class="st1" width="3.9" height="0.4"/>
	<rect x="61.3" y="60.9" class="st1" width="3.9" height="0.4"/>
	<rect x="47.8" y="68.5" class="st1" width="3.9" height="0.4"/>
	<path class="st1" d="M30.2,55.2h-2.4V19.1h2.4V55.2z M28.2,54.8h1.6V19.5h-1.6V54.8z"/>
	<path class="st1" d="M34.9,55.2h-2.4V19.1h2.4V55.2z M32.9,54.8h1.6V19.5h-1.6V54.8z"/>
	<path class="st1" d="M39.5,55.2h-2.4V19.1h2.4V55.2z M37.5,54.8h1.6V19.5h-1.6V54.8z"/>
	<path class="st1" d="M44.2,55.2h-2.4V19.1h2.4V55.2z M42.2,54.8h1.6V19.5h-1.6V54.8z"/>
	<path class="st1" d="M48.9,55.2h-2.4V19.1h2.4V55.2z M46.9,54.8h1.6V19.5h-1.6V54.8z"/>
	<path class="st1" d="M53.6,55.2h-2.4V19.1h2.4V55.2z M51.5,54.8h1.6V19.5h-1.6V54.8z"/>
	<path class="st1" d="M58.2,55.2h-2.4V19.1h2.4V55.2z M56.2,54.8h1.6V19.5h-1.6V54.8z"/>
	<path class="st1" d="M62.9,55.2h-2.4V19.1h2.4V55.2z M60.9,54.8h1.6V19.5h-1.6V54.8z"/>
	<path class="st1" d="M67.6,55.2h-2.4V19.1h2.4V55.2z M65.6,54.8h1.6V19.5h-1.6V54.8z"/>
	<path class="st1" d="M72.2,55.2h-2.4V19.1h2.4V55.2z M70.2,54.8h1.6V19.5h-1.6V54.8z"/>
	<g>
		<rect x="30" y="47.8" class="st1" width="2.5" height="0.4"/>
		<rect x="30" y="40.6" class="st1" width="2.5" height="0.4"/>
		<rect x="30" y="33.4" class="st1" width="2.5" height="0.4"/>
		<rect x="30" y="26.3" class="st1" width="2.5" height="0.4"/>
		<rect x="30" y="19.1" class="st1" width="2.5" height="0.4"/>
	</g>
	<g>
		<rect x="34.6" y="47.8" class="st1" width="2.5" height="0.4"/>
		<rect x="34.6" y="40.6" class="st1" width="2.5" height="0.4"/>
		<rect x="34.6" y="33.4" class="st1" width="2.5" height="0.4"/>
		<rect x="34.6" y="26.3" class="st1" width="2.5" height="0.4"/>
		<rect x="34.6" y="19.1" class="st1" width="2.5" height="0.4"/>
	</g>
	<g>
		<rect x="39.2" y="47.8" class="st1" width="2.5" height="0.4"/>
		<rect x="39.2" y="40.6" class="st1" width="2.5" height="0.4"/>
		<rect x="39.2" y="33.4" class="st1" width="2.5" height="0.4"/>
		<rect x="39.2" y="26.3" class="st1" width="2.5" height="0.4"/>
		<rect x="39.2" y="19.1" class="st1" width="2.5" height="0.4"/>
	</g>
	<g>
		<rect x="44" y="47.8" class="st1" width="2.5" height="0.4"/>
		<rect x="44" y="40.6" class="st1" width="2.5" height="0.4"/>
		<rect x="44" y="33.4" class="st1" width="2.5" height="0.4"/>
		<rect x="44" y="26.3" class="st1" width="2.5" height="0.4"/>
		<rect x="44" y="19.1" class="st1" width="2.5" height="0.4"/>
	</g>
	<g>
		<rect x="48.7" y="47.8" class="st1" width="2.5" height="0.4"/>
		<rect x="48.7" y="40.6" class="st1" width="2.5" height="0.4"/>
		<rect x="48.7" y="33.4" class="st1" width="2.5" height="0.4"/>
		<rect x="48.7" y="26.3" class="st1" width="2.5" height="0.4"/>
		<rect x="48.7" y="19.1" class="st1" width="2.5" height="0.4"/>
	</g>
	<g>
		<rect x="53.3" y="47.8" class="st1" width="2.5" height="0.4"/>
		<rect x="53.3" y="40.6" class="st1" width="2.5" height="0.4"/>
		<rect x="53.3" y="33.4" class="st1" width="2.5" height="0.4"/>
		<rect x="53.3" y="26.3" class="st1" width="2.5" height="0.4"/>
		<rect x="53.3" y="19.1" class="st1" width="2.5" height="0.4"/>
	</g>
	<g>
		<rect x="58.1" y="47.8" class="st1" width="2.5" height="0.4"/>
		<rect x="58.1" y="40.6" class="st1" width="2.5" height="0.4"/>
		<rect x="58.1" y="33.4" class="st1" width="2.5" height="0.4"/>
		<rect x="58.1" y="26.3" class="st1" width="2.5" height="0.4"/>
		<rect x="58.1" y="19.1" class="st1" width="2.5" height="0.4"/>
	</g>
	<g>
		<rect x="62.9" y="47.8" class="st1" width="2.5" height="0.4"/>
		<rect x="62.9" y="40.6" class="st1" width="2.5" height="0.4"/>
		<rect x="62.9" y="33.4" class="st1" width="2.5" height="0.4"/>
		<rect x="62.9" y="26.3" class="st1" width="2.5" height="0.4"/>
		<rect x="62.9" y="19.1" class="st1" width="2.5" height="0.4"/>
	</g>
	<g>
		<rect x="67.4" y="47.8" class="st1" width="2.5" height="0.4"/>
		<rect x="67.4" y="40.6" class="st1" width="2.5" height="0.4"/>
		<rect x="67.4" y="33.4" class="st1" width="2.5" height="0.4"/>
		<rect x="67.4" y="26.3" class="st1" width="2.5" height="0.4"/>
		<rect x="67.4" y="19.1" class="st1" width="2.5" height="0.4"/>
	</g>
	<rect x="28.2" y="62.9" class="st1" width="44" height="0.4"/>
	<rect x="28.2" y="70.5" class="st1" width="44" height="0.4"/>
	<rect x="48.4" y="78.8" class="st1" width="2.7" height="0.4"/>
	<rect x="48.4" y="78.1" class="st1" width="2.7" height="0.4"/>
	<path class="st1" d="M66.5,19.5h-33V16h33V19.5z M33.9,19.1h32.1v-2.6H33.9V19.1z"/>
	<rect x="26.6" y="56.1" class="st1" width="46.9" height="0.4"/>
</g>
</svg>
