<?xml version="1.0" encoding="utf-8"?>
<!-- Generator: Adobe Illustrator 25.4.1, SVG Export Plug-In . SVG Version: 6.00 Build 0)  -->
<svg version="1.1" id="pl-wmfc" width="100" height="100" xmlns="http://www.w3.org/2000/svg" xmlns:xlink="http://www.w3.org/1999/xlink" x="0px" y="0px"
	 viewBox="0 0 100 100" style="enable-background:new 0 0 100 100;" xml:space="preserve">
<style type="text/css">
	.st0{fill:#2D2E82;}
	.st1{fill:#FFFFFF;}
</style>
<circle class="st0" cx="50" cy="50" r="50"/>
<g>
	<path class="st1" d="M63.6,60.8H36.5V24.6h27.1V60.8z M37,60.3h26.1V25.1H37V60.3z"/>
	<path class="st1" d="M80,60.8h-17V35.3h17V60.8z M63.6,60.3h16V35.8h-16V60.3z"/>
	<path class="st1" d="M65.2,24H34.8L50,16.4l0.1,0.1L65.2,24z M36.9,23.5h26.3L50,16.9L36.9,23.5z"/>
	<rect x="20.5" y="45.2" class="st1" width="59.1" height="0.5"/>
	<rect x="20.5" y="57.2" class="st1" width="59.1" height="0.5"/>
	<rect x="36.7" y="27.5" class="st1" width="26.8" height="0.5"/>
	<rect x="38.3" y="27.7" class="st1" width="0.5" height="17.7"/>
	<rect x="43.8" y="27.7" class="st1" width="0.5" height="17.7"/>
	<rect x="45.7" y="27.7" class="st1" width="0.5" height="17.7"/>
	<rect x="53.4" y="27.7" class="st1" width="0.5" height="17.7"/>
	<rect x="55.2" y="27.7" class="st1" width="0.5" height="17.7"/>
	<rect x="61.1" y="27.7" class="st1" width="0.5" height="17.7"/>
	<path class="st1" d="M52.7,45.7h-5.8V34.4c0-1.6,1.3-2.9,2.9-2.9c1.6,0,2.9,1.3,2.9,2.9V45.7z M47.4,45.2h4.8V34.4
		c0-1.3-1.1-2.4-2.4-2.4c-1.3,0-2.4,1.1-2.4,2.4V45.2z"/>
	<path class="st1" d="M43.2,34.6h-3.8v-3.1h3.8V34.6z M39.9,34.1h2.8V32h-2.8V34.1z"/>
	<path class="st1" d="M43.2,45.7h-3.8V35.6h3.8V45.7z M39.9,45.2h2.8V36h-2.8V45.2z"/>
	<path class="st1" d="M60.3,34.6h-3.8v-3.1h3.8V34.6z M57,34.1h2.8V32H57V34.1z"/>
	<path class="st1" d="M60.3,45.7h-3.8V35.6h3.8V45.7z M57,45.2h2.8V36H57V45.2z"/>
	<path class="st1" d="M53.1,55.1H47v-7.6h6.1V55.1z M47.4,54.7h5.2V48h-5.2V54.7z"/>
	<path class="st1" d="M52.8,69.7h-5.6v-7.6h5.6V69.7z M47.7,69.3h4.6v-6.7h-4.6V69.3z"/>
	<path class="st1" d="M43.3,55.1h-4v-7.6h4V55.1z M39.8,54.7h3.1V48h-3.1V54.7z"/>
	<path class="st1" d="M60.5,55.1h-4v-7.6h4V55.1z M56.9,54.7H60V48h-3.1V54.7z"/>
	<path class="st1" d="M69.8,55.1h-4v-7.6h4V55.1z M66.3,54.7h3.1V48h-3.1V54.7z"/>
	<path class="st1" d="M76.6,55.1h-4v-7.6h4V55.1z M73.1,54.7h3.1V48h-3.1V54.7z"/>
	<path class="st1" d="M69.8,43.7h-4v-5.9h4V43.7z M66.3,43.2h3.1v-4.9h-3.1V43.2z"/>
	<path class="st1" d="M76.6,43.7h-4v-5.9h4V43.7z M73.1,43.2h3.1v-4.9h-3.1V43.2z"/>
	<rect x="71.4" y="23.4" transform="matrix(0.375 -0.927 0.927 0.375 14.8705 86.5072)" class="st1" width="0.5" height="17.7"/>
	<path class="st1" d="M37,60.8h-17V35.3h17V60.8z M20.5,60.3h16V35.8h-16V60.3z"/>
	<path class="st1" d="M34.3,55.1h-4v-7.6h4V55.1z M30.7,54.7h3.1V48h-3.1V54.7z"/>
	<path class="st1" d="M27.5,55.1h-4v-7.6h4V55.1z M23.9,54.7H27V48h-3.1V54.7z"/>
	<path class="st1" d="M34.3,43.7h-4v-5.9h4V43.7z M30.7,43.2h3.1v-4.9h-3.1V43.2z"/>
	<path class="st1" d="M27.5,43.7h-4v-5.9h4V43.7z M23.9,43.2H27v-4.9h-3.1V43.2z"/>
	<path class="st1" d="M69.8,66h-4v-4h4V66z M66.3,65.5h3.1v-3.1h-3.1V65.5z"/>
	<path class="st1" d="M76.6,66h-4v-4h4V66z M73.1,65.5h3.1v-3.1h-3.1V65.5z"/>
	<path class="st1" d="M34.3,66h-4v-4h4V66z M30.7,65.5h3.1v-3.1h-3.1V65.5z"/>
	<path class="st1" d="M43.4,66h-4v-4h4V66z M39.9,65.5h3.1v-3.1h-3.1V65.5z"/>
	<path class="st1" d="M60.4,66h-4v-4h4V66z M56.8,65.5h3.1v-3.1h-3.1V65.5z"/>
	<path class="st1" d="M27.5,66h-4v-4h4V66z M23.9,65.5H27v-3.1h-3.1V65.5z"/>
	<rect x="19.6" y="32" transform="matrix(0.9271 -0.3748 0.3748 0.9271 -9.9995 13.0301)" class="st1" width="17.7" height="0.5"/>
	<path class="st1" d="M81.8,75.2H18.2L20,60.2H80L81.8,75.2z M18.8,74.7h62.5l-1.6-14H20.4L18.8,74.7z"/>
	<rect x="36.4" y="60.5" class="st1" width="0.5" height="10.3"/>
	<rect x="63.1" y="60.5" class="st1" width="0.5" height="7.8"/>
	<rect x="49.8" y="62.5" class="st1" width="0.5" height="7.1"/>
	<polygon class="st1" points="34.7,74.8 34.2,74.8 34.2,71.4 41.3,69.4 60.7,69.4 66,67.2 80.5,67.2 80.5,67.7 66.1,67.7 60.7,69.8 
		41.3,69.8 34.7,71.8 	"/>
	<polygon class="st1" points="18.7,75.1 18.3,74.8 23.1,70.2 36.8,70.2 36.8,70.7 23.3,70.7 	"/>
	<path class="st1" d="M49.7,17l-0.5,0l0.2-1.7l-0.2-0.9c0-0.3,0.1-0.5,0.3-0.7c0.3-0.3,0.9-0.3,1.3,0c0.2,0.2,0.3,0.4,0.3,0.6
		l-0.1,1l0.1,1.7l-0.5,0l-0.1-1.8l0.1-1c0-0.1,0-0.2-0.1-0.3c-0.2-0.2-0.4-0.2-0.6,0c-0.1,0.1-0.1,0.2-0.1,0.3l0.2,1L49.7,17z"/>
	<path class="st1" d="M49.9,13.3c-0.3,0-0.6-0.2-0.6-0.6s0.2-0.6,0.6-0.6c0.3,0,0.6,0.2,0.6,0.6S50.2,13.3,49.9,13.3z M49.9,12.7
		C49.8,12.7,49.8,12.7,49.9,12.7C49.8,12.8,49.9,12.8,49.9,12.7C49.9,12.7,49.9,12.7,49.9,12.7z"/>
	<path class="st1" d="M37.5,22.3c-0.4,0-0.7-0.3-0.7-0.6c0-0.4,0.3-0.6,0.7-0.6s0.7,0.3,0.7,0.6C38.2,22,37.9,22.3,37.5,22.3z
		 M37.5,21.4c-0.2,0-0.3,0.1-0.3,0.2c0,0.1,0.1,0.2,0.3,0.2c0.2,0,0.3-0.1,0.3-0.2C37.8,21.5,37.7,21.4,37.5,21.4z"/>
	<path class="st1" d="M37.5,21c-0.3,0-0.6-0.2-0.6-0.5s0.3-0.5,0.6-0.5s0.6,0.2,0.6,0.5S37.8,21,37.5,21z M37.5,20.4
		c-0.1,0-0.1,0-0.1,0.1s0,0.1,0.1,0.1c0.1,0,0.1,0,0.1-0.1C37.6,20.4,37.6,20.4,37.5,20.4z"/>
	<path class="st1" d="M62.6,22.3c-0.4,0-0.7-0.3-0.7-0.6c0-0.4,0.3-0.6,0.7-0.6c0.4,0,0.7,0.3,0.7,0.6C63.3,22,63,22.3,62.6,22.3z
		 M62.6,21.4c-0.2,0-0.3,0.1-0.3,0.2c0,0.1,0.1,0.2,0.3,0.2c0.2,0,0.3-0.1,0.3-0.2C62.8,21.5,62.7,21.4,62.6,21.4z"/>
	<path class="st1" d="M62.6,21c-0.3,0-0.6-0.2-0.6-0.5s0.3-0.5,0.6-0.5c0.3,0,0.6,0.2,0.6,0.5S62.9,21,62.6,21z M62.6,20.4
		c-0.1,0-0.1,0-0.1,0.1s0,0.1,0.1,0.1c0.1,0,0.1,0,0.1-0.1C62.7,20.4,62.6,20.4,62.6,20.4z"/>
</g>
</svg>
